<svg id="ab461a8d-a119-43db-823a-77b513ef342f" data-name="set" xmlns="http://www.w3.org/2000/svg" viewBox="0 0 102.56 184.61">
  <g id="ff2c718a-27f3-4052-9341-ad49ea145a51" data-name="g14809">
    <path id="b983f886-aab2-4aea-886a-d43d152a0abd" data-name="path5630-6" d="M54,160c-.55,2.48.74,13.39-6,13.86s-6.74-11.23-7.39-13.12c-4-7.29,15.8-12.46,13.42-.74Z" style="fill: #c9b9b9"/>
    <path id="bccfdc2b-355a-4778-a0be-1e3135eefdd0" data-name="path5650-9" d="M51.24,172.33a7.87,7.87,0,0,0-6.78.47C46.31,176.65,50.18,175.91,51.24,172.33Z"/>
    <path id="f92c4129-a116-4fe6-ae75-9982e950db3d" data-name="path5801-3" d="M43.58,40.35c-.12,0,2,.37,1.4,1.06-2.67,2.92-8.35,3.29-6.63-2.27.78-4.45,5.71-8.85,10-11.11C52.82,17.5,58,24.92,51.1,29.89c-6,3.79-8.68,7.35-7.52,10.46Z" style="fill: #baa1a1"/>
    <path id="a0f0a6b8-0e2f-4581-af31-4246f2fdd44e" data-name="path5805-8" d="M63.23,21.44c2.92-1.31,2.2-4.39.76-4.65.89-2.77-1.78-4.83-4.42-4.3-.64-1.3-4-3.31-5.3.31-2.38.2-4,1.36-4.08,3.55-3.21.79-4,2.3-2.81,4.85-2.21.49-3.14,4.28-.73,5-1.76,2.63,1.9,5.22,3.79,4.33,0,2.52,4.18,3.77,5.16,1,1.74.57,4.58-.38,4-2.82,2.3-.09,2.78-2.36,1.22-4,1.86.61,4.6-1.56,2.45-3.29Z" style="fill: #cbc6dd"/>
    <path id="a733f7cd-6b4f-4354-bb01-cfaf3cc79cbe" data-name="path5646-9" d="M45.49,39.58c7.51.55,12.91,2.91,13.56,11.06.26,3.22.32,8.83-2.2,11.68-1.15,8.81-1.63,20.05-13.68,20.86C32.07,83.47,30,70.74,28.39,63.8c-2.66-2.49-3.88-7.43-3.93-10.65C24.33,43.75,30,40.76,38,39.51a10.78,10.78,0,0,1,7.47.07Z" style="fill: #c6b6b6"/>
    <path id="a7520b7d-0e66-4e97-b733-250f258ab3aa" data-name="path5662-2-3" d="M29.44,150.3a7.43,7.43,0,0,1-7.41.13c-1.16,1.11-8.68,6.35-7.89,3.8-1.67-.18-2.11-.62-1.77-1.72-2.12.22-3-1.57-1.31-2.19-3,.22-4.46-2.73-1.62-3.75-2.17-1.59-1.82-3.52.08-3.6-1.69-2.22.18-2.18,2.36-3-.24-2.25.26-3,2.75-1.63,0-2.48-.91-2.3,2.15-1.68,5.43-1.92,7.53.08,11.7,1.22,4,2.75,5.3,8.69,1,12.39Z" style="fill: #c6c1d5"/>
    <path id="beeb5ac0-727f-4569-84cf-ceae91cf4a64" data-name="path5662-0" d="M64.18,136.16a7.76,7.76,0,0,0,2.81-2.1c.93-1.42,1.22-2.07,3.87-.78,1.32-1.33,2.46-1.29,3.26-.37,3-.88,3.38.3,3.63,2.77,2.35-1.61,2.83.76,2.8,3,2.24.58,2.85,1.17,1.37,3.54,1.9-.09,2.41,1.81.4,3.58,2.91.76,1.74,3.83-1.28,3.88,1.76.46,1,2.33-1.11,2.3.43,1.06,0,1.54-1.61,1.87,1,2.47-5.66-1.84-6.91-2.84a11.5,11.5,0,0,1-7.35-2.15c-3.91-1.61-3.32-7.92-2.44-11C62.76,136.32,62.51,136.18,64.18,136.16Z" style="fill: #c6c1d5"/>
    <path id="bb10dd11-9551-46a0-ac6e-77f3cebcbed0" data-name="path5660-1" d="M59.81,63.9c1.95-.33,4.87-2.26,2.73-3.81,3.1-.73,3.19-3.39,1.42-4.67,1.91-2.17-1.81-5.65-4.47-4-.4-1.63-5-2.51-5.16-.27-2.06-.3-3.73,1.06-3.35,2.58-2.66,1-3.35,2.86-2,4.44-2.56,1.82.44,2.55.34,3.72-1.44,1.53.54,2,2.18,2.59a2.56,2.56,0,0,0,3,2.48c3.22,1.43,3.76.57,3.72-.81,1-.15,2.78-.85,1.64-2.24Z" style="fill: #d5ceea"/>
    <path id="b368bd01-4e09-4dd6-b9f3-df4189509440" data-name="path5660-0-0" d="M25.2,65.49c-1.92-.34-4.76-2.29-2.56-3.82-3.07-.74-3-3.41-1.21-4.68-1.19-2.79,2.13-4.5,4-3.75.84-2.15,5.74-2.71,5.83-.47,2.07-.29,3.68,1.08,3.24,2.59,2.61,1,3.22,2.89,1.86,4.46,2.48,1.84-.55,2.55-.5,3.71,1.37,1.55-.63,2-2.3,2.58a2.66,2.66,0,0,1-3.11,2.46c-4.2.43-6.24-1.83-5.23-3.08Z" style="fill: #d5ceea"/>
    <path id="a1497d54-bf96-4071-a012-e381107e18ae" data-name="path6979" d="M55.83,158.11c2.54,0,2.89,4.09-.6,3.69C52.61,161.49,53.29,158.09,55.83,158.11Z"/>
    <path id="bf1f3f35-39f3-4b8b-926f-91dc7c95db3e" data-name="path6979-3" d="M38.57,158.42c-2.53.24-2.51,4.32.93,3.61C42.08,161.5,41.1,158.17,38.57,158.42Z"/>
    <path id="e1508b0d-c275-42ad-9605-4c796e5b6741" data-name="path5652-9-3" d="M42.41,159.08c-2.19,1.88-6.6,1.47-6.92-1.26-2.76.84-5.39-1.09-4-3.45-3.59.93-4.36-2.25-3.62-4-2.89-.45-2.39-5.16.07-4.52-1.83-1.21-1.88-3.59.65-4.28a2,2,0,0,1,1-3.75c-1.64-1.93.05-4,2.09-3.65-1.34-1.15-1.32-3.28,1.08-3.89-1.79-1-1.38-2.21-.33-3.82-1.16-1.23-1.84-2.25-.91-3.68-1.94-1.49-3.34-3.27-.2-4.4-.87-2.3-.25-2.69,1.33-3.77.93-1.45.53-1.18,2.39-.58,0-2,1.78-2.32,2.62-1.34.16-2,1.93-2.15,2.72-.91.56-.73,1.55-2.3,3.19-.1,1.43-1.7,2.27-.6,3.66.17,1.45-2.45,2.91-1.49,3.1.66,1-1.81,3.58-1.76,3.46.45,1.77-1.37,3.21-1.23,4,.6,1.68.93,2.33,1.27,1.67,3.64,3.22.84,2,2.74.19,4.4,1.06,1.34.47,2.41-.58,3.75,1.19,1.51.32,5.38-2.71,5.81,2.52-.12,4-.87,4.76,2,2.05.54,3,2,1.53,4,.93-.5,3.28,1.48,1.91,3.43,2.55.62,2.91,3.09.26,4.7C68,145,68,149.45,65.61,150c1,1,1,4.69-2.16,4.2.81,1.49-1.31,3.94-4,2.9-.37,3.06-5.06,2.94-6.25,1.24a3.32,3.32,0,0,1-5.44,1c-2.37,3-4.79,1-5.34-.33Z" style="fill: #d5ceea"/>
    <path id="ad3b8229-6e41-490a-bc2c-b4d16a523514" data-name="path5654-2-4" d="M29.58,128.32c-1.13.25-4.79.5-6-2.38a6.35,6.35,0,0,1-6.42-6.33c-3.28-2.38-3.35-3.89-2.47-6.7-3.54-2-5.2-4.15-4.36-6.84-2.36-3-2.91-5.12-.84-8.24-3-3.19-.19-7,2.93-8.06-1.55-3.15-.16-5.11,2.52-6.06-2.13-3.28-1.45-6.1,2.45-7.48.16-3.19,4-4,7.3-3.16,1-3.53,6.29-3,8.88-2.38,2.25-1.8,4.3-1.5,6.49-.29,2.15-2.47,5.67-3,7.63-.26,2.08-1.39,4.09-1.88,6.5-.28,2.52-.9,7.71-1.84,9,1.57,3.22-1.14,7.11-.66,7.55,2.5,4,1,4.94,3.78,3.11,7.23,2.76.71,4.31,2.54,3,5.82a5.16,5.16,0,0,1,3.44,7.32c2.34,2.92,1.52,4.89-.56,8.09,1.08,2.61.28,5.58-3.08,7.84,1.13,2.72,1.19,4.23-1.86,6.89,1,3.22-2.16,6.49-5.6,6,.62,2.16-3.64,5.08-5.83,3.17-3.48,3.86-6.94,3.78-10.71,1.36-2.87,3.52-7.22.16-9.55,1.11-4.65,1.63-9.69-1.41-13.64-.47Z" style="fill: #cbc6dd"/>
  </g>
</svg>
