<svg id="e60bebd4-ff1c-4ff5-a34a-9a39824fa64d" data-name="ab461a8d-a119-43db-823a-77b513ef342f" xmlns="http://www.w3.org/2000/svg" viewBox="0 0 143.36 183.68">
  <path d="M79.67,95.69C78.3,97.51,91.19,97,93.66,97c12.63,0,17.06,4.41,26.9,9.32,2.68,1.34,2.32,6.33,5.73,6.64,1.93-2.56.71-5.79-.09-6.28,2.33,1.57,3,4.73,3.14,7.89,2.66-3.55.38-10.06-4.12-11.12,3,2.25,6.53,3.7,7.17,8.61,2.07-4.15-.37-8.8-4.48-11,3.48,0,6.62,4.51,7.17,7.9.53-5.52-2.76-10.84-6.81-10.76,1.75-1.34,2.32-4.17,1.07-5,0,1.94-1,3.07-2.69,4.13,2.74-2.06,4-8.44-.36-9.69,1.57,2.1.1,4.77-2.33,5.56,2.43-3.24,1-8.24-2.69-10.4a3.87,3.87,0,0,1-.89,5.38c0-3.45-3.64-6.69-7.54-7.35,1.8,1.34,4,3.78,2.69,6.45-2.56-1.92-3.11-6.15-8.51-6.63,1.25.34,3.94,3.29,3.14,5.38-1.81-2.41-7.3-5.85-9.6-6.1,1,1.08,3.94,3.51,4.21,6.28-3-4-7.35-5.57-12.91-5,4.36,0,6.62,1.87,7.89,5.39-3.62-2.72-7.86-4.23-11.57-1.71,4.71-.58,6.59,2.5,7.45,3.86-4.08-2-8.39-3.68-12.19,1.25,1-.78,4.71-2.86,6.27-.18-3.67,0-5.94.12-7.89,3.41,1.05-.78,4.1-2.1,6.1-.72-3.48-.69-7.72,2.45-8.25,3.23Zm0,0" style="fill: #d5ceea"/>
  <path d="M47.91,180.59c6.65-6.34,6.32-22.92,3.27-33.3-1.81-3.61-7.6-6.07-13.19-4.24-.33,2.08-1.08,3.74,0,5.83-1.08,2.18-1.08,3.5,0,4.9-1.3,2.37-1.55,4.23-.48,6.3a3.94,3.94,0,0,0,.24,4.66c-.62,2.19-.63,3.45.48,4.9-1.91,1.62-1.61,3.2-.48,4.66-1.62,2.26-.28,3.6.73,4.9-.76,2.73,2.12,1.31,2.9.93,1.17,1.5,2.07.87,2.9.46a3.26,3.26,0,0,0,3.63,0Zm0,0" style="fill: #b0acc1"/>
  <path d="M25.8,117.9a15.48,15.48,0,0,0,3.77-1.57c4.56-2.28,15.74.82,21-1.78,10.76-5.39,19.67-12.75,28.56-19,4.4,1.74,15.29-.57,25.39-.62,3.88,0,8.64.64,11.36,2.07a25.34,25.34,0,0,1,6.06,4.61,6.18,6.18,0,0,1,2.11,6.79c2,1.1,2.6,4.23,2.48,7.53,1.34,3,2.31,3.51,1.78,7.53,1.15,2.58,1.79,3.52.71,7.14,1.56,2.32,1.84,3.39.35,6.73,2.5,2.09,1.72,4.8,1,7.19a3.68,3.68,0,0,1,1.37,5c2.49-.47,3.54,1.28,3.71,3,2.47.07,3.47,1.81,2.84,3.85,2.55.54,3.38,2.6,3.9,5.54,2.05,1.51,1.36,3.7-.35,5.16,1.43,2.18.76,3.72-.71,4.75,1.25,2.76-.12,4.53-2,5.35,1.4,1.79-.56,4.74-2.5,4.53-.6,1.48-2.88,2-4.21.07a2.84,2.84,0,0,1-4.11-2.42c-1.3-.29-3.44-.61-3.55-4.36-1.65-.92-2.3-2-3.2-4.75-2.1-1.18-2.92-1.18-3.19-4.36l-1.77-3c-2.48-1.59-3.46-2.36-3.2-5.75-2.64-1.47-2.94-3.22-4.62-6.74-1.36-1.14-2.71-2.14-2.84-5.15-1.71-1.44-2-3.2-3-6.07-11,.59-19.64,11.14-32.26,8.86a6.61,6.61,0,0,1-1.42,2.28c.8,1,.48,3.41-.24,5.37,1,1.89.45,3.66-.72,5.36.89,1.73.06,3.24-1,4.9a4.18,4.18,0,0,1-1,5.13c1,1.94.6,3-.48,4.89a5.29,5.29,0,0,1-1,3.74c.32,1.54.91,1.62-1.21,3-1.12.81-1.74,1.52-3.63.23-1.29.93-2.63.92-4.59-.23-1.38.66-2.18,1.17-4.12-.47-1.17.23-2.09.29-2.66-1.4a3.34,3.34,0,0,1,0-4,5.12,5.12,0,0,1-.48-5.6c-.37-1.77-.67-3.11.24-5.13a8.33,8.33,0,0,1-.24-4.9c-.68-1.31-1.5-2.52-.48-4.66a8.8,8.8,0,0,1,.72-6.3,9.37,9.37,0,0,1-.91-3.31c-2.56.5-3.65,0-5.52-1.5-2.27.47-2.66-.53-3.94-2.76-2.74-.57-3.94-2.19-3.63-5.24-2.23-.4-3.55-3.58-2.42-6-2.52-.52-4.7-4.21-3.66-7.1a6.52,6.52,0,0,1-2.49-6.53Zm0,0" style="fill: #cbc6dd"/>
  <path d="M30.56,100.18a.43.43,0,0,1,.46.54A8,8,0,0,0,33.09,108a.43.43,0,0,1,0,.58.44.44,0,0,1-.59,0,8.65,8.65,0,0,1-2.3-8.12.42.42,0,0,1,.33-.31Zm0,0"/>
  <path d="M32.84,101.76a.44.44,0,0,1,.51.49c-.6,2.55.81,5.5,3.12,7.15a.43.43,0,0,1,.09.58.42.42,0,0,1-.58.09c-2.55-1.82-4.12-5-3.42-8a.44.44,0,0,1,.28-.31Zm0,0"/>
  <path d="M36.54,100.46a.43.43,0,0,1,.44.65,5,5,0,0,0,.12,6.68.43.43,0,0,1-.06.61.43.43,0,0,1-.6-.12,6.39,6.39,0,0,1-1.51-3.7,6.3,6.3,0,0,1,1.38-4,.4.4,0,0,1,.23-.17Zm0,0"/>
  <path d="M56,100.25a.43.43,0,0,1,.45.33,8.61,8.61,0,0,1-2.31,8.09.41.41,0,0,1-.58,0,.42.42,0,0,1,0-.58,7.92,7.92,0,0,0,2.07-7.28.44.44,0,0,1,.35-.54Zm0,0"/>
  <path d="M53.6,101.83a.42.42,0,0,1,.48.31c.7,3-.89,6.18-3.44,8a.41.41,0,1,1-.46-.67c2.3-1.65,3.71-4.58,3.11-7.12a.44.44,0,0,1,.31-.52Zm0,0"/>
  <path d="M28.55,117.7c11.47.29,18.64.94,27.8.23.41,1.07,4.27.78,4.72-.91,3.24.15,5.6-1.65,4.87-4.26,2.71.06,4.64-1.67,4.57-4,2.72-1.42,3.35-2.51,3.35-4.87,3.59-1.38,4.71-3.19,3.8-6.4,2.27-1.39,1.91-4.55.76-6.08,2.76-.92,3-6.71,0-7.31,3.29-2.43,1.69-6.71,0-6.69,1.39-3.19.62-5.78-1.83-7,.62-2.82-.6-4.14-2.73-4.57.74-3-.72-3.49-3-3.95-.28-3.23-1.43-5.18-4.56-5.18-.94-2.9-2.23-3.34-5.48-3.34-.07-2.64-1.61-4.19-4.26-3.66C55,48,53.51,47.29,51,48.54c-1-2-3.11-2.64-5.64-1.38-.59-1.57-4.52-2.22-5.29-.49a3.81,3.81,0,0,0-5.91,1.94c-2.27-2.61-5.33-1.26-5.18.91-2.65-.53-5.4,0-5.17,3.35-3.26,0-4.54.45-5.48,3.35-3.13,0-4.29,2-4.57,5.17-2.32.47-3.78,1-3,4-2.14.43-3.36,1.74-2.74,4.56-2.44,1.23-3.22,3.82-1.82,7-1.85.89-3.29,4.27,0,6.7-2.66.75-2.92,6.38,0,7.3A4.81,4.81,0,0,0,7,97.61c-1.22,3.36,1.42,5.32,3.8,5.78a3.28,3.28,0,0,0,3.35,4.87c-.06,3.09,2.79,5,5.48,4.88-1.34,1.85,2.08,4.56,4,3.34a3.91,3.91,0,0,0,5,1.22Zm0,0" style="fill: #d5ceea"/>
  <path d="M56.51,111.84c6.12-6-4.14-17-12.68-17.12-12.32-.23-18.74,11.2-15.73,16.59a4.06,4.06,0,0,0,1.21,6.7c1.17,2.58,3.57,2.89,5.79,2.13.79,1.71,3.24,2,4.84,1,1.68,1.55,3.64,1.34,4.69-.19a4.4,4.4,0,0,0,5.79-.76,3.23,3.23,0,0,0,4.87-1.67,4.06,4.06,0,0,0,1.22-6.7Zm0,0" style="fill: #d5ceea"/>
  <path d="M55.48,91.75c-2.12.76-9.42-.33-12.81-.18-3.65.18-10.34,1.3-12.64.93a2.34,2.34,0,0,0-.79-3.21c.73-.78,1.13-3.44-.6-4.16,1.4-.19,2-.66,2.17-1.85,1,1.47,4.06,1.17,4.52.46-.72,1.29,1.66,2.73,3.3,1.39,0,2.3,3.83,2.45,4,1.2.21,1.19,4,1,4-1.26,1.64,1.34,4-.1,3.31-1.39.46.71,3.52,1,4.52-.46.13,1.19.76,1.66,2.17,1.85-1.73.72-1.33,3.38-.61,4.16-.84.57-1.47,1.25-.61,2.52Zm0,0" style="fill: #ddd0d0"/>
  <path d="M32.88,85.13c3.51,0,3.76,5-.38,4.61-2.55-.26-3-4.64.38-4.61Zm0,0"/>
  <path d="M52.27,84.86c-3.51,0-3.77,5,.37,4.61,2.56-.26,3-4.64-.37-4.61Zm0,0"/>
  <path d="M55.88,107.59a4.8,4.8,0,0,0,1-3.65c-.92,1.84-1.42,3.87-3.24,5.35a8.71,8.71,0,0,0,1.23-4.68c-1.17,2.34-.92,4.68-4.35,5.13a8.17,8.17,0,0,0,1.79-4.35c-.58,1.16-1,2.37-2.49,2.72,1.8-2.29,2-4.6-.31-7.45a4.64,4.64,0,0,1-6.12.83,4.6,4.6,0,0,1-5-.55c-1.77.88-2,5.25-.56,7.68-2.45-.49-2.41-2.65-3.45-4.68,0,2.52,1.28,4.24,2.34,6.24-2.44-1-3-3.34-4.46-5.79-.38,1.88.63,3.34,1.56,4.79-2.53,0-3.32-3.13-4.12-5.57-.28,1.43.4,2.62,1,3.9-8.44-9.29,1.54-20.89,8.62-17.59a19.43,19.43,0,0,1,7.76,0c7.21-3.2,17.18,8.4,8.74,17.69Zm0,0" style="fill: #cbc6dd"/>
  <path d="M43.24,95.41c4.43-.14,3.55,4.93.13,4.88s-4.56-4.74-.13-4.88Zm0,0"/>
  <path d="M43.29,99.86a.43.43,0,0,1,.54.39v1.14a.44.44,0,0,1-.42.46.43.43,0,0,1-.4-.46v-1.14a.41.41,0,0,1,.28-.39Zm0,0"/>
  <path d="M38.86,101.42c.93.37,1.43,1.29,2.58.85.89-.17,1.19-.71,2.11-1.11.9.44,2.11.36,3,1.11a2.69,2.69,0,0,0,1.62-.69c-.25,1.54-1.14,2.35-1.77,2.24a36.15,36.15,0,0,1-5.25,0,2.61,2.61,0,0,1-2.3-2.37Zm0,0" style="fill: #1a1a1a"/>
  <path d="M46.21,102.2c-1.22-.35-1.46-1-2.66-1a8.87,8.87,0,0,0-2.29,1.11c-.62,1.93-.08,5.22,2.6,5.33s2.87-3.42,2.35-5.4Zm0,0" style="fill: #ea2151"/>
  <path d="M43.52,101.21a.38.38,0,0,1,.44.39l-.07,3.59a.37.37,0,0,1-.74,0l.07-3.61a.37.37,0,0,1,.3-.37Zm0,0" style="fill: #bd003a"/>
  <path d="M38.56,100.67a.43.43,0,0,1,.35.16c.88,1,1.47,1.06,2.14.91a13.52,13.52,0,0,1,2.33-.7,8.51,8.51,0,0,1,2.72.7,1.88,1.88,0,0,0,1,.05,1.16,1.16,0,0,0,.72-.72.41.41,0,0,1,.74.34,2,2,0,0,1-1.21,1.17,2.63,2.63,0,0,1-1.47,0,11.34,11.34,0,0,0-2.44-.65c-.62.05-1.34.48-2.21.67a2.9,2.9,0,0,1-2.93-1.18.43.43,0,0,1,.25-.7Zm0,0"/>
</svg>
