<svg id="a6eb7798-cdf5-4fe5-8014-553840c3a8aa" data-name="set" xmlns="http://www.w3.org/2000/svg" viewBox="0 0 129.96 132.68">
  <g>
    <path d="M36,53.17c1.93-.68,3.81.68,4.49,2.52,2.77,1.21,2.86,1.67,3.37,4.21,2.16,1.38,2.35,2.25,2,4.21,1.68,1.8,2,3,1.13,5.33A2.93,2.93,0,0,1,48,73.65c2,1.66,2.2,3.3,1.68,5.89,2,1.73,2.77,3.42,1.68,5.61.78,3.35-1.24,4.5-3.36,3.08-1.86.94-3.8-1.39-2.77-2.76a2.89,2.89,0,0,1-2.69-3.54C35.75,78.35,29.25,59.24,36,53.17Zm0,0" style="fill: #cd5c31"/>
    <path d="M94.88,91.83c-5,4.16-4.18,10.1.18,16,2.84,3.9-5.24,8-7.59,11.14-1.41,2.86-10.61,4.51-11.63,2.56-1.68-8.59,5.73-4.18,6.76-6,1.91-1.87,3.63-2.78,4.08-5.17C85,108.33,74,108.55,78.08,96.14c.81-9.21,10.21-12.06,15.64-6.63,1.52,1.51,1.38,1.78,1.16,2.32Zm0,0"/>
    <path d="M108.07,62.87c.21-.08.51,1,1.15-.39,0-4-5.62-8.07-8.1-8.49a4,4,0,0,0-2.74-.11c-.83,4,4.47,9.15,7,9.65,1.18.23,1.44-.42,2.7-.66Zm0,0" style="fill: #101010"/>
    <path d="M113.6,122c.53,1.32,5.28,1.78,8.33,1.17,7.73-.8-2.27-12.95-2.27-19.59.23-2.56-2.51-3.61-2.87-7.88a68.42,68.42,0,0,0-1.89-12.23C110,70.06,109.11,52.82,89.25,49.28c-7.94-1.41-17.43-.7-23.62-1-2.8-1.3-4.47-1.89-5.65-1.77-.31-1.26-1.16-3.42-3.35-2.89-.32-1.83-1.62-3.8-3.28-4.17C45.41,43.58,34.66,45,26.46,49.05c-3.22,1.6-9.21.38-11.66,2.83C13,53.69,16,58,16.86,58.56c-.34,6.09,1.54,9,2.15,12.08-1.57,8,.11,14.82,5.26,18.35-.16,3.27,2.21,13,4.72,23.08-.43,2.25.22.84-1,3.24-3.86,2.32-3,7.37,2.12,7.13,2.32-.29,4.73-.25,6-1.7,2.57-3.09,1-11.5,1.37-17a27.62,27.62,0,0,0-1.18-9.54c1.41-.62,6.19-.58,9.57,2.22a82.25,82.25,0,0,1-.88,8.41c-.49,3-1.69,5.87-2.27,9-2.48,3.76-2.82,6.31-1.85,7.71,2.27,1.48,7.62,1.78,9.9.71,3.12-1.47,0-6,.52-8.16,1.08-3,2.75-7.17,3.77-9.5a51.32,51.32,0,0,1,3.9-6.73c9.51.75,29.46-4,40.9-7.24,2.88,3.1,5.71,6.28,7.18,10.09.84,2.19,2.5,3.48,3.62,4.88,3.06,3.87,3,7.78,3.86,12-1.4-.09-1.29,3.35-.84,4.48Zm0,0" style="fill: #1a1a1a"/>
    <path d="M26.59,59.11c-.69,1.31-2.59,7.67,1.55,10.77-.63,3.87.21,5.74,2.8,7.74-.55,4.84,1.33,7.92,3.1,8.73,0,4,.59,6.41,2.33,7.8,2.39,1.34,7,1.84,9.3,2.14,0-2.34-1.76-6.42-2.81-8.51,2.07-5,1.15-7.54-.69-11.24,3.88-3.75.61-6.54-.57-9.25,2-3.33,2.66-6.62,1.72-7.86-4.9-6.59-12.17-2.6-16.73-.32Zm0,0" style="fill: #ececec"/>
    <path d="M39.51,62a7.71,7.71,0,0,0,4.23-1.08c2.13-.42,3.43-1.33,5.55-2.09C55.86,55,54.87,47.67,52.69,43c1.54-2.83.34-4.85-.37-7.19,3.48-.89,4.92-3.21,3.58-8.55C61.08,25,57.28,7.77,53.73,6.85c-3.92-1-9.66,10.46-12.77,17.79-1.31-.6-5.34-.69-7.72-.82a31.83,31.83,0,0,0-7.5.56C22.64,17.05,16.86,5.57,13,6.58,9.4,7.51,5.13,24.7,10.31,27c-1.35,5.35.1,7.67,3.58,8.55-.71,2.35-1.92,4.37-.38,7.2-2.17,4.64-2.91,12.2,3.66,16,2.12,1.81,4.19,1.93,7.19,2a6,6,0,0,0,4,1.06c3.2,1.9,8.64,1.47,11.11.1Zm0,0" style="fill: #232323"/>
    <path d="M24.68,38.13c-.51-3.32-6-3.86-6.19.56-.14,3.89,7,4.64,6.19-.56Zm0,0" style="fill: #ff7f2a"/>
    <path d="M33.22,47.22c-3.72,0-4.75-5.39-.17-5.65s3.9,5.7.17,5.65Zm0,0"/>
    <path d="M33.24,46.77a.39.39,0,0,0-.36.38l0,2.79a.38.38,0,0,0,.75,0l0-2.79a.39.39,0,0,0-.38-.38Zm0,0"/>
    <path d="M28.4,59C24.27,58.05,20,56,18.06,52.22c3.86,6.7,14.19,6,15.22-2,1.47,8.26,11.58,8.22,15.73,2.24-1.76,3.24-6,5.3-9.9,6.31-4.19-.12-7-.08-10.71.15Zm0,0"/>
    <path d="M21.41,36.54c-2.72.27-2.14,4.42.55,4.27,2.36-.14,2.45-4.57-.55-4.27Zm0,0"/>
    <path d="M41.17,38.4c.52-3.32,6-3.86,6.2.56.13,3.89-7,4.64-6.2-.56Zm0,0" style="fill: #ff7f2a"/>
    <path d="M33.26,39.37a9.42,9.42,0,0,0-7.6,3.79,18.29,18.29,0,0,0-3,5.6.47.47,0,0,0,.25.62.46.46,0,0,0,.57-.35,17.77,17.77,0,0,1,2.85-5.32,8.53,8.53,0,0,1,6.91-3.47A9.86,9.86,0,0,1,40.45,44a17.14,17.14,0,0,1,3.13,5.33.45.45,0,0,0,.55.28.47.47,0,0,0,.29-.56,18,18,0,0,0-3.32-5.62,10.68,10.68,0,0,0-7.84-4Zm0,0"/>
    <path d="M44.45,36.81c2.72.27,2.14,4.42-.56,4.27-2.36-.14-2.44-4.57.56-4.27Zm0,0"/>
    <path d="M28.85,56.43c-.4,3.42-1.72,11.9,5.21,11.87s5.43-8.43,4.43-12a6,6,0,0,1-5-5.08c-1.05,2-2.08,4.5-4.6,5.22Zm0,0" style="fill: #ea2151"/>
    <path d="M33.36,53.17a.35.35,0,0,0-.25.33l.11,10.22a.33.33,0,1,0,.66,0l-.1-10.22a.35.35,0,0,0-.42-.33Zm0,0" style="fill: #bd003a"/>
    <path d="M33.24,49.81a.44.44,0,0,0-.38.38,6.69,6.69,0,0,1-6.17,6.1A8.48,8.48,0,0,1,18.45,52a.44.44,0,1,0-.78.42,9.4,9.4,0,0,0,9.11,4.72,7.55,7.55,0,0,0,6.54-5.49,7.71,7.71,0,0,0,6.78,5.49,10.41,10.41,0,0,0,9.27-4.4.45.45,0,0,0-.11-.61.47.47,0,0,0-.61.1,9.54,9.54,0,0,1-8.47,4,6.88,6.88,0,0,1-6.46-6.1.45.45,0,0,0-.48-.36Zm0,0"/>
    <path d="M20.79,27c.19-1.69.59-4.2,1.15-5.05C21,17.38,15.88,8,13.85,8.9c-2.43,1.16-5.37,15.79-1.61,17.93,1.18,1.9,3.56,1.89,4.85,4.31.3-1.36,2.52-3,3.7-4.11Zm0,0" style="fill: #ffd5d5"/>
    <path d="M46.18,26.86C46,25.17,45.59,22.65,45,21.8c1-4.59,6.06-13.95,8.08-13.07,2.44,1.16,5.38,15.79,1.62,17.93-1.18,1.89-3.56,1.88-4.85,4.31-.31-1.37-2.52-3-3.71-4.11Zm0,0" style="fill: #ffd5d5"/>
  </g>
</svg>
