<svg id="ff6520eb-58a2-4901-80c2-69919f3cacbc" data-name="set" xmlns="http://www.w3.org/2000/svg" viewBox="0 0 95.16 135.97">
  <g id="b985ec6a-eff3-49b5-ae27-32198e3cb1d7" data-name="g21734">
    <path id="f3e6a263-f97d-4fc2-a4ee-21460a1c01b6" data-name="path7151-1" d="M40.76,33.71c-1.13-3.18-2.73-4.87-9.06-6.33a8.47,8.47,0,0,1,3.35.41c-2.75-3.53-9.76-1.72-13.84-.15.23.3.68-1.26,2.94-2-4,.85-10,4-11.79,9-.64-.25-.06-2.28,1.48-3.76-2.23,1-4,4.54-4,7.34-3.15-4.66,1.72-9.71,3.74-12.64a10.47,10.47,0,0,0-2.15,2.08c.9-5.06,5.55-8.19,11.07-8.1a3.4,3.4,0,0,0-1.41-.2c4-1.91,13.11-.85,15.3,2.56a5.28,5.28,0,0,0-2.08-2c4.49-.6,8.05,4.21,10.1,7.4-.8-.89-.93-1.36-1.56-1.79,2.73,1.27,4.94,3.93,4.79,8.37-.19,1.53,1.43,4.21.35,5.26-.62.6-5.95.46-6.51-.12-.85-.88-1.29-4.79-1.27-6.19,0-.31.42.48.56.76Z" style="fill: #0a0a0a"/>
    <path id="e2d47f29-7386-4ee4-9732-c17fc39b896b" data-name="path7075-0" d="M35.82,119.58H35.6l-.9,1.08A5,5,0,0,0,36.88,122c-.46.25-.7.37-1.56.85a5.7,5.7,0,0,0,2.17,1.79,13.28,13.28,0,0,0-1.77.63c1.23.43,1.94.59,2.38,2.23l-2.2.18c3.08,2.13,6,2.59,7.63,1.61,1.7.56,4.26-.12,6.36-.09-.37-.88.08-1.4-.39-1.73,1.45-.68.93-.21,1.76-.41a7,7,0,0,1-1-2.43c.54-.17,1.2-.88,1.68-1,.16-1-1.09-.88-1.44-1.42.66-.37,1.55-.74,2.38-1.28a2.49,2.49,0,0,0-1.28-2c-5.84-1.79-10.72-1.6-15.73.66Z" style="fill: #c26125"/>
    <path id="b0ea767d-e989-4e49-a135-aa08b1a020d2" data-name="path7087-4" d="M40.59,129.31a8.3,8.3,0,0,1,5.7.21C45.57,132.2,41,131.89,40.59,129.31Z"/>
    <path id="f20d3ec4-3a91-421b-9d1f-118bb74cb625" data-name="path7095-2-1" d="M41.44,30.34c-1.3.33-1.68.76-3.7-.18-1.4.34-1.47,1.42-2.73,2.42-1.11.28-1.23-.11-2.68-.21a4.07,4.07,0,0,1-.65,2.13c-2.15.54-5.24,1.57-2.11,2.93-1.17-.33-2.06.11-3.32.61,1.5.83,1.42,2.2,2.12,2.75-1.24,1.72-2.45,2.41-3.47,4a3.39,3.39,0,0,1,2.67.87c-.5.58-1.41,1.12-2.31,2.1-.54,1.24.56,2.72,1.79,4.32-.48.24-.47.61-1.25.63-.7,1.61,1.56,2.59,2.4,4.17A2.35,2.35,0,0,0,26.53,58a3.93,3.93,0,0,1,2.22,3,11.3,11.3,0,0,0-2.49,1,4.52,4.52,0,0,1,2.45,1.69c-.16.12-1.95,1.28-1.88,1.45s.89.61.6.84h0c-.83,1.9-1.35,3-.71,5.59a23.45,23.45,0,0,0-1.5,3.27c-.45,1,1.13,2.25,2,3.16a16.27,16.27,0,0,0-.86,2,4.94,4.94,0,0,0,2.43,2.68,6.2,6.2,0,0,0-.65,1.81c1.14.32,1.12,1.43,1.6,2.62a3.64,3.64,0,0,0-2.5,1.28c1.69.48,2.63.39,3.68,2A5,5,0,0,0,28,91.75a19.49,19.49,0,0,1,3.07,1.54c-2.05-.59-4.24,0-4.78,1.73,1.44-.36,3.6-.42,5,.58-2.37-.68-3.85.27-5.19,1.72,1.64-.3,3.76-.35,4.94.74-1.9-.54-3.93,1.17-5.4,2.22a6.17,6.17,0,0,1,4.13-.42c-2.25,1.06-3.82,1.89-4,3.1a10.42,10.42,0,0,1,3.77.5c4.84,4.9,10.89,2.62,20.13,3.83,2.3.3,6.3-1.76,9.35-3.52a17.13,17.13,0,0,0,4-1.34c-1.37-1.87-2.11-.66-4.33-1.8,1.75-.17,2.8-.79,4.13-.06-1.44-1.1-3.42-2.25-5.34-1.77a4.76,4.76,0,0,1,4.35-.8c-1.3-1.49-2.12-2.27-4.51-1.68a7.93,7.93,0,0,1,5.39-1.23c-.48-1.75-3.09-.76-5.15-1.07,1.21-.82,2.58-.53,3.53-1-.8-.94-1-1.79-2.23-2.14,1.11-1.61,2.08-3.36,3.78-3.78-.88-1.07-2.47,1-3.53.69.52-1.17.53-1.45,1.68-1.74a6.15,6.15,0,0,0-.59-1.82c1.44-.82,1.59-1.46,3.32-.51a11.22,11.22,0,0,0-1.59-4.08c.91-.87,2.93-.79,2.51-1.84a48.84,48.84,0,0,0-1.78-4.57c.72-2.53,1-2.63,1.92-3.29-1.22-.39-3.11-1.34-1.62-2.31,2.39-1.54-1.55-1.37-1.42-1.68.07-.16,1-.92.85-1,.72-.82,1-1.54,2.1-1.82a14,14,0,0,0-2.88-1c.26-1.36,1.44-1.23,2.72-1.88a5.42,5.42,0,0,0-2.66-1.61c.89-1.55,3.79-1.2,3.14-2.83C64,55.66,63.4,54,62.93,53.78c1.27-1.55,3-1.75,2.53-3-.87-1-.73-1-2-2.38,1.38-1.17,2.75-1.61,2.32-3.28-1-1.6-.76,1-2.77-1,.72-.53.69-2.11,2.22-2.89-1.24-.54-1.27-1.82-2.45-1.53a15,15,0,0,1,.47-3C62.83,36,61,35.19,61,34.38c-1.45,0-1.18.65-3.72.11-.61-1-.22-2.32-1.6-2.71-2.06.88-3.85-.63-5.15-1a14.85,14.85,0,0,1-2.43,1.31,5.18,5.18,0,0,1-1.78-2.25,5,5,0,0,1-1.43,1.39c-.62-1.17-1.06-1-1.58-1.84a4.55,4.55,0,0,0-1.87.95Z" style="fill: #121212"/>
    <path id="a8648637-65d7-4b89-8932-0dc666b89fd0" data-name="path7085-9" d="M61,111.86c1,.57,1.42,1.28,2,3.41-2.64-1-6-.66-5.78,3.31a4.61,4.61,0,0,1,1.77,4c-1.37-1.42-5.38-3.74-8.16-2.2-1.65.61-2.53,1.68-6.49,1.51s-5.57-1.71-7.68-2.18c-2.17-.24-5.5-.07-7.49,2.8a8.1,8.1,0,0,1,.62-4.05c-1.14-3.19-3.45-4.21-5.63-3.25a4.52,4.52,0,0,1,3.45-4.13c3.31-3.18,24.4-5.93,29.06-3.5C58.74,108.68,59.48,109.87,61,111.86Z" style="fill: #d0895f"/>
    <path id="f18cecba-0561-418f-a227-e8fadcd18f37" data-name="path7089-9" d="M35.6,119.8c-2.18.49-3.39-3.67-.17-3.29C37.54,116.75,38.32,119.18,35.6,119.8Z"/>
    <path id="f163c323-c3db-43d1-b711-1fd5ae8d6708" data-name="path7089-1-1" d="M51.74,120.47c2.15.57,3.51-3.55.27-3.28C49.9,117.36,49,119.76,51.74,120.47Z"/>
    <path id="b46aa24e-dbfd-4605-b306-676ac284fa2d" data-name="path7081-1" d="M52.27,111.61c2.93.12,11.13,2.84,11.46,4.5-1.28,0-2.2-.64-3.51.16,2.21.78,3.18,2.21,3,5.09a9,9,0,0,0-2.8-2.9,4.68,4.68,0,0,1,1.89,4.86c-1.85-5.89-12.41-7.53-15-4.86-1.45.65-1.53,1.19-2.25,1.65-.34-1.49-.32-.66-.58-1.22.18.79-.66,1.11-.83,1.4-1.63-1.49-4-1.39-5.68-2.47-6.25-3.09-8.38.74-12.66,4.87-.89-2,1.29-4,2.5-4.78a10.26,10.26,0,0,0-4.46,3.87c.26-2.09,1.46-5,3.39-5.64-2,.48-2.45,1.94-3.78,3.22.81-6.94,8.16-8.33,10.66-7.93,8.87-2.64,12.52-3.26,18.72.18Z" style="fill: #c26125"/>
    <path id="ff248ae3-8199-43e9-9085-a9c504d7022f" data-name="path7067-6" d="M32.71,112.06c-.86.08-12.62-2-14.41-4.82.76-3.32,12.69-4.5,16.1-4.44,8.38-4,4.29,8,3.07,9.12-1,1-3.62.37-4.76.14Z" style="fill: #7d401b"/>
    <path id="aad8a3f7-3bd2-4991-bb6f-3efb494a9648" data-name="path7069-1" d="M54.45,112.43c1.26.56,11.34-1.51,14.55-3.57-1.25-4.08-11-5.8-13.14-6.06-1.22.2-4.28-3.33-5.29-2.35-3.46,3.34-.94,12.16,3.88,12Z" style="fill: #7d401b"/>
    <path id="f904f955-11b3-46ba-b3e5-bfd1e11aaa44" data-name="path7093-9" d="M37.84,114.15a3.58,3.58,0,0,1,2.45-2c.29.37.16.73,1,1.23a6.87,6.87,0,0,1,1.63-1.18,20,20,0,0,1,1.17,2c.52-.75.83-.68,1.24-1.79a6.39,6.39,0,0,1,1.58,1.84,10.82,10.82,0,0,0,1.45-1.79c.83.57,1.08.75,2.19,1.45a5.2,5.2,0,0,0,.12-2.46,5.2,5.2,0,0,1,4.75,1.38,4.55,4.55,0,0,0-3-4.42c1.41-.81,2.45.28,3.72.72a9.4,9.4,0,0,0-2.57-3.77A2.61,2.61,0,0,1,57,106.62c.44-1.42-1-4-2.53-4.84.14-1.22.72-1,1.57-1.23-1.19-1.77-3.43-2.08-4.81-2.1a2,2,0,0,1-.77-2c-1.17.82-2.3,1.35-3.26,2-1.29-.91-2.42-2-3.39-1.67a5.44,5.44,0,0,1-.43,1.41,5.59,5.59,0,0,0-4.83-.69,4.26,4.26,0,0,0,.18,1.81,3.26,3.26,0,0,0-3.44.35,4.79,4.79,0,0,0,1.18,1.83c-1,0-1.63.79-1.45,1.16-1.4.08-2.83,1.9-3.55,4,.8-.78,2.74-2.55,3.51-.6-1.42.45-3.14,1.29-3.34,3,1.39-.32,2.92-.82,4.17.29-3.06-.06-4.55,2.23-4.45,3.43,1.15-1.18,2.37-1,4.67-1a6.71,6.71,0,0,1,1.84,2.49Z" style="fill: #121212"/>
  </g>
</svg>
