<svg id="b3c95fad-3583-4f3b-b151-c8fa604f48f0" data-name="set" xmlns="http://www.w3.org/2000/svg" viewBox="0 0 89.75 132.68">
  <g>
    <path id="ac3c2dd7-eaad-4515-9bfb-f316d40563f5" data-name="path6578-1" d="M35.78,13c-8.27-1-20.62,6.15-22.23,17.86-1.38,10,1.93,13.26,1.46,20.29-.4,5.87-1.82,12.59-.89,18.07S17.89,77,19,81.08c.11,1.46.53,6.63,1,9.43,1.1,3.89,39.67,4.69,40.61-.09.45-2.66,1.59-8.49,1.71-10,1.12-4,5.09-7.47,5.39-13.08C68,61.06,66.86,55,66.51,49.1c-.41-7,3.14-9,1.84-19-1.52-11.72-12.52-17.88-22.29-17.4-3.85-2.54-6.83-.87-10.28.32Z" style="fill: #1a1a1a"/>
    <path id="adc07ef0-03b5-440f-af70-e47ca6722f06" data-name="path6630-8" d="M46.71,124.26c.95,2.85,3,4.68,5.51,3.28,3.13-1.78,1-5.65-1.08-6.2C49.35,118.94,44.6,121.49,46.71,124.26Z" style="fill: #d62198"/>
    <path id="bafc27bb-76d0-4a21-ae94-dafe83d126f5" data-name="path6685-3" d="M39.66,71.64a24.14,24.14,0,0,0-5.83,1,7.44,7.44,0,0,0-3.74,2.18.46.46,0,0,0,0,.66.47.47,0,0,0,.67,0l0-.07a6.9,6.9,0,0,1,3.29-1.84,23.51,23.51,0,0,1,5.6-1c4.07-.21,8.33.57,10.3,2.55a.47.47,0,0,0,.67,0,.47.47,0,0,0,0-.66h0C48.34,72.09,43.87,71.43,39.66,71.64Z" style="fill: gray"/>
    <path id="a6a5d0fa-d4b3-4f26-aa7b-734595c5973d" data-name="path6588-2" d="M35.93,123.43a5.48,5.48,0,0,0,9.19.17A52,52,0,0,0,35.93,123.43Z"/>
    <path id="f0fbc77e-2bdf-4ef7-bd12-d06b7151e911" data-name="path6567-2" d="M54.21,119.21c-4.52,3.89-6.66,5.79-13.43,5.13-6.9.54-9.45-1.74-13.21-5.26-.75-.72-.37-1-.11-1.83,8.35-2.62,19.2.08,27.63.12a7.6,7.6,0,0,1-.88,1.84Z" style="fill: #232323"/>
    <path id="f42cafe7-916c-4a1c-995b-0b36bb8d4875" data-name="path6565-4" d="M18.37,106.92c-.07,11.51,9.25,14.06,14.91,11.5.53,0,1,.29,1.61.38,4.12,0,6.61.08,10.67.07a7.14,7.14,0,0,1,2.52-.29c7.93,3.63,15.17-3.27,14.71-11.84,1-3.72-.24-9.56-.32-12.1.12-1.34.24-4.09-4-6.16C44.57,81.65,36.27,82.33,23.16,88c-3.47,1.51-5.1,4-5,7.36,0,4-.47,7.62.24,11.55Z" style="fill: #333"/>
    <path id="a9941638-22e3-4e02-b199-a9ce957db2ea" data-name="path6590-8" d="M30,114.77c5.08.35,3.49,4.69,0,4.73S25.26,114.43,30,114.77Z" style="fill: #fca"/>
    <path id="b25900bf-2554-4ef7-b121-0fefcc82f4bc" data-name="path6592-8" d="M28.75,115c-2.73,3.21,4.88,4.19,3.22.57a2.24,2.24,0,0,0-3.22-.57Z"/>
    <path id="bd1d3d81-6ab9-4832-b91d-b413574de874" data-name="path6590-1-9" d="M51.39,114.91c-5.08.31-3.53,4.66,0,4.73S56.17,114.62,51.39,114.91Z" style="fill: #fca"/>
    <path id="af231a2e-614f-423e-b269-df69b27db149" data-name="path6592-0-2" d="M52.69,115.1c2.7,3.23-5,4.44-3.24.55A2.34,2.34,0,0,1,52.69,115.1Z"/>
    <path id="ada96141-54c1-4941-aafb-a450e17af20a" data-name="path8788" d="M34.85,118.81c1.56-3.21.75-7.5-.21-10.27-1.16-3.35,4.51-8.85,6.48-9.51,2.66,1.57,7,6.71,6.2,9.24-1.11,3.58-2.76,7.18-1.72,10.72A20.8,20.8,0,0,1,34.85,118.81Z" style="fill: #232323"/>
    <path id="e62375f9-37d8-4529-adc8-4d37887bd45a" data-name="path6563-9" d="M25.54,107.62c-5.8,1.33-15-4.64-20.61-7.52.37-3,14.71-5.52,20-6,4.12-.15,8.33,10.59.65,13.52Z" style="fill: #1a1a1a"/>
    <path id="a02ed023-8d44-4398-90ab-c28ae03dc4f3" data-name="path6571-6" d="M55.78,108c6.83.06,17-6.43,21.44-7.77C75.17,97,63,94.31,57.33,93.87c-7.69-1-7.44,14-1.55,14.12Z" style="fill: #1a1a1a"/>
    <path id="af6f4f80-a9ef-439a-a3f3-1b302d459a0c" data-name="path6632-8" d="M41.14,105.86a.43.43,0,0,0-.22.18A5,5,0,0,1,39,107.53a3.52,3.52,0,0,1-2.56.28.4.4,0,0,0-.54.17.41.41,0,0,0,.17.54l.12,0a4.27,4.27,0,0,0,3.14-.31,5.62,5.62,0,0,0,2-1.5,10.78,10.78,0,0,0,2.21,1.41,7.83,7.83,0,0,0,1.42.5,1.51,1.51,0,0,0,1.22-.11.39.39,0,0,0,.21-.52.4.4,0,0,0-.52-.21.28.28,0,0,0-.11.08,1.29,1.29,0,0,1-.62,0,6.26,6.26,0,0,1-1.26-.45A10.93,10.93,0,0,1,41.53,106,.43.43,0,0,0,41.14,105.86Z" style="fill: gray"/>
    <path id="a803b795-5130-4fbb-a17f-18afb0321b87" data-name="path9002" d="M31.81,15.19c-.93,1.11-2.65,5.7,1.36,8.41,3.23,2.94,6.39,1.62,9.8.5,5.38-1.31,2.44-6.05,7.49-6,3.54-1,2.6-3.93,2.35-4.69-4.35-1.23-12.93-1.14-19-.42-.79.93-1.19,1.3-2,2.23Z" style="fill: #333"/>
    <path id="a7d4b39a-4716-4ea4-a465-19c03f097021" data-name="path6683-8" d="M36.15,17.54a3.72,3.72,0,0,0-.45,6.22c4.59.63,6.12-3.23,8-6.18,5.13-4.66-.18-10.08-4.69-6.89A5.48,5.48,0,0,0,36.15,17.54Z" style="fill: #1a1a1a"/>
  </g>
</svg>
