<svg id="b8b43a5f-f617-40c2-9005-6ce4a51a323a" data-name="set" xmlns="http://www.w3.org/2000/svg" viewBox="0 0 111.66 223.3">
  <g id="b7f06ca2-80b1-485c-a854-99138faf7f6e" data-name="g15079">
    <path id="e0873b86-c8ab-44f0-9bd7-d3cc44904702" data-name="path6619-8" d="M60.46,42.51C55.59,25.36,49.6,1.54,29.26,0,17.07-.86-4.66,14.76-.72,24,9.53,19.78,12,14.39,22,14,40.81,13.2,42.27,33,42.6,42.22c.62,2-1.87,4.37-.26,6,7.56,7.68,21.53,9.24,18.12-5.71Z" style="fill: #f6e66b"/>
    <path id="e5f92bd2-3816-4c1d-9f3d-fa39f7ee429f" data-name="path6701-0" d="M74.86,203.64a20.85,20.85,0,0,0,7.08-15.75c-.83-3.68.76-14.84-.25-20.38,1.71-4.85,3.37-9.11,3.83-14.2.94-10.1-2.78-34.09-3.39-42.27-.69-9.2,6.36-26,5.41-40.08-1.15-17.07-6-26-24-31.51-7-1.37-15-1.77-22,.36C26.22,46.21,21.21,53.26,20.8,68.47c-.49,18.12,5.66,26.2,6.25,37,.71,13-6.5,32.85-6.19,44.34A47.59,47.59,0,0,0,25,168.21c1.47,5.45.13,15.62-.93,19.15,1,9.74,3.63,14.44,7.68,17.82,5.87,5.16,36.39,4.45,43.16-1.54Z" style="fill: #ffef75"/>
    <path id="b37b6470-0807-415b-9630-fb96f9bc8efb" data-name="path6558-8" d="M57.55,220.59c7.13-1.45,10.08-6.88,12.83-11.83,5.67-5.19,8.65-15.22,7.69-21.5-1.46-4.75-1.38-12.29-7.13-15.11-2.45-1.57-9.92-2.82-17.19-2.83-7.12,0-14,1.18-16.77,2.57-5.68,2.54-9.1,7.8-8.94,14.81-.25,4.85,0,15.76,7.12,21.59,4,5.09,7.59,11.58,12.73,12.29,2.92-1.5,6.4-.44,9.66,0Z" style="fill: #fff395"/>
    <path id="a4c87337-db99-4d9d-8d74-7d9629cd6a76" data-name="path6546-7" d="M52.71,201.08c9.17,0,5.41,8.69.1,8.46S43.53,201.06,52.71,201.08Z"/>
    <path id="ad37c9d3-f120-4b51-8595-56f74ed5e499" data-name="path6562-1" d="M53,212a.59.59,0,0,0,.48-.59c0-.68-.11-1.71-.11-2.48a.6.6,0,0,0-1.2,0v0c0,.9.11,2,.11,2.48a.59.59,0,0,0,.58.61A.33.33,0,0,0,53,212Z"/>
    <path id="aaff2dea-1b5f-41e2-af44-a1b1cdef4b87" data-name="path6573-9" d="M66.48,184.2c3.79.66,4.06,4.25,1,5.31C62.46,191.25,62.76,183.56,66.48,184.2Z"/>
    <path id="a69e5fb8-9989-4901-a530-80b909352e59" data-name="path6573-5-3" d="M40,183.88c-3.8.6-4.13,4.19-1.1,5.29C43.9,191,43.73,183.29,40,183.88Z"/>
    <path id="ff5a1714-e50c-41bd-8d5b-c70cecbc18fd" data-name="path6697-4" d="M75.49,170.15a.59.59,0,0,0,.44-.73.62.62,0,0,0-.1-.22A11.48,11.48,0,0,1,75,168c-.23-.37-.59-1-1.61-2.52a.6.6,0,0,0-1.08.53.83.83,0,0,0,.08.12c1,1.53,1.35,2.1,1.58,2.48a12.23,12.23,0,0,0,.91,1.31A.6.6,0,0,0,75.49,170.15Z" style="fill: #d9c952"/>
    <path id="e13b6654-53bb-4148-ab7a-578ad2dd8c36" data-name="path6699-5" d="M32.75,169.42a.62.62,0,0,0,.4-.22l.43-.52c.34-.29.82-.71,2-1.91a.6.6,0,0,0-.84-.86c-.69.67-.73.71-1.09,1l-.1,0a.42.42,0,0,0-.2.07l-.07,0-.08.08-.18.17c-.11.12-.25.25-.37.4a3.52,3.52,0,0,0-.31.39.87.87,0,0,0-.1.2v0s0,0-.05,0a.61.61,0,0,0,0,.85.62.62,0,0,0,.49.15Z" style="fill: #d9c952"/>
    <path id="aa0cf954-bb8d-4ca1-b64c-1ecaa4795aac" data-name="path6599" d="M65.89,208.45a15.27,15.27,0,0,1-7.24,4.7c.79,1.26.36,3.29,0,4.44A13.74,13.74,0,0,0,65.89,208.45Z"/>
    <path id="bbcf8c12-c704-4fe7-b05a-cf21afc8a7d1" data-name="path6599-6" d="M38.89,207.12c1.76,2.16,5.7,4.6,8.16,6.22-.82,1.25-.41,3.28,0,4.44C42.79,216.43,40.25,210.65,38.89,207.12Z"/>
    <path id="b507310f-63be-49c1-acea-268218eee20b" data-name="path6544-9" d="M71.42,172.6c2.45-2.67,7.2-6,11.85-4.41,3.84,2.75,14,7.26,16.33,6.48C104,179.92,93.52,184,87.21,186c-5.81,3.06-9.74,1.26-12.73-.81C69.52,183.31,70.58,177.2,71.42,172.6Z" style="fill: #d3a66e"/>
    <path id="abfee806-f162-483a-947e-ebf181760cea" data-name="path6554-2" d="M36.78,171.87c-9.66-9.83-11.4-.52-20.12-.36-2.39,0-5.4,2-7.77.14-1.48,5,4.92,11.73,7.76,13.66,6.78,3.41,10.76,1.51,14.31-.81C37.82,185.22,37.25,176.65,36.78,171.87Z" style="fill: #d3a66e"/>
    <path id="f5b12eec-2249-4b8e-9352-32a59e68fa39" data-name="path6579" d="M75.73,180.27c1.45-.09,2.07,4.34,5.2,4.37,2.84-2.87,5-2.55,8.9-3.81,1.91-.93,3.38-1.51,4.57-2.69-2.05-3.76-9.37-3.08-11.34-4.41-1.21-.65-7.85.73-8.43,2.44C73.8,177.92,75.31,178.51,75.73,180.27Z" style="fill: #faa"/>
    <path id="a7fbabee-b82b-4ace-9a49-944e0dc697c6" data-name="path6579-3" d="M32.76,177.89a17.43,17.43,0,0,0-6.87,3.69c-4.41,2.72-5.77,1.09-8.67-.73-2.08-.43-1.58-3.1-3-3.94,3.51-.5,8-2.16,9.61-3.95,1-.94,8-2.19,9-.69,1.24,1.49-.08,3.81,0,5.62Z" style="fill: #faa"/>
    <path id="a7791af9-101f-410f-942e-4d26ef6644c0" data-name="path6564-2" d="M46.27,212.47c-.8,4.26.77,10.49,6.28,10.82,5.9.36,7.45-6.41,7.14-10-1.75-1.57-4.59-1.29-6.72-2-2.49.25-4.93,2.22-6.7,1.2Z" style="fill: #d62198"/>
    <path id="e0954739-cec8-4b8b-ad7a-872fecd7b373" data-name="path6560-6" d="M47.11,213.28a10.47,10.47,0,0,0,2.48-.28c1.51-.33,2.81-.82,3.36-.87s1.92.49,3.47.8a9.41,9.41,0,0,0,4.74,0c4.36-1.52,6.66-5.7,7-10.83a.61.61,0,0,0-.56-.64.6.6,0,0,0-.64.56c-.35,4.82-2.39,8.42-6.23,9.75a8.75,8.75,0,0,1-4.12-.08c-1.49-.3-2.8-.72-3.64-.8h-.1a33.39,33.39,0,0,0-3.59.9,6.88,6.88,0,0,1-4.32-.21,11.58,11.58,0,0,1-4.92-4.49,9.06,9.06,0,0,1-1.53-5,.6.6,0,1,0-1.2-.14h0a9.83,9.83,0,0,0,1.71,5.77,12.73,12.73,0,0,0,5.46,5A6.38,6.38,0,0,0,47.11,213.28Z"/>
  </g>
</svg>
