<svg id="bf209e97-c7a5-4ad8-afbc-f2dcbb94f2dd" data-name="set" xmlns="http://www.w3.org/2000/svg" viewBox="0 0 123.57 135.97">
  <g>
    <path d="M20.5,40.74c-3.76,2.14-6.7,10.13-10.78,10.34a3.64,3.64,0,0,1-2.78-4.33c-3.66-5.18-2.31-13.37.67-19.67,5.76,3.08,10.56,7.42,12.89,13.66Zm0,0" style="fill: #7d401b"/>
    <path d="M30.29,40.29c4.32,2.86,9.8,5.13,11.8,10.57,1.78-1,3.34-2.93,2.69-5.37,3.47-5.29,2-13.62-1.33-19.82-4.54,2.38-11.09,8.5-13.16,14.62Zm0,0" style="fill: #7d401b"/>
    <path d="M34.18,40.32c.47.9,1.08,1.9.37,3.13,1.83.87,2,2.87,3.86,3.72,1-.3,2.36.23,3.6-1.47.19-1.12.83-2.2,1-3.19.95-3.22,1.57-9.37-.88-11.22-3.58-.19-7.56,6.79-7.93,9Zm0,0" style="fill: #e58a79"/>
    <path d="M17.3,41.08c-.42.91-1,1.93-.23,3.13-1.76.93-1.79,2.94-3.63,3.85-1-.28-2.32.3-3.62-1.35-.24-1.11-.91-2.18-1.11-3.16-1.06-3.19-2-9.32.38-11.24,3.52-.31,7.75,6.55,8.21,8.77Zm0,0" style="fill: #e58a79"/>
    <path d="M75,107.06c5.33-18.2,17.74,2.24,13.27,11,1.14,2,1.32,3,.85,6-.7-1.3-1.37-.87-2.31-1.1-.29,2.08-1.77,5.8-2.93,6.89-1,1.34-7.06,2.35-7.35.33.71-5.08,3.13-3.3,4-5a2.94,2.94,0,0,0,.91-3c-1.74-1.3-2.17-2.62-2.9-4.78-.48,1-.68.77,0,2.19-2.34-1.18-3.12-4.48-1.7-7.55a21.89,21.89,0,0,1-1.56,2.3,33.42,33.42,0,0,1-.26-7.16Zm0,0" style="fill: #663011"/>
    <path d="M104,74.31c-.52,5.77.39,12.65,1.12,18.61,0,2.23.09,6.18,1.22,8.28a10,10,0,0,1-.25-3.17,8.85,8.85,0,0,0,3.66,7.31,5,5,0,0,1-.73-3.9,13.79,13.79,0,0,0,5.36,8.53,8.07,8.07,0,0,1-1.95-4.39c1.11,2.8,2.46,3.32,4.63,5.85-.26-1.27-.92-2.36-1.22-3.9.8,1.62,2.16,2.34,2,4.87a6.26,6.26,0,0,0-1-6.82A15.23,15.23,0,0,1,119.7,110c.65-3.25-1.37-6.24-3.89-8.77a4.48,4.48,0,0,1,2.68,2.43c-.33-1.52-3-5.21-4.8-7.92-2.78-4.27-2.44-14.46-9.72-21.4Zm0,0"/>
    <path d="M19.1,88.32c8.61-8.94,55.89-9.83,70.41-6.11a24.11,24.11,0,0,1,12.9,17.28c2.42,3.23,2.71,5.91,2.92,10.23-1.06-2.12-1.77-3-2.07-2.43,1.84,3.68,2,7,2.07,10.23a8.24,8.24,0,0,0-1.94-2.68c1.16,2.33,1.28,5.37,1.7,8.28a8.85,8.85,0,0,1-2.19-2.19c0,2.12-.12,3.43,1.7,4.87-.74-.33-1.45-.09-2.16-1a31.8,31.8,0,0,1-1.92,6.14,22.72,22.72,0,0,1-2,2.15c-2.28,1.57-6.4,1-7.44.33-.72-5.73,2.79-3.91,4.09-5.14.83-.74,1.5-2.53,1.22-2.55-1.5-.58-3.14-1.93-2.73-3.88a7.72,7.72,0,0,1-3.17-4.62,4.51,4.51,0,0,0,.73,4.14c-2.1-1.58-4.49-3.83-4.38-8a4.88,4.88,0,0,0,0,5.11c-2-2-3.51-4.07-2.68-7.79a6.11,6.11,0,0,0-.49,4.38c-2-2-2.37-3.71-2.44-6.82a7.5,7.5,0,0,1-1.94-5.84,8.29,8.29,0,0,0-1.22,5.11c-.77-1-2.14-3-1-5.11-.65,3.27-1.58,4.44-3.65,6.82-1-1.94.42-3.8-.49-5.61a14.88,14.88,0,0,1-3.16,6.58c-.92-1.83-.16-4.75-.73-7.06-.38,1.87-1.23,3.38-1.22,5.36-.68-1.37-1.66-3.94-.73-6.09a13,13,0,0,1-2.68,7.3c.42-2.09-.13-3.78-.73-5.84a10.12,10.12,0,0,1-3.17,7.06c.6-1.49.22-3.35.25-5.36a9.6,9.6,0,0,1-2.92,5.61c.76-1.54.27-3.64.73-5.61a11.06,11.06,0,0,1-3.9,6.82,11.8,11.8,0,0,0,1.22-5.6,11.81,11.81,0,0,1-3.9,7.07c.63-1.59,1.22-3.74,0-5.61a8.37,8.37,0,0,1-.49,4.39,4.1,4.1,0,0,0-1.22-4.39,10.7,10.7,0,0,1,0,6.34,4.16,4.16,0,0,0-1.21-2.68c.86,1.73.67,4.52.73,6.82a7.83,7.83,0,0,0-1.46-3.17,20.74,20.74,0,0,1,.24,7.06c-.38-.53-.05-1.24-1.22-1.7-.45,2.29-.18,4.53-1.22,6.57,0-1.49.26-2.5-1-3.65.32,1.61.71,2.77-.36,4.61-.09,1.1-.76,3.67-2.81,4.53-1.11.91-4.65,1.11-6.08-.33-1.88-4.48,2-3.84,2.08-5.7a5.16,5.16,0,0,1,1.32-3.11A4.87,4.87,0,0,0,37.38,126c-.89-1.8-.12-3.74,1-5.6-.65.65-1.38,1.68-2.19,2.68,0-3.2.23-4.5,1.94-6.82-.43.36-.87.21-1.46,1.22a18.21,18.21,0,0,1,2-4.63l-1.22-.24c.52-1,1.27-2.34.73-3.9-.26.7-1.16.56-.73,2-.41-.23-1.32-1.35-2.19-1.22,1.16,1.54,1.3,3.42,1.46,6.09a3,3,0,0,0-1.21-.73,9.85,9.85,0,0,1,1,6.33c-.42-.84.43-1-1-2a9.59,9.59,0,0,1,1,5.61c-.19-.28-1.24-.48-1-1.46,0,2.46,1,3.4-.73,5.84a2.4,2.4,0,0,0-1-2.44c.21,1,.5,1.54-.31,2.71-.81,2.65-.29,1.24-1.44,3.07-1.93,1-5.82,1.18-6.09-.86a4.4,4.4,0,0,1,1.41-4c-1.35-2.14-1-2.1.59-4.84-.47.94-1.11,2.63-2.68,2.43.32-1.6,1.1-2.89,1.7-4.87a14.82,14.82,0,0,1-2.19,2.44c.41-2,1.35-3.94,1.71-6.33a4.19,4.19,0,0,1-2.19,1.94c.46-2.32.68-4.55,1-7.06a6.78,6.78,0,0,1-1.7,2.68c.64-3.25-1.42-6.62-.73-9.74-1-1.34-2.58-2.34-1.71-5.12a7.34,7.34,0,0,1-2.48,2.85,23.54,23.54,0,0,0,.51-13.78Zm0,0" style="fill: #c9713b"/>
    <path d="M106.79,80.26a25.69,25.69,0,0,0-2.3-7.11C102.67,69.79,97.22,62,88,61.37c-16.3-1.14-31.44,4.54-46.17-3.23-5.69,12.77-10,14-23.35,16.65-4,6.79,1.24,14.81-.63,21.52,1-1.53,2.08-2.11,2.24-3.89a10.28,10.28,0,0,1-1.18,5.37C21.09,96.4,22.5,92.57,23,90c-2.11,3.69-1.58,10.17,1.95,11.93-.58-2.65-.26-5.91,1-7.55-1.35,3.37,1,6.11,1.95,8-.44-2.6.57-4.82,1-6.82,1.95,2.12,1.68,4.28,2.19,6.82.85-2,1-4.39,1.71-6.09,1.4,2.18,1.45,4.34,2,6.82,1.49-2.49,1.63-4.52,2.19-7.31,1.77,2.31,1.86,5,2.43,7.79a13.21,13.21,0,0,0,2.2-7.3,60.57,60.57,0,0,1,1.94,8.77c1-3.71,2.74-6.52,2-10.48a19.91,19.91,0,0,1,1,7.55c2-3.14,4-6.66,3.16-11,1,2,2.07,3.5,2.44,6,.61,0,1-4.81,1-8.4.58,2.32,2,4,2,6.82A10.3,10.3,0,0,0,55.65,89c2.45.75,2.91,3.49,3.66,5.35a29.08,29.08,0,0,0,.24-5.6c2.73.92,3.8,4.25,5.36,6.33,1.38-2,.62-5.8-.25-7.55,2.65.74,3.9,3.86,3.9,6.58A12.45,12.45,0,0,0,70,87.56c1.93,1.52,1.53,3.75,2,5.85,1.34-1.86,1.46-3.59,1.46-5.85.68,2.08.73,4,1.95,5.6a13.47,13.47,0,0,1,1.22-6.81,13.52,13.52,0,0,0,4.87,9.49c-1.16-2.38-.91-4.81-.49-7.3a17.14,17.14,0,0,0,6.58,10c-2-2.5-1.49-5.22-1-8.28-.08,4.5,1.23,10,4.63,11.69-1.6-1.81-1.83-4.19-.73-6.82.12.93,1.9,6.31,5.36,8-1.24-1.33-1-2.57-1-4.39.27,3.66,3.28,4.29,5.36,5.85-1.44-1.22-1.37-2.73-1.7-4.39,2.34,1.22,2.38,3.36,5.11,3.9a28.18,28.18,0,0,1-.24-5.11,4.76,4.76,0,0,1,1.46,3.16,24.79,24.79,0,0,0-.25-8.76c1.27.7,1.24,1.07,1.46,2.19.82-3.12.25-6.07.25-9.25.37,1.29.48,1.81.73,2.68.86-2-.37-7.07-2-10.23,1.09.29,1.2,1,1.7,1.46Zm0,0" style="fill: #1a1a1a"/>
    <path d="M27.05,78.36a6,6,0,0,1-.77,2.94c0-.86-.89-1.29-.61-3.16A7.63,7.63,0,0,1,24.12,81a6.13,6.13,0,0,0,0-2.56c-.92.46-1.3,2-.73,3.29-1.91-.38-1.41-2.78-1.34-4.38-.43,1.08-.75,2.1-2.19,2.31a7.92,7.92,0,0,0,1-2.56A4.64,4.64,0,0,1,18.4,78.3a4.91,4.91,0,0,0,1.11-2.76,6.3,6.3,0,0,1-3.18,2.27,15.26,15.26,0,0,0-1.83-4.75c-1.87-3.72,6.55-10.38,11.78-8.21,5.23-2,13.64,4.63,11.78,8.35A15,15,0,0,0,36.23,78a6.24,6.24,0,0,1-3.18-2.27,4.91,4.91,0,0,0,1.11,2.76,4.71,4.71,0,0,1-2.44-1.22,7.91,7.91,0,0,0,1,2.56c-1.44-.21-1.76-1.23-2.19-2.31.06,1.6.57,4-1.34,4.38a2.62,2.62,0,0,0-.73-3.29,6.13,6.13,0,0,0,0,2.56c-.93-.89-.9-1.78-1.39-2.76Zm0,0" style="fill: #a4521f"/>
    <path d="M10.27,53.22c5.36-6.87,32.74-6.86,33.63.31,1.25,5.78-1.12,10.94-3.7,12.79a179.16,179.16,0,0,0-28.82-.79c-1.82-1.29-2.71-10.72-1.11-12.31Zm0,0" style="fill: #d0895f"/>
    <path d="M32.32,59.44a8.8,8.8,0,0,0-2.58,1.3c-2.19-.43-4.23-1.17-6.53.15a20.38,20.38,0,0,0-3.63-1.18c-3.77-1-12,3.29-11,8.56-.69-1.72,1.56-3.94,2.69-4.5C10,66.33,5.76,70.88,7.5,74.35a17.38,17.38,0,0,1,3.26-6.14,9.51,9.51,0,0,0-.65,10.06c-1.32-2.24,0-7.19,1.57-8.36-1.2,2.65-2.32,10.4.65,11.89-2.69-2.64-.54-8.82,1.18-11.11-.52,3-2.11,6.44-.27,8.89-.24-4.29,1.49-6.6,2.85-9.41-1.94,2.45-1.66,7.7.16,11C15.79,75.91,16,70,18.93,68.47A6.32,6.32,0,0,0,20.81,71a16.89,16.89,0,0,1,5.33-1,17.54,17.54,0,0,1,5.33,1.07,6.46,6.46,0,0,0,1.88-2.55C36.29,70,36.49,75.94,36,81.17c1.48-3,1.76-6.55.67-10.8,1.8,2.72,2.58,4.94,2.34,9.23,1.83-2.45.25-5.89-.26-8.88C40.49,73,42.64,79.18,40,81.83c3-1.49,1.85-9.25.65-11.89,1.56,1.17,2.89,6.11,1.57,8.36a9.48,9.48,0,0,0-.65-10.06,17.29,17.29,0,0,1,3.26,6.14c1.74-3.47-2.54-8-3.79-10.58,1.13.56,3.38,2.78,2.69,4.5,1.06-5.27-8.07-9.92-11.36-8.86Zm0,0" style="fill: #c26125"/>
    <path d="M14.74,38.87c4-1.68,6.66-.84,10.57,1.19,2.73-2.34,8.34-5.76,14.42,0a6.49,6.49,0,0,0-4.66-.9c2.64,1.32,6.35,3.15,8.42,6.31-1.19-.89-2.91-2.63-5.11-2.25,3.85,1.92,6,5.24,8.11,9.61A45.9,45.9,0,0,0,43,48.63a10.6,10.6,0,0,0-16.53,2.25c-1.29-.64-4-5.3-6.76-5.56A12.92,12.92,0,0,0,8.33,50c.66-3.77,2.74-9.17,8.88-8.7a17.75,17.75,0,0,0-6.63.89c2.18-2.11,7.13-2.34,9.92-2.11a7.46,7.46,0,0,0-5.76-1.19Zm0,0" style="fill: #333"/>
    <path d="M28.76,55.69a1.86,1.86,0,0,1-1.2-1.06l-.75.76a6.28,6.28,0,0,1-.9-.76v.16l-.75.45H25l-.91-.61a.75.75,0,0,1-.15.16c-.3,0-.44.9-.75.9.11-2.8-5.15-8.07-9.76-2.25C12.2,55,12.31,58,12.24,60.35a6.41,6.41,0,0,1-.61-5.41,9.23,9.23,0,0,0-1.5,7.66c-.68-.91-1.84-2.94-.9-4.81-1.32,1.76-2.43,7.78-.3,9.32-3.37-1.69-2.3-7.62-2-11.27-1.15,1.54-3.11,4.06-1.65,6.61-2.49-3.32.33-7.86,2-10.52a1.7,1.7,0,0,0-1.06,1c0-2.37,2.58-5.42,4.51-7.66-2.57.51-3.85,2.71-5.12,5.35C7,43.57,19.93,38.1,26.15,50.33c5.61-12.61,19.11-6.83,20.54.27-1.27-2.64-2.55-4.83-5.13-5.35,1.93,2.24,4.51,5.29,4.51,7.67a1.69,1.69,0,0,0-1-1.06c1.63,2.66,4.44,7.2,1.95,10.52,1.47-2.55-.5-5.07-1.65-6.61.34,3.65,1.42,9.58-2,11.27,2.13-1.54,1-7.56-.29-9.32.94,1.88-.22,3.9-.9,4.81a9.24,9.24,0,0,0-1.51-7.66,6.37,6.37,0,0,1-.6,5.41c-.08-2.31,0-5.36-1.2-6.91-4.61-5.82-8.76-.91-9.62,1.35Zm.48-1" style="fill: #c26125"/>
    <path d="M27.69,62.74A3.93,3.93,0,0,0,24,62.69,3.89,3.89,0,0,1,23,61.13c-1-.43-1.18-.15-1.51,0,.47-.76.56-.62.86-1.23-.29.19-1.08-.28-1.2-.3a3.68,3.68,0,0,1,1.35-.76,4.27,4.27,0,0,1-.6-.9,4.88,4.88,0,0,0,1.66.15l-.61-.9c.4.25.79.1,1.2.15V56a2.72,2.72,0,0,1,1.36.75,3,3,0,0,1,.6-1.28c.13.43.43.57.6,1.41A2.72,2.72,0,0,1,28,56.12v1.35c.41,0,.8.11,1.2-.15l-.6.9a5.06,5.06,0,0,0,1.65-.14,4,4,0,0,1-.59.9,3.57,3.57,0,0,1,1.35.75c-.12,0-.91.49-1.21.3a12.92,12.92,0,0,0,.87,1.23c-.33-.14-.5-.43-1.51,0a15.79,15.79,0,0,0-1.48,1.48Zm0,0" style="fill: #b35419"/>
    <path d="M25.88,67.55a.4.4,0,0,1,.48.38v2a.39.39,0,1,1-.77,0v-2a.38.38,0,0,1,.29-.38Zm0,0"/>
    <path d="M23.17,73.28c1.9.88,4.22.43,6.31-.11a6.19,6.19,0,0,0,3.94-4,23.25,23.25,0,0,1-2,1.48c-1.19-.08-3.73-.58-5.55-.91A36.23,36.23,0,0,1,20.66,71a4.8,4.8,0,0,1-1.61-1.74,6,6,0,0,0,4.12,4.07Zm0,0" style="fill: #1a1a1a"/>
    <path d="M23.25,70.7a12.58,12.58,0,0,1,2.81-.77,26.76,26.76,0,0,1,3.25.68c.66,3.54-.76,6.67-2.89,6.81S22.5,74,23.25,70.7Zm0,0" style="fill: #ea2151"/>
    <path d="M18,53.1c3.2-.24,4.1,4.45.56,4.85A2.46,2.46,0,1,1,18,53.1Zm0,0"/>
    <path d="M25.8,67.83C28.62,68,30.49,63.1,26,63s-3,4.72-.19,4.85Zm0,0"/>
    <path d="M33.94,52.91c-3.2-.24-4.1,4.45-.56,4.85a2.46,2.46,0,1,0,.56-4.85Zm0,0"/>
    <path d="M26,69.58a.39.39,0,0,1,.48.38l.15,5.15a.39.39,0,0,1-.78,0L25.71,70a.38.38,0,0,1,.29-.41Zm0,0" style="fill: #bd003a"/>
    <path d="M33.56,68a.4.4,0,0,1,.41.5,5.87,5.87,0,0,1-.55,1.14,4.68,4.68,0,0,1-1.07,1.3,2.13,2.13,0,0,1-1.42.37A8.06,8.06,0,0,1,29.31,71a14.54,14.54,0,0,0-3.14-.65,14.27,14.27,0,0,0-3.09.7c-1.1.3-2.22.54-3.1-.1a.38.38,0,0,1-.09-.09c-.45-.6-.79-1.08-1-1.46a3.41,3.41,0,0,1-.51-.89.39.39,0,0,1,.75-.24,3.88,3.88,0,0,0,.41.72c.23.34.54.79.94,1.33,0,0,0,0,0,0a3,3,0,0,0,2.41,0,12.86,12.86,0,0,1,3.27-.72,13.64,13.64,0,0,1,3.35.67,6.71,6.71,0,0,0,1.45.24,1.37,1.37,0,0,0,.92-.21,4.32,4.32,0,0,0,.87-1.07,6.81,6.81,0,0,0,.51-1,.39.39,0,0,1,.31-.28Zm0,0"/>
  </g>
</svg>
