<svg id="f56206ce-eec1-47c0-8246-8b9d852deced" data-name="set" xmlns="http://www.w3.org/2000/svg" viewBox="0 0 122.11 256.92">
  <g id="f2534649-e7fb-4e0c-aafa-5a65e67bc3d0" data-name="g7350">
    <g id="bbc4de37-6a14-4dba-984a-afb46746ce0a" data-name="g7346">
      <path id="bb91e0bf-5ee3-4695-bdb4-508ab1c8143f" data-name="path6533-4" d="M55,50.21c-.06-5.78,1.61-16.63,13.37-25.94,5.29-4.18,14.39-5.16,22.56-5.55,2.16-.2,4.2-7.47-.13-7.79-10.14-.69-22.6.76-31.14,7.4-10.11,7.86-17.13,16-19.72,28.77.41,13.16,12.35,16,15.06,3.11Z" style="fill: #8d581d"/>
      <path id="f823d39d-3e08-40a6-8124-acb1991bfbf0" data-name="path6533-4-3" d="M90.76,10.93c9.85.68,17.51,3.37,17.23,5.27-.72,2.33-8.37,2.09-17.1,2.52-1.28-1.09-.18-.66-.37-1.4a1.93,1.93,0,0,0-.16-1.63c.4-.26-.18-1.33-.2-1.47C90.41,13,90.43,12.19,90.76,10.93Z" style="fill: #d1d1d1"/>
    </g>
    <path id="fe2fecd0-f9ff-459c-bd58-e76ea2158473" data-name="path6438-0" d="M59.72,249.27c-.36,3.24-5.53,1.55-8.21,1.77s-7.72,1.91-8.69-1.71c.13-.62-.35-2.16.09-2.62C45.07,244.43,63.74,241,59.72,249.27Z" style="fill: #8d8d8d"/>
    <path id="a9f8e8cd-a44c-475d-a211-382bb3ea8c29" data-name="path6379-4" d="M63.41,236.29c1.75,6.24.27,8.56-3.14,12.87-3.15-.51-6.74-2.56-9.17-2.54s-5.46,2.19-8.41,2.75c-5.43-5.17-3.85-9.64-3.9-13-.26-1-.65-2.1-.14-2.64,1.52-1.61,21.88-3.08,23.45-1.6,1.14,1.09.9,2.77,1.31,4.19Z" style="fill: #d1d1d1"/>
    <path id="bde55e29-0205-4db3-a377-3d1eb42077b9" data-name="path6404-2" d="M56.67,247.55c-2.22,3.37-7.47,4.34-10,0C46.77,245.31,56.24,245.32,56.67,247.55Z"/>
    <path id="f6305fcc-e93e-4f50-a009-81fcd553326c" data-name="path9308" d="M63.82,236.56c-.34,2.19,7,5.23,1,11.45a4.82,4.82,0,0,1-4.55,1.15c-.08-.59-.24-1.72.12-2.1,2.6-2.75-1.85-8.9-1-11.8.39-4.49,4.38-1.13,4.39,1.3Z" style="fill: #262626"/>
    <path id="a22bdf0a-85d9-4035-a988-cded703648ae" data-name="path6379-4-2" d="M38.4,236.64c.34,3-7.83,6.1-.19,11.82a5.33,5.33,0,0,0,4.48.91,1,1,0,0,0,.06-1.36c-3.76-3.57.33-8.85-1.15-12.93A2,2,0,0,0,38.4,236.64Z" style="fill: #262626"/>
    <path id="b63cbf20-bc33-4799-b6fc-fe3da54b239d" data-name="path6398-6-7" d="M38.7,47.78c-9.77.06-22.86,8.42-22,31.08.49,13.19,6.93,23.57,6.82,39.41-.11,15.62-6.95,27.51-4.67,38.91,1.76,8.73,11.76,19,14,24.12.48,5,2.23,15,2.37,18.51-2.34,3-2.59,7.53-2.31,9.95-1.16,4.9-3.17,9.31-1.82,15.23-.09,3.08.5,7.07,2.56,9.41,2.5,2.16,6.15,3.17,12.12.57a4.18,4.18,0,0,0,2.67.35,4.15,4.15,0,0,1,5.44-.22,10.4,10.4,0,0,0,4.55-.17c4.89,1.81,8.7,1.51,11.15-.55s3.43-5.56,3-10.42c.89-5.3.15-12.32-1.43-15.83-.56-4.95-1.88-7.4-3.57-8.8-.06-3.09,1.18-12.83,1.28-18.81,1.88-5.43,11.33-16.24,12.62-25.06,1.68-11.5-5.78-23-6.72-38.6-1-15.81,5-23.19,4.81-36.38C79.13,57.8,70.92,46,55.11,46.66A42.12,42.12,0,0,0,38.7,47.78Z" style="fill: #9e601a"/>
    <path id="bdb1f5bf-acd4-4ff1-b77e-a83bb19bf012" data-name="path6382-0" d="M70,222.94c5.77,2.05,7-2.94,12.41-3.08,4.17,7.5,8.72,3.42,12.07-1.9-4.3-3.2-2.74-5.81-4.28-10.05-1.3-5.83-6.2-4.24-12.17-4.08-6.3,1-6.3,5.93-9.44,7.53C63.42,215,63.72,220,70,222.94Z" style="fill: #492d1b"/>
    <path id="f41da612-d43e-474b-8056-d676ab4a8fd8" data-name="path6392-9" d="M34.87,223.64a14.33,14.33,0,0,1-11.75-2.74c-5.75.43-6.27,5.08-11.08,3.62-3.21-6.26-1.55-11.68.64-14.1a12.06,12.06,0,0,1,10.56-5c3.57,1.38,10.84,3.1,12.38,7.34C38.2,217.11,41.81,220.36,34.87,223.64Z" style="fill: #492d1b"/>
    <path id="abca2e1f-511c-4e82-b1d7-859e2f9a97aa" data-name="path6464-9" d="M61.88,225.15a2,2,0,0,0,.89-.43.48.48,0,1,0-.62-.73h0a1.33,1.33,0,0,1-1.14.23,6.5,6.5,0,0,1-1.8-.65c-1.3-.66-2.67-1.65-3.71-2.3a.48.48,0,0,0-.67.14.49.49,0,0,0,.14.67h0c1,.62,2.41,1.64,3.82,2.35a7.11,7.11,0,0,0,2.07.75A3.17,3.17,0,0,0,61.88,225.15Z" style="fill: #61390c"/>
    <path id="a6a1b71c-d59a-4596-b230-79ecbff81634" data-name="path6466-4" d="M41.74,224.83a8.22,8.22,0,0,0,2.44-.56,7.67,7.67,0,0,0,2.07-1.16,2.71,2.71,0,0,0,1.1-1.68.48.48,0,1,0-1-.12h0a2,2,0,0,1-.75,1.07,7,7,0,0,1-1.82,1c-1.41.53-3,.64-3.77.17a.49.49,0,0,0-.68.1.48.48,0,0,0,.11.67l.06,0a3.73,3.73,0,0,0,2.19.47Z" style="fill: #61390c"/>
    <path id="a7249178-0fac-40ba-90b0-c05e233eec7b" data-name="path9310" d="M69.61,234.34c0-1.6-1.86-4.09-3.9-4.94-3-1.08-7.77,2.43-7.36,5.52a11.48,11.48,0,0,0,7.24,1.39c1.84-.48,3.59-1.31,4-2Z" style="fill: #333"/>
    <path id="ea20514b-9d6d-46bd-acd7-22beb1cbe4a5" data-name="path9310-7" d="M33.63,234.39c.4-2.66.89-2.85,3.92-4.1,1.87-1.2,6.17,1.44,8,4.76-.56.75-4.74,1.71-6.74,1.71A9.66,9.66,0,0,1,33.63,234.39Z" style="fill: #333"/>
    <path id="f759fa7f-76f4-4966-96fb-84b93bfeaae5" data-name="path9351" d="M48.52,235.31c-.89-4.37-1.51-7.86,2.15-15.07,5,7.35,3.74,11.79,3.22,14.9a19.05,19.05,0,0,1-2.43-.63,6.64,6.64,0,0,1-2.94.8Z" style="fill: #f2f2f2"/>
    <path id="b74e65b1-2b2d-4a9e-a479-3b1d3f5233aa" data-name="path6406-4" d="M63.94,236.28c2.18.08,3.76-3.07-1-4C57.35,231.31,59.09,236.1,63.94,236.28Z" style="fill: #ff7f2a"/>
    <path id="a13d8bb9-7194-40ce-902a-d1a3ca0be8c4" data-name="path6408-9" d="M62.71,233.59c-2.12,0-1.26,3.12,1,2.49C64.82,235.77,65.07,233.53,62.71,233.59Z"/>
    <path id="f521587a-c6c2-4f3e-913b-62efcd983ea1" data-name="path6406-0-3" d="M38.26,236.43c-2.17.2-3.93-2.87.84-4C44.58,231.11,43.09,236,38.26,236.43Z" style="fill: #ff7f2a"/>
    <path id="aae92265-86ba-4637-bc03-2cddf538392d" data-name="path6408-3-6" d="M39.34,233.68c2.12-.07,1.43,3-.88,2.54-1.11-.25-1.48-2.48.88-2.54Z"/>
    <path id="aad72011-16b7-445b-912d-3a28cd091fb8" data-name="path6457-5" d="M59.56,231.16A10,10,0,0,0,64.81,228a.5.5,0,0,0-.06-.69.49.49,0,0,0-.69.06,9.36,9.36,0,0,1-4.72,2.9A4.08,4.08,0,0,1,54.91,229a.49.49,0,0,0-.77.6h0A5.11,5.11,0,0,0,59.56,231.16Z" style="fill: #61390c"/>
    <path id="b7a01059-e587-45da-a422-450b174d8bef" data-name="path6459-0" d="M45.2,231.69a3.8,3.8,0,0,0,2.59-1.47.48.48,0,0,0-.79-.55,2.86,2.86,0,0,1-2,1.08,8.38,8.38,0,0,1-3.06-.2,10.18,10.18,0,0,1-5.35-3,.49.49,0,0,0-.77.59h0a10.81,10.81,0,0,0,5.91,3.29,8.88,8.88,0,0,0,3.41.21Z" style="fill: #61390c"/>
    <path id="e489f8c4-788a-4ea2-acc2-97ae017eeeee" data-name="path6462-2" d="M51.73,232.62a.48.48,0,0,0,.36-.44c0-.47.1-2.31.06-4.35a20.08,20.08,0,0,0-.7-5.71.49.49,0,0,0-.57-.38.49.49,0,0,0-.38.57.42.42,0,0,0,.06.14,20.63,20.63,0,0,1,.64,5.41c0,2-.06,3.79-.09,4.25a.49.49,0,0,0,.43.53.65.65,0,0,0,.19,0Z" style="fill: #999"/>
    <path id="b8ccbb50-ba3d-46e8-967c-fa29410babd8" data-name="path9611" d="M56.86,204.75a.48.48,0,0,0,.32-.6,0,0,0,0,0,0,0A3.87,3.87,0,0,0,54.76,202a10.44,10.44,0,0,0-3.84-.55c-2.76.07-5.68.89-7.13,2.57a.48.48,0,0,0,0,.68.49.49,0,0,0,.68,0,.23.23,0,0,0,.07-.07c1.11-1.29,3.84-2.19,6.41-2.25a9.83,9.83,0,0,1,3.49.51,3,3,0,0,1,1.87,1.58A.48.48,0,0,0,56.86,204.75Z" style="fill: #61390c"/>
  </g>
</svg>
