<svg id="b48fcc0d-4465-4c3e-bb78-a063c6577c97" data-name="set" xmlns="http://www.w3.org/2000/svg" viewBox="0 0 133.32 176.59">
  <g>
    <path d="M16.27,142.31c15.48-7.26,17.25,18.16,3.92,20.1-2,1-8.22.93-8.56-1.46-.39-5.6,3.23-4,4.78-6.72.24-.73,1.21-1.91,1.19-3.28,0-2-.17-6.44-1.33-8.64Zm0,0" style="fill: #ded3ca"/>
    <path d="M39.78,140.64c8.85-3.06,15.9-13.43,14.13-21.17.51-5.73,3.45-13.25-3-20.64C50,97.1,49,94.36,46.81,93,42.72,90.89,39,75.09,31.55,72.16c-2.12-.42-22,18.23-24.13,21.2C5.91,97,6.64,100,8,105.73c-2.08,6.25.11,25,4.64,31.57,3.22,4.66,5.11,7.59,13.15,9.85a12.84,12.84,0,0,1,.6,5.26c-.21,2.19-.05,4-1,4.64-1.51,2.59-4.44.47-4.83,5.91,0,3.61,9.92,2.19,10.72,2.19,3.1-.59,4.07-2.57,5.31-4.64,1.23-1.31,2-4.33,2.51-6.88.46-2.08,1.44-9.26.69-13Zm0,0" style="fill: #ffede1"/>
    <path d="M105.37,100.07c.67,5,6.15,8.92,11.23,7.52-.29-7.26-7.56-9.17-11.23-7.52Zm0,0" style="fill: #dfd2c9"/>
    <path d="M121.64,124.85c-13.16-7.55-21.25-21.44-22.14-25.59,12.84.57,23.28,11,22.14,25.59Zm0,0" style="fill: #ffede1"/>
    <path d="M103.75,143.64c3.8-10.72-16.09-9-14.38-.64,1.77,4.27,4.83,5.78,7.36,9.46,3,1.29,5.51,3.36,7.25,4.4,1.54-2.08,2.71-4.25,2.58-5.42-.3-2.93-2.6-2.64-2.81-7.8Zm0,0" style="fill: #784826"/>
    <path d="M104.7,155.84c-3.08-2.14-3.85-2.87-8-3.38,1.15,1.27.57,2.13-.14,2.67-1.9,1.85-6.93-1-7,6.08.23,1.87,5.34,1.53,8.47.92,1.51-.12,4.61-3.3,6.62-6.29Zm0,0" style="fill: #ded3ca"/>
    <path d="M47.14,93.55c-1.5,5.66-2.89,7.66-5,8.47-1.83-1.2-4.25-5.84-5-9.21-.89-4.26-4.38-4.19-5.38-9-.47-2.36,1-4.66.86-7.74.5-2-1.95-2.18-3.23-.65-.47,2.4-1,5.47-2.79,7.09-2.25,2.57-5.42,1.73-7.53,4.31-2.73,3.34-7.67,5.62-11.68,6.44-1.42-2.93-1.17-5.77.42-10,1-2.64,3.09-5,3.49-6.89-.73-1.58-1.85-2.39-2.33-5-1.45-8,6.51-30,12-26.33,3.52,2.35,8.84,18.25,6.52,22.28,1,.65,3.27.7,5.65,1.34s4.47,1.41,5.65,1.34c0-4.66,12.46-15.84,16.69-16.14,6.62-.49,2.26,22.8-3,29.07-1.7,2-3.08,2.18-4.5,3.19-.61,1.88-.15,4.69-.88,7.43Zm0,0" style="fill: #c67c4b"/>
    <path d="M39.47,150.6c0-.83,1-2.84.25-3.6-1-1-8.91-9.81-8-15.7,3.28-20.25,27-16.22,18.58-33.07,2.36,2.2,6.33,1.67,10.72,3,15.27,1.56,22.54-3.76,39.8-1.88,10,3.34,17.4,12.61,20.84,25a44.71,44.71,0,0,1-.31,11.17c-.54,3.58.13,6.19,4.32,8.37,3.61,1.87,2.36,8.16,0,13.25a7,7,0,0,1-7.77-2.33c.83-1.66-.57-2.1-.92-3.58-3.61-3.38-10.79-4.92-16.84-10.59-12.84-.8-13.89,9.59-45.13,12-4.32.34-12.46-.42-15.55-2.1Zm0,0" style="fill: #c67c4b"/>
    <path d="M117.91,154.85c2.67.23,5.11,2.61,8.21,1.35a26.79,26.79,0,0,1-3.07,5.45c-.92,1.23-2.88,3.45-4.87,3.6-3.23.26-9.32.85-9.33-2.21.87-7,5.46-4.07,7.27-5.93a8,8,0,0,0,1.79-2.26Zm0,0" style="fill: #ffede1"/>
    <path d="M22.25,77.74a2.12,2.12,0,0,1-.92,4.14c-3.49-.57-1.91-4.92.92-4.14Zm0,0"/>
    <path d="M27.92,91.14c4.41,1.21,2.09,5.7-1.19,5s-3.21-6.26,1.19-5Zm0,0"/>
    <path d="M26.46,95.28a.38.38,0,0,1,.45.45l-.39,1.48a.37.37,0,0,1-.45.27.38.38,0,0,1-.25-.45l.39-1.48a.4.4,0,0,1,.25-.27Zm0,0"/>
    <path d="M37.83,82.06a2.12,2.12,0,0,0-1.25,4c3.32,1.23,4.1-3.32,1.25-4Zm0,0"/>
    <path d="M17.68,95A.42.42,0,0,1,18,95a2.3,2.3,0,0,1,1,1.46c.2.6.32,1.27.53,2a5.61,5.61,0,0,0,.91,1.85,3.14,3.14,0,0,0,1.83,1.11.43.43,0,1,1-.19.82,4,4,0,0,1-2.3-1.4,5.93,5.93,0,0,1-1.05-2.12c-.22-.72-.38-1.42-.55-1.95a1.7,1.7,0,0,0-.58-1,.46.46,0,0,1,.1-.81Zm0,0" style="fill: #ecc5a9"/>
    <path d="M34.35,99.66a.43.43,0,1,1,0,.84,1.8,1.8,0,0,0-1,.54c-.43.36-.92.89-1.46,1.39a6.75,6.75,0,0,1-1.8,1.32,3.3,3.3,0,0,1-2.37.19.44.44,0,0,1,.27-.83,2.24,2.24,0,0,0,1.73-.12,6.73,6.73,0,0,0,1.6-1.17c.51-.48,1-1,1.48-1.44a2.36,2.36,0,0,1,1.62-.72Zm0,0" style="fill: #ecc5a9"/>
    <path d="M21.46,69.05c-2.19.74-3.59,1.91-5.72,4-1.05-3.5-3.44-5.77-3.41-8.28,0-6.14,4.32-16.28,7.39-16.6,2.93,0,6.67,11.05,5.33,13.08C21.76,65,23.22,67,21.46,69.05Zm0,0" style="fill: #ffbbb8"/>
    <path d="M44,74.75c1.61,1.66,2.31,3.33,3.27,6.15,2.53-2.63,5.69-3.56,6.82-5.8,2.81-5.46,3.6-16.45,1-18.14-2.6-1.37-11,6.77-10.72,9.19,1.22,4.81-1,6-.39,8.6Zm0,0" style="fill: #ffbbb8"/>
    <path d="M33.49,96.75c-3.69,2.2-1.38,2.79-7.44.18-3.28.36-4.88-.47-6.07-3.71.16,1.3.6,4.72,1.92,6.39m0,0c2.52.76,4.75.9,7.38,1.73,2-.8,3.43-3.55,4.21-4.59" style="fill: #1a1a1a"/>
    <path d="M22.64,97.21a12.87,12.87,0,0,1,3.9-.28,15.84,15.84,0,0,0,3,1.88c-.37,3.62-1.27,9.48-4.76,8.48s-3.4-7.74-2.16-10.08Zm0,0" style="fill: #ea2151"/>
    <path d="M26.19,97.19a.34.34,0,0,1,.41.33,16,16,0,0,1-.49,3.54,10.08,10.08,0,0,0-.2,3.64.35.35,0,0,1-.29.37.34.34,0,0,1-.37-.29,11.15,11.15,0,0,1,.22-3.85,14.55,14.55,0,0,0,.47-3.41.35.35,0,0,1,.25-.33Zm0,0" style="fill: #bd003a"/>
    <path d="M19.92,92.48a.47.47,0,0,1,.52.52,3.72,3.72,0,0,0,.86,2.73,2.89,2.89,0,0,0,2.2.87,15.58,15.58,0,0,1,2.77.16A15.05,15.05,0,0,1,28.78,98a2.84,2.84,0,0,0,2.32.35,3.32,3.32,0,0,0,2.06-2.11.43.43,0,1,1,.78.36,4.43,4.43,0,0,1-2.53,2.56,3.71,3.71,0,0,1-3-.4,18.16,18.16,0,0,0-2.32-1.13,20.11,20.11,0,0,0-2.61-.14,3.69,3.69,0,0,1-2.82-1.17,4.4,4.4,0,0,1-1-3.43.48.48,0,0,1,.31-.36Zm0,0"/>
  </g>
</svg>
