<svg id="abd728ef-304d-4c42-af65-bd8dcc9339af" data-name="set" xmlns="http://www.w3.org/2000/svg" viewBox="0 0 118.18 176.5">
  <g id="ee32cc0f-2095-464a-9127-7b5c098ef268" data-name="g14955">
    <path id="af1f6635-fb6b-46b9-85d5-24f9c05e11a7" data-name="path6741-1" d="M60.5,156.36c-2,7.92-3.16,11.79-8.9,11.76s-7.8-3.66-9.51-12.66C42.76,146.8,59.29,146.55,60.5,156.36Z" style="fill: #f2c9ae"/>
    <path id="bb494cfb-4f76-44b9-b79a-bef2ece6ec3f" data-name="path6784-6" d="M55.37,167.21c-1.31,3.51-7,3.07-7.72-.06A12.62,12.62,0,0,1,55.37,167.21Z"/>
    <path id="eda12ada-b939-4ab9-83fd-0ddf86b76c50" data-name="path6739-6" d="M43.33,10C30.94,10,25,21.89,23.8,31.62c-1,8.33,4.64,19.86,3.81,29.66-1,11.51-6,17.53-3.87,31.23,1,6.54,5.06,15,5.94,20.6.27,2.34,0,3.26.2,6.79-.4,2.7-1.17,6.88-.47,10.12-1.06,3.16.73,11.19,2.54,14.4C32.1,150,39.48,155.83,44,157.07c5.25,1.44,9.9,1.68,14.27.4,5.29-1.55,12.31-7.24,12.72-12.32a67,67,0,0,0,1.54-14.85,56.11,56.11,0,0,0,0-10c-.2-1.49.42-4.76.66-7,1.32-1.19,7-15.73,7.44-22,.93-12.23-4.37-16.33-3.52-29,.67-9.94,5.6-20.26,3.37-30.49-1.94-8.93-6.38-20.21-18.56-21C56,9.43,50.44,9.32,43.33,10Z" style="fill: #c67c4b"/>
    <path id="bf68dd3d-5ef3-40bc-bb7c-5d8d0eebc29b" data-name="path6745-5" d="M36,144.6c-6-1.2-11.85-1.12-13.91-4.32-.8-5.39,6.47-10.12,10.09-11.33C39.77,132.54,39.68,138,36,144.6Z" style="fill: #bc7142"/>
    <path id="ef833645-bfef-4dbe-9547-568ae870e82d" data-name="path6786-9" d="M61.41,156.43c2.44-1,2-3.91-.55-3.35S58.77,157.46,61.41,156.43Z"/>
    <path id="ae5d775c-78bc-48ee-be04-008ceddc1cf3" data-name="path6786-3-3" d="M41.68,155.9c-2.43-1-2-3.94.6-3.34S44.3,157,41.68,155.9Z"/>
    <path id="f106a8ff-bfda-405c-97a6-0d77e0e832ad" data-name="path6818" d="M58.85,151.75c5.24.65,3.53-4.81.87-3.09C58,149.77,56.23,151.43,58.85,151.75Z" style="fill: #ffd7bd"/>
    <path id="e4d425ca-375a-4ba3-aa48-2fb3dd3f8b8e" data-name="path6737-0" d="M67.36,144.67c1.8.94,11.52-.2,14.1-2.89.47-5-7.65-11.42-11.44-12.72C63.43,128.26,58.61,142.07,67.36,144.67Z" style="fill: #bc7142"/>
    <path id="bd9e6c93-9365-4725-84a7-de3fee11d255" data-name="path6780-6" d="M60.84,11.31c0-.75.15-1.46-.44-1.66a2,2,0,0,1-.84-.36c-.2-.76-.38-.7-.84-.85-.84-.33-.12-.92-1-.85-1.27-.81-1.22-.25-2.1-.25-.53-.15-1-.63-1.43-.49-.62-.53-1.27.29-1.8.11a1.62,1.62,0,0,0-1.32.11c-1.14-.57-1.74-.69-2.4-.26s-.61.28-1.2.47c-.52-.33-1.3.22-1.69.35-.64.63-1,.88-1.45,1.31a4.84,4.84,0,0,0-1.2.83c-.45.54-.22.52-.36,1.18.23,1,.26,2.1.53,3a8.73,8.73,0,0,0-2.42,1.77c.69,1,1.47,1.14,1.84,2.29-1.27.6-1.72,2.05-2.27,2.41a18,18,0,0,1,2.24,2,14.12,14.12,0,0,0-2,2.14,14.17,14.17,0,0,1,2.56,2.35c-.39,1.51-.75,1.29-1.12,1.93.92.77,1.69,1.43,2.19,1.94-1.19,1.31-1.08,1.28-.84,2.48A12.52,12.52,0,0,0,46,34.47a12.17,12.17,0,0,0,.9,2.39c.8-.2,2-.24,3-.55.56.33,1.54,1.16,2.58,1.76.87-.67,1.13-1.19,2-1.48,1.3.12,1.65.51,3.26.7-.18-.55.48-1.22.31-2.61,1.09-.73,2.21,0,3.12-.87-.27-.55-.43-1.73-.7-2.28,1.17-.55,2.14-.33,2.35-1.15l-.93-1.79a5.47,5.47,0,0,1,1.72-1.49c1-.43-.82-1.23-.81-2.2.36-.81,2-2,1.36-2.42-.17-.62-.41-.67-.82-.81.25-.63.58-1.47.73-1.91l-1.55-1c.3-1.22,1-1.54,1-2.63-.74-2.47-1.52-1-2.52-3.1C60.88,12.47,61.24,11.54,60.84,11.31Z" style="fill: #f2c9ae"/>
    <path id="ae6eea9d-f414-42aa-841f-e334808eb06e" data-name="path6780-6-3" d="M55.59,32.76a.59.59,0,0,0,.42-.3c.5-.81.84-.91,1.26-1,.21,0,.46,0,.73,0a1.61,1.61,0,0,0,.92-.3.59.59,0,0,0,.16-.74,10.2,10.2,0,0,1-.71-1.81,6,6,0,0,0,1.3-.57,9.12,9.12,0,0,0,.88-.69.6.6,0,0,0,.08-.75c-.41-.65-.86-1-1.19-1.63.15-.14.32-.23.48-.4l1-1a.59.59,0,0,0,.15-.4,2.59,2.59,0,0,0-.36-1.55,3,3,0,0,0-.6-.53,4.51,4.51,0,0,0,1.31-1.34.59.59,0,0,0,0-.5,2.79,2.79,0,0,0-1.11-1.39,1.73,1.73,0,0,1-.3-.27A4.69,4.69,0,0,0,61.48,16a.59.59,0,0,0-.19-.82.6.6,0,0,0-.83.19A3.35,3.35,0,0,1,58.82,17a.61.61,0,0,0-.25.7,2.35,2.35,0,0,0,1.07,1.16,1.91,1.91,0,0,1,.47.53,3,3,0,0,1-1.24,1.24.6.6,0,0,0-.16.83.44.44,0,0,0,.13.14,5.57,5.57,0,0,1,.85.71,1.64,1.64,0,0,1,.12.65c-.27.29-.54.59-.79.84s-.6.56-.57.55a.6.6,0,0,0-.31.75,4.35,4.35,0,0,0,1.14,1.78,3.4,3.4,0,0,1-.3.22,3.47,3.47,0,0,1-1.43.64.61.61,0,0,0-.54.66s0,0,0,0a5,5,0,0,0,.71,1.86,4.85,4.85,0,0,0-.6,0A2.93,2.93,0,0,0,55,31.83a.61.61,0,0,0,.15.84A.59.59,0,0,0,55.59,32.76Z" style="fill: #b07a58"/>
    <path id="a093859e-7942-4cc8-84f1-c3c992829b6d" data-name="path6818-5" d="M44.68,151.31c-5.25.57-3.46-4.86-.83-3.11C45.56,149.34,47.3,151,44.68,151.31Z" style="fill: #ffd7bd"/>
  </g>
</svg>
