<svg id="eb8c1928-6b6c-488f-a856-86f3f2fde915" data-name="set" xmlns="http://www.w3.org/2000/svg" viewBox="0 0 237.05 256.92">
  <g>
    <path d="M208.4,245.37c-4.76,4-8.92,7.22-12-.24-4.65-8.53,5-6.47,5.36-16.82a102.77,102.77,0,0,0-5.64-14.37c-.48-1-1-2-1.48-3,5.19-2.58,9.12-4.47,13.36-6.12.73.77,1.43,1.59,2.09,2.44,8.43,11,10.07,28.74-1.73,38.13Zm0,0" style="fill: #aeaeae"/>
    <path d="M205.65,208.08c2.44,5.09,4.77,10.07,6.94,14.84,7,15.43-8.28,7.47-.79,22.11,3.37,6.56,10-.24,14.95-3.39,5.34-3.42-1-19.32-4.65-29.66-1-2.94-2.13-6-3.24-9.26-4.24,5.24-6.73,3.82-13.21,5.36Zm0,0" style="fill: #e6e6e6"/>
    <path d="M147.2,146.47s12.4,43.8,47.48,64.52l15.1-4.14L167.25,135.5H144.11Z" style="fill: #764a19"/>
    <path d="M179.77,104.05c8-.06,28.38-12.5,29.95-3.46,1.17,6.71-14.38,10.23-18.18,15-5.59-.4-13.32-5-11.77-11.59Zm0,0" style="fill: #8d581d"/>
    <path d="M41.92,146.47c.95,12.77,7.54,54.72,5.5,77.05A116.35,116.35,0,0,0,64,226.13c3.91-23.46,3.82-77-10.44-83.67-4.9-2.3-11.64.72-11.61,4Zm0,0" style="fill: #764a19"/>
    <path d="M43.28,248.29c-4.23.67-7.84,1.11-7-4.63.31-7,5.27-2.11,9.19-8.36a77.36,77.36,0,0,0,1.83-11c.08-.8.15-1.6.21-2.41,4,.36,7,.66,10.07,1.24.15.75.27,1.51.35,2.29,1,9.93-4.37,21.49-14.69,22.85Zm0,0" style="fill: #aeaeae"/>
    <path d="M32.14,80.84C26,90.37,30.62,86,31.59,104.07c.15,2.74,2.44,11.61,2.13,24.52C36.89,144,43.36,148,49.51,153.53c.46,5.82,5.55,50.72,5,69.55,4.55,2.18,7.26,3.14,13.19.92,2.68-15.89,2.4-48.12,3.73-63.39,7.39,1.81,20.15,2,29.42.87,32.76-3.9,46.7-19.16,56.19-16.69,8.8,21.44,23.82,48,48.37,61a9.36,9.36,0,0,0,1.93,2.07c6.2.5,6-.28,12.13-2.4-.45-1-.65-3.32-1.19-3.65C203.91,193,201.48,173.61,198.37,161c-1.24-5,1.3-19.1-.08-33.75-1-10.47-6.42-25.45-24.8-28.64-24.37-4.22-60.22-6.1-82.9-13.87-6-4.25-13.46-9.65-24-13.19-3-4.52-5.32-2.71-7.73-7.37C40.25,65,48.08,78.26,32.14,80.84Zm0,0" style="fill: #9e601a"/>
    <path d="M50.3,135.5c.17-13.7,3.56-11.69,2-20.31-1.57-8.45,6.42-14.57.14-25.35A97.62,97.62,0,0,0,35.47,89c-4.12,9.84,0,10.78.23,19,.23,6.83-.23,5.79.07,10.55-1.38,4.25-2.9,11.22-.4,21.3,1.08,4.34,7.25,10.13,14.39,14.7-3-11.93.47-14.15.54-19Zm0,0" style="fill: #e6e6e6"/>
    <path d="M54.59,221.56c-.1,4.19-.25,8.27-.44,12.15-.61,12.56-10.15,2.19-10,14.38.05,5.48,8.53,3.18,14,2.73,6-.48,7.35-13.12,8.65-21.19.36-2.3.77-4.72,1.19-7.22-5.79,2.06-7.3.29-13.41-.85Zm0,0" style="fill: #e6e6e6"/>
    <path d="M26.44,83.62c-.25-8.68-9.14-8.68-10.07-20-.06-10.91,3.13-21.82,11.9-27.65,3-1.56,9.16-2,13.37-2s10.13.24,13.1,1.79c4.34,4.52,16.11,18,11.47,27.51-.68,12-10.14,11.82-10.13,21.33-9.71,1.56-21.84,1.45-29.64-1Zm0,0" style="fill: #955a17"/>
    <path d="M40.14,36.12a.69.69,0,0,0-.55.35,12.25,12.25,0,0,1-2.27,3.33c-.92.8-2.21,1.37-4.63,1.49a.69.69,0,0,0,.08,1.37,8.49,8.49,0,0,0,5.45-1.8,13.24,13.24,0,0,0,2.59-3.68.73.73,0,0,0-.67-1.06Zm0,0" style="fill: #704223"/>
    <path d="M42.73,35.92A.73.73,0,0,0,42.14,37a10.7,10.7,0,0,0,2.94,3.64,10.27,10.27,0,0,0,5.72,1.69.72.72,0,0,0,.73-.65.71.71,0,0,0-.65-.72,9,9,0,0,1-5-1.45,9.42,9.42,0,0,1-2.54-3.18.73.73,0,0,0-.63-.39Zm0,0" style="fill: #704223"/>
    <path d="M28.55,35.65c-.86-.76-2.9-4.4-5.47-4.48-4.25.48-15.3,7-18.75,11.81C1.69,49,12,55.73,14.49,62.54c7.07,3.95.62-13.63,11.71-20.78.72-2.89,2.07-3.58,2.35-6.11Zm0,0" style="fill: #492d1b"/>
    <path d="M54.73,35.74c.86-.76,2.89-4.4,5.47-4.48,4.25.49,15.3,7,18.74,11.81,2.65,6-7.69,12.75-10.15,19.56C61.71,66.58,68.16,49,57.07,41.85c-.63-2.31-2.47-3.83-2.34-6.11Zm0,0" style="fill: #492d1b"/>
    <path d="M36.29,64.47c4.36-9.51-1.56-15.16-8-12.57-1.73,2.68-4.21,5.18-4.09,8,.11,2.56,3.06,5.59,6.49,8,1.47-2.1,4.54-1.08,5.64-3.4Zm0,0" style="fill: #151515"/>
    <path d="M46.91,64.19c-4.37-9.51,1.55-15.16,8-12.57,1.74,2.68,4.21,5.18,4.09,8-.11,2.57-3.06,5.6-6.48,8-1.48-2.11-4.54-1.09-5.64-3.41Zm0,0" style="fill: #151515"/>
    <path d="M31.56,48.78a13.08,13.08,0,0,0-6.82,2.43.68.68,0,1,0,.74,1.13c4.52-3,8.18-2.71,10.31-.66s2.87,6.15.83,11.37a.7.7,0,0,0,.39.89.71.71,0,0,0,.9-.39C40.08,58,39.44,53.26,36.77,50.7a7.07,7.07,0,0,0-5.21-1.92Zm0,0" style="fill: #704223"/>
    <path d="M51.55,48.82A6.44,6.44,0,0,0,46.92,51c-2.35,2.67-3,7.36-1.13,12.9a.68.68,0,1,0,1.29-.43c-1.74-5.23-1-9.41.86-11.57a5,5,0,0,1,3.65-1.72,8.68,8.68,0,0,1,5.13,1.68.69.69,0,1,0,.79-1.13,10.09,10.09,0,0,0-6-1.92Zm0,0" style="fill: #704223"/>
    <path d="M33.76,58.49c-.67-4.49-5.13-2.71-6.84-.3.61,4.18,5.93,4.7,6.84.3Zm0,0" style="fill: #a40"/>
    <path d="M30.54,57.26c-2.15.34-2.16,3.49.39,3.27,2.07-.18,1.71-3.59-.39-3.27Zm0,0"/>
    <path d="M49.38,58.18c.68-4.49,5.13-2.71,6.84-.31-.6,4.19-5.92,4.7-6.84.31Zm0,0" style="fill: #a40"/>
    <path d="M52.61,57c2.14.33,2.16,3.48-.39,3.26-2.07-.18-1.71-3.59.39-3.26Zm0,0"/>
    <path d="M33.91,87.6c.11-3.67,3.45-9.93,8.22-9.91s8,7.14,8.18,9.85c.79,4.2-4.65,3.1-8.12,3.08-4.72,0-8.22,1.84-8.28-3Zm0,0" style="fill: #8d8d8d"/>
    <path d="M38.65,62.93c.53,1.39,5.57,2,6.38,0a19.18,19.18,0,0,1-.87-7,53.38,53.38,0,0,0-2.45-14.2,52.35,52.35,0,0,0-2.45,13.68c0,3.26.14,5.73-.61,7.56Zm0,0" style="fill: #e6e6e6"/>
    <path d="M52.81,66.44c2.7,3,4.4,6.06,5.41,12.16,1.21,7.3-2.6,15.29-5.09,14.41-6.27-2.2-2.89-14.07-11.24-14S37.71,92.66,31.3,93.08C28.67,93.26,25,86,26.21,78.67c1-6.1,2.7-9.11,5.41-12.16a11.41,11.41,0,0,1,6.79-3.57c1.15-.2,2.38.45,3.43.44s2.38-.67,3.78-.44a12.1,12.1,0,0,1,7.19,3.5Zm0,0" style="fill: #0d0d0d"/>
    <path d="M38.61,62.89c-3.81,5.22-3.55,7.59-2,20.22C37.79,79.72,40.19,79,42,79s5-1,6.11,2.4c1.58-12.62.76-13.33-3.05-18.55a24.27,24.27,0,0,0-6.43,0Zm0,0" style="fill: #ccc"/>
    <path d="M41.79,64.83c-6.78.11-5.32,8.49.19,8.53s6.63-8.63-.19-8.53Zm0,0"/>
    <path d="M42,72.65a.71.71,0,0,0-.71.7v5.29a.72.72,0,0,0,.69.69.71.71,0,0,0,.68-.69V73.35a.71.71,0,0,0-.66-.7Zm0,0"/>
  </g>
</svg>
