<svg id="a749d222-c57d-4411-a5b9-14cce6d5dcfb" data-name="set" xmlns="http://www.w3.org/2000/svg" viewBox="0 0 99.07 205.22">
  <g id="bc922bee-b365-4cc8-815d-a8ed80c24c67" data-name="g15026">
    <path id="b5718b75-e9d3-4445-8c11-49859ca62181" data-name="path6978-6" d="M41.7,32.37c.59-5.31-1.62-8.13-6.2-10.74a13.11,13.11,0,0,0-6.81-1.13c-4.39.12-5.34-8.2-.94-9.43,8.86-1.2,16.46.73,22,7,3,3.4,6,11.77,5,14.8,1.56,7.69-14.59,7.67-13.06-.51Z" style="fill: #121212"/>
    <path id="a5b1cd70-f8db-49cb-9bf7-2394c4413026" data-name="path6978-6-9" d="M27.75,11.07A29.31,29.31,0,0,0,13.9,16.82C9.8,20.11,4.44,30.24,7.48,32.39c3.1-.57,6.17-7.15,12.66-10.16a27,27,0,0,1,8.55-1.73,6.7,6.7,0,0,1-.52-2.29c1-1.2.47-1.15.79-2.12-.47-1.27-.21-1.42-.53-2.37-.95-1.9-.85-1-.68-2.65Z" style="fill: #dcdcdc"/>
    <path id="f7beef6a-617d-426a-a136-a1da36c87b62" data-name="path6974-2" d="M41.42,32.83c-7.72,1.3-18.24,7.65-18.9,22.24-.39,8.37,5.84,15.05,4.76,25-.85,7.85-6.36,19.7-3.55,30.66a52.61,52.61,0,0,1,5.89,16.6c9.4,5.25,25.27,3.47,34.11.32.32-3.82,4.42-11,7.54-17.89,2.16-14-4.24-23.12-3.82-29.95.57-9.2,5.08-16.58,5.22-24.72.22-12.94-6.43-20-17.45-23-5.29-1.12-9.76.11-13.8.83Z" style="fill: #1a1a1a"/>
    <path id="bfa22c11-d81d-4f37-9d10-021d92bb07a0" data-name="path6970-0" d="M57,140.19c-9.48,9.49-18.62,2-26.38-3.92.14-3.67-.74-5.94-1-9.06,5.91.17,8.26-3.83,11-6.55,3.8-3.81,10.21-2.83,14.52.78,2.9,2.42,6.37,4.24,8.75,6-.22,3.2-.45,6.73-.82,9.57-1.12,2.39-4,1.05-6.07,3.15Z" style="fill: #ececec"/>
    <path id="f61dec51-0f15-4d3d-9e42-be151a4bed85" data-name="path7007-7" d="M53.33,182c5.26,3.73,8.11-2.74,3.83-5.58C51.39,172.28,48.34,179,53.33,182Z" style="fill: #d62198"/>
    <path id="b59635e1-dea4-4f76-ada7-b20a4aee76d0" data-name="path6974-2-6" d="M29.62,127.49a86.76,86.76,0,0,1-5.89-16.8C27.82,109.44,34.54,122,29.62,127.49Z" style="fill: #cb6f1c"/>
    <path id="ace45446-ecd6-411f-bba1-74d2f94fe2e4" data-name="path6976-0-2" d="M63.92,128.26c.43-3.67,6.33-11.86,7.35-18.54C62.54,112.7,62.09,119.46,63.92,128.26Z" style="fill: #cb6f1c"/>
    <path id="e2d4a934-29f1-4942-b6aa-29b7feb51e28" data-name="path6956-2" d="M38.21,169c-.39,4-2.87,14.2,10.08,13.78,11.22-.09,9.1-9.81,8.47-13.85-.84-4.68-17.65-3.58-18.55.07Z" style="fill: #dcdcdc"/>
    <path id="ba8acb75-7bcc-4e41-b989-491e8aa032b0" data-name="path6980-8" d="M43.41,182.41c.3-1.44,7.21-1.63,7.59.16C50.37,185.43,44.86,186.14,43.41,182.41Z"/>
    <path id="b90f8ab6-118c-4d84-9577-9e82a01b4ed7" data-name="path6954-9" d="M63.21,136.5A58.69,58.69,0,0,1,64.68,144c1.43,3.68,1.92,11.87-.85,16.75-.83,4.46-6.08,10-13.35,9.53-1.31-2.83-5-1.92-6.89.27-7.25-.54-12.17-4.54-12.93-9.28-1.64-6.75-2.35-13.31-.91-17.62-.36-2.36.68-5.24.89-7.35,6.47-3.15,13.78-.6,16.08,5.25C50.26,135.08,58.38,133,63.21,136.5Z" style="fill: #cb6f1c"/>
    <path id="a4c1754c-a19f-431a-bf83-2b94a5f8e160" data-name="path6962-6" d="M25.27,160.51c-4.21-4-5.63-7.21-8.33-11.26-7.06-3.89-.33-7.83,4.4-7.83,5.3-.68,7.37,2.45,10.29,3.42a4.32,4.32,0,0,1,3.91-.49c5.73,2.73,6,12.15,1.05,15.29A21.12,21.12,0,0,1,33,160.73c-3-.21-5.21,1.45-7.71-.22Z" style="fill: #79461a"/>
    <path id="a63b0202-712a-4553-b34a-4fafca827e53" data-name="path6964-4" d="M66.88,144.82c2.23-.76,8.62-4.36,13,0,.2,2.56-3.52,4.93-4.16,7.59-2.24,1.27-3,8.39-8.32,9.56-2.55.56-4.54-3.32-9.06-2-5.39-3.88-6.08-11,.3-15.53,4.37-2,5,.85,8.26.35Z" style="fill: #79461a"/>
    <path id="feffaab1-7670-44a7-a6e9-acbc30af5ea1" data-name="path6982-7" d="M37.75,169.31c-4.8-.56-3-7.42,2.26-2.91C42,168.06,39,169.45,37.75,169.31Z" style="fill: #fca"/>
    <path id="b0d1af3e-9cde-42c9-a830-73f913d3babe" data-name="path6984-1" d="M36.94,165.27c-2.24,1.57,1.71,4.12,2.43,1.77C40,164.94,38.07,164.48,36.94,165.27Z"/>
    <path id="bdc79244-540a-43de-9ef0-f868bfe38307" data-name="path6982-2-7" d="M56,168.76c4.81-.56,3.05-7.42-2.26-2.9C51.83,167.52,54.83,168.91,56,168.76Z" style="fill: #fca"/>
    <path id="bae3f810-91ab-4ea2-83a2-bcc5f39202bc" data-name="path6984-9-2" d="M56.85,164.73c2.24,1.57-1.7,4.12-2.42,1.78C53.78,164.4,55.72,163.94,56.85,164.73Z"/>
    <path id="bfafbf07-3a6b-49f0-9db2-fab7e899fd1d" data-name="path7051" d="M51.38,170.37a30,30,0,0,1-8.71.08c.6-4.14,2.34-13.59,4.21-14,1.38,1.07,3.94,10.68,4.5,13.9Z" style="fill: #f9f9f9"/>
  </g>
</svg>
