<svg id="a0f554fa-c69b-4d68-83e4-d638380906ef" data-name="set" xmlns="http://www.w3.org/2000/svg" viewBox="0 0 153.38 286.81">
  <g id="b94f343b-cf63-4f52-9185-77cb23c7dcf6" data-name="g7389">
    <path id="fafdf638-a066-4f6a-a114-8098f5e93f9a" data-name="path6463-1" d="M63.63,261.35c.75,10.2,2.41,24,10.68,23.57s9-13.11,10.21-23.3C85.34,258.58,63.06,258,63.63,261.35Z" style="fill: #121212"/>
    <path id="b1da2839-ba04-49de-a7c9-47a23710e636" data-name="path6483-6" d="M69.55,283.57c.15-1,9.17-1,8.92.29.08,1.49-2.32,3-4.57,2.95s-4.39-1.72-4.35-3.24Z"/>
    <path id="a005fa12-349d-4aac-a84e-239da1d6600c" data-name="path6519-3" d="M69,70.54c-1.22-4.1-17.84,1.49-20.26-4.42,1.37-.31,1.23-.23,2.6-.53-13.12-4.42-19.76-1.74-29.22-13.14,4,.88,4.16.73,5.35.4C18.19,51,3.54,36.36,5.35,24.76c1.39,6.65,2.29,6.47,6.37,10.57-6.5-7.75-6.52-16-3.31-21.61C14,19.76,19.12,24.53,21,28.28c-.86-2.8-.21-3.5-2.3-4.61,11.75,3.27,15.89,7.55,23.26,14.94-1.22-.92-1.75-3.13-3-4,11.94,3.81,18.6,10.12,22.64,18.29a17,17,0,0,0-3.27-7C69.86,49.77,75.15,52.45,80.2,65,83,73.36,70.65,80.25,69,70.54Z" style="fill: #121212"/>
    <path id="f0dc0355-e1db-428a-824b-0d5f9bff790c" data-name="path17601" d="M98.4,217.76c1.42,5.68,1.39,12.19,1,18.6-.32,10.87-16.69,25.24-25.09,25.72-13.08-.77-24.22-18.13-24.74-27.31-.9-5.06-.47-10.69,1.25-18-.12-6.42,12.65-19.69,25.56-18.89s17.47,6.24,22,19.85Z" style="fill: #cc8a5e"/>
    <path id="abe7c9c7-7641-4ae3-b9fe-ffcc8c8f36cc" data-name="path6461-9" d="M87.61,259.91c-1.1.5-4.36,1.37-7.37,2.24A25.31,25.31,0,0,1,67.49,262c-2.15-.66-5.33-1.5-6.45-2.26-2.36-.56-2.18-.62-3-1.46,0-3.88,3.22-6,6.31-5.19,4.72,1.23,5.26,5.3,6.84,7.69,2.42-1.21,3.58-.9,4.94,0,1.83-3.88,6.76-7.76,9.34-8.21,3-.52,4.13,3.39,4.38,4.39-.34,1.45-1.17,2-2.23,2.93Z" style="fill: #2b2b2b"/>
    <path id="ada1d2a9-05b1-41c2-9cec-a6e4e08c9a41" data-name="path6485-8" d="M67,259.78c.11-2-4.39-3.65-5.37-1.32C60.1,260.42,66.54,262.94,67,259.78Z" style="fill: #d45500"/>
    <path id="faa083e4-a4d7-40aa-82d0-27f75269154d" data-name="path6487-79" d="M63.66,260.73c-1.51-.52-1.26-2.72.84-2.39A1.28,1.28,0,1,1,63.66,260.73Z"/>
    <path id="aed995fb-b07b-46a3-bfc1-2733716028c9" data-name="path6485-6-0" d="M81.41,259.93c-.11-2,4.4-3.64,5.38-1.31C88.32,260.59,81.86,263.09,81.41,259.93Z" style="fill: #d45500"/>
    <path id="a1ea3733-ca38-4489-99c7-301a64844f75" data-name="path6487-7-2" d="M84.75,260.89c1.51-.52,1.28-2.72-.83-2.39A1.27,1.27,0,1,0,84.75,260.89Z"/>
    <path id="b0815d91-2465-4df9-8c3c-9ad3414b4d30" data-name="path17599" d="M74.13,251.7c-.92-3.35-2.08-5.67-4.56-7.37,3-2.12,3.32-2.47,4.67-6.84,1.07,3.79,2.45,5.6,5.14,6.95C77,245.87,75.6,249,74.13,251.7Z" style="fill: #494949"/>
    <path id="bf93a6ca-1d09-4994-aa2b-677d352ffe33" data-name="path6467-7" d="M66.59,245.41c-2.62,4.12-7.49,24.56-11.68,23-6.61-4.54-12.42-27.78-3.51-34.16,7.23-7,16.6,3.33,15.19,11.2Z" style="fill: #181818"/>
    <path id="b5ff9e27-34be-42bd-bfc4-f5750ef936ec" data-name="path6469-0" d="M82.68,245.7c4.23,4.22,5.67,27.3,10.91,23.15,9.48-12.1,12.14-28.45,3.91-34.72S82.81,238.38,82.68,245.7Z" style="fill: #181818"/>
    <path id="be604ab5-0ab0-4ed3-9498-2c04adce7e03" data-name="path6475-6" d="M75.2,62C49.39,67.53,46.49,79.76,46.05,96.55c-.42,15.75,4.69,26.3,3.9,37.27-1.06,14.86-7.12,22.18-5.84,42.34.71,11.3,6.74,26.93,7,29.83A91.79,91.79,0,0,1,51,216.74c13.44-14.7,16.31,8.77,24,9s9.65-25.23,23.21-7.93c.44-3.45.3-8,1.47-11.55,2.16-10.93,7.39-14.85,7.68-32.64.25-15-5.52-25.84-5-36.19.79-16.74,11.68-26.32,7.84-46.78-2.38-12.74-7-21.59-22-28.35a39.43,39.43,0,0,0-13-.36Z" style="fill: #1a1a1a"/>
  </g>
</svg>
