<svg id="b9b41df2-ed35-4745-93fb-7d7333dccd1e" data-name="set" xmlns="http://www.w3.org/2000/svg" viewBox="0 0 114.36 155.36">
  <g>
    <path id="bc1b6aaa-317f-45da-a767-285488d9b47b" data-name="path5182-4" d="M54.36,73.5A36,36,0,0,0,37.08,77a.61.61,0,0,0-.31.79.59.59,0,0,0,.78.32l.08,0c10-4.89,22.36-4.62,36.52,1.5a.6.6,0,1,0,.63-1,.52.52,0,0,0-.15-.07A56.76,56.76,0,0,0,54.36,73.5Z"/>
    <path id="f65c1318-a74f-4821-8f5c-b49e50915b5a" data-name="path5264-9" d="M87.38,109c3.06-1.5,6.85-7.25,6.82-14.38a38.77,38.77,0,0,0-1-16,5.77,5.77,0,0,0-1.71-3.33C96,66.37,94.78,58.68,92,53.19c1.47-24-13-31.59-31.17-31.45-3.62-.76-6.32-.34-9.67-.16C36,20.74,14.77,32.16,20.73,51.86c-2.15,5-2.85,16-.13,22.32-2.61.91-3.07,3.51-3.17,4.64-.3,3.64-.33,8.15-.66,12.11-2.71,5.75-1.28,14.95,3.77,16.58,14,4.74,58.19,6.66,66.84,1.5Z" style="fill: #f6dddd"/>
    <path id="ae2216a1-d33a-49c7-9a23-03de7eb1cee0" data-name="path5268-6" d="M56,48.84a48.33,48.33,0,0,0-10.84,1.37,41,41,0,0,0-4.46,1.33A7.16,7.16,0,0,0,38.07,53a.59.59,0,0,0-.12.84.6.6,0,0,0,.84.11.53.53,0,0,0,.13-.13,8,8,0,0,1,2.21-1.11,35,35,0,0,1,4.31-1.26A47,47,0,0,1,56,50c6.51,0,14.43,3.23,16.84,4.39a.61.61,0,0,0,.81-.25.59.59,0,0,0-.24-.81l-.06,0C70.8,52.12,62.9,48.89,56,48.84Z" style="fill: #520"/>
    <path id="bdbae504-f034-4ea3-ae39-539d9dab1ae8" data-name="path5270-9" d="M57.93,18c-3.83-1.6-8.76,1.92-5.44,7.19.82,2,0,2.36-.72,3.34,2.82,2.23,6.06-1.13,6.8-3.17C61.76,23.85,61.3,19.43,57.93,18Z" style="fill: #7a0a09"/>
    <path id="e1d501db-fd9b-4ea7-add4-13c3dff1fb71" data-name="path7977" d="M28.59,82.63c-1.84-4.55.09-13.65,7.81-16,1.13-7.8,9.67-5.75,14-8.46,12.4.82-1.17,12.76-.42,15.21-.05,4.77,3.87,2.08,5.78,4.09,2.3,2.43-3.62,8.24-5.15,8.7C44.24,88.41,28.34,91.72,28.59,82.63Z" style="fill: #891615"/>
    <path id="ebf65b8a-ce2f-4108-b664-f81ddb4e1c73" data-name="path7979" d="M71.46,41.57c-1.81,1.82-6.9.9-6.71-6.08-4.9-5.25,6.15-8,7.47-3.72,5.18.84,7.52,4.61,3.74,7,1,3.79-1,4.68-4.5,2.82Z" style="fill: #891615"/>
    <path id="acc1fe97-2b55-434b-848b-fb560e949903" data-name="path4988-8" d="M22.35,119.42c-6.57-11,5-23.34,5.14-28,.56-4.08,3.1-6.23,4.21-9.47,8.33-2.9,17.32-3,21.93-.84a25.16,25.16,0,0,1,7.19-1c5.6,0,9.39,16.38,7.38,28.92C61.25,114,25.26,125.77,22.35,119.42Z" style="fill: #ffe3e3"/>
    <path id="aa10bdeb-6e69-47cd-a67b-5b0cc4bdd719" data-name="path5000-5" d="M80.92,92.57c-.17,4.85,11.16,17.42,3.71,28.16-3.48,5.19-15.67-11-24.26-14.1-4-2.25-2.27-7.34.49-8.18a9.17,9.17,0,0,1,1.76-6.29c-.89-2.75-1.74-7.35-.29-8.72a18.83,18.83,0,0,1-1.77-3.13A42.4,42.4,0,0,1,79.2,84c1.74,2.78,1.73,5.2,1.72,8.58Z" style="fill: #a21614"/>
    <path id="b505c370-052a-471b-9d46-798ccb057a86" data-name="path5016-4" d="M43.37,104.36c-1-3.39-3.61-4-5.88-1.7-1.37,1.41-2.6,3.3-1.74,4.16C38.53,109.44,42.09,106.49,43.37,104.36Z" style="fill: #f60"/>
    <path id="a8625145-df4a-4736-800d-2988529ee90c" data-name="path5018-3" d="M37.81,104.77c.53,2.34,4.25,1.22,3-.92C39.85,102.14,37.54,103.62,37.81,104.77Z"/>
    <path id="eb08ee94-d6a7-4918-8e7a-7a9d1cc69dfe" data-name="path5016-3-3" d="M63.58,104c1.23-3.33,3.83-3.85,6-1.38,1.28,1.49,2.42,3.45,1.51,4.25C71.38,110.08,62.25,107.11,63.58,104Z" style="fill: #f60"/>
    <path id="a8b91788-47f9-46d2-adfd-9a3dc1416657" data-name="path5018-6-8" d="M69.11,104.75c-.66,2.31-4.31,1-3-1.08C67.22,102,69.44,103.62,69.11,104.75Z"/>
    <path id="a4227d71-5272-4777-b758-8d0b8bceb563" data-name="path5051-6" d="M74.47,134.76c-3.17,5.2-7.3,7.21-11.56,7-1.2,4-17.23,4.53-19.34-.19-3.59-.26-7.58-2.87-10.65-7.7,0-2.53.11-3,.18-5.82,9.72-5,35.22.18,41.72.88,1.13,2.69.7,3.68-.35,5.81Z" style="fill: #b6a6a6"/>
    <path id="a75c59ce-ff84-4e28-ada7-b8dafed302fb" data-name="path5067-7" d="M65.26,130.17c-.9.15-4.8,2.81-8.11,3.32,1.17-2,2.44-6.88,1.59-8.23C60.06,126.3,63.53,129.66,65.26,130.17Z"/>
    <path id="b286a658-2472-4510-90a7-e7583e38efc7" data-name="path5069-7" d="M46.63,125.74a36.85,36.85,0,0,1-5.4,4.46c1.15,1.27,5.54,2.74,6.29,3C46.61,132.11,46.72,127.63,46.63,125.74Z"/>
    <path id="a133f9f8-f8cb-4d15-ad06-bcd218984553" data-name="path5065-9" d="M46.22,127.17c-.95,3.9.64,9.65,6.4,9.84,5.45.18,7.5-7,6.73-10.16C62.06,112.87,44.42,114.21,46.22,127.17Z" style="fill: #d62198"/>
    <path id="ac4df51a-b35d-40a7-ae4d-0a10b123e4ef" data-name="path4994-9" d="M81,115.53c-7.83-8.8-14.73-11.73-28.28-12S32,109.08,27.27,113.82c-10,10-7.89,23.48-2.35,22.88,6.91-.74,21.78-6.58,27.8-18.15,6.81,11.36,21.55,18.3,28.92,19,5.15.5,7.72-12.63-.64-22Z" style="fill: #dabebe"/>
    <path id="ebbd58bd-4c67-43ca-9036-e01d59fc27e7" data-name="path5063-8" d="M57.47,105a.6.6,0,1,0-.13,1.19c2.22.49,4.26,2.5,5.47,3.81a.61.61,0,0,0,.83.17.59.59,0,0,0,.17-.83.45.45,0,0,0-.13-.15c-1.23-1.33-3.36-3.56-6.08-4.16a.31.31,0,0,0-.13,0Z" style="fill: #333"/>
    <path id="bdadd629-0f40-48bb-9d84-4000c8a6f74d" data-name="path5002-3" d="M39.28,97.35a7.85,7.85,0,0,0-6.1,1.7c-1.61,1.47-2.56,3.9-2.66,7.48a.6.6,0,0,0,.57.63.61.61,0,0,0,.63-.58h0c.09-3.39,1-5.44,2.26-6.62a6.69,6.69,0,0,1,5.21-1.41c4.25.33,9.65,2.92,13.67,5.11a.6.6,0,0,0,.58-1.06h0C49.37,100.38,43.92,97.7,39.28,97.35Z" style="fill: #520"/>
    <path id="e93f0e9a-453b-4a1d-a5e4-24e6416707e1" data-name="path5004-8" d="M67,98.31a26.19,26.19,0,0,0-9.14.72c-2.73.75-4.94,2-5.64,3.87a.61.61,0,0,0,.37.78.6.6,0,0,0,.77-.37h0c.46-1.25,2.27-2.41,4.81-3.12a25.24,25.24,0,0,1,8.73-.68c3,.28,5.69,1.12,7.33,2.47s2.33,3.1,1.29,5.76a.61.61,0,0,0,.33.79.6.6,0,0,0,.79-.33A6,6,0,0,0,75,101.05C73.09,99.44,70.15,98.61,67,98.31Z" style="fill: #520"/>
    <path id="bc315c15-a2dc-4370-8e4d-d00337507566" data-name="path5006-8" d="M45.36,91.51a11.3,11.3,0,0,0-7.1,1,.6.6,0,0,0,.51,1.09l.11-.07a10.56,10.56,0,0,1,6.32-.85,9.2,9.2,0,0,1,6.67,4.08A.6.6,0,0,0,53,96.28l-.07-.11A10.52,10.52,0,0,0,45.36,91.51Z" style="fill: #520"/>
    <path id="a8a128c8-b73c-41ef-8883-effec10cc1ee" data-name="path5008-3" d="M61.81,91.71a9.67,9.67,0,0,0-4.24.76,12.15,12.15,0,0,0-5,4,.6.6,0,0,0,.91.79.76.76,0,0,0,.08-.11A11,11,0,0,1,58,93.58a8.79,8.79,0,0,1,8.23.78.6.6,0,0,0,.67-1l-.07,0A11.05,11.05,0,0,0,61.81,91.71Z" style="fill: #520"/>
    <path id="eae0cbe0-87c2-4703-8656-4979b58a648c" data-name="path5010-1" d="M44.67,82.24a.6.6,0,0,0-.62.58.55.55,0,0,0,0,.18c.5,2,2.82,4.35,7.27,4.8a.6.6,0,1,0,.13-1.2h0c-4.06-.41-5.91-2.61-6.24-3.9A.6.6,0,0,0,44.67,82.24Z" style="fill: #520"/>
    <path id="ed6031ed-eb0e-4e4b-9d2d-9891ed105cae" data-name="path5012-8" d="M52.59,88.68a.61.61,0,0,0-.46.59c-.08,2.74.3,5.14.23,7.74v0c-.25,2.26,0,3.88-.25,5.74a.6.6,0,0,0,.51.68.61.61,0,0,0,.68-.52c.28-2.06,0-3.69.26-5.82v0c.08-2.76-.31-5.17-.23-7.79a.6.6,0,0,0-.57-.63Z" style="fill: #520"/>
    <path id="e1ea4f7a-9731-437b-9f88-ceb6762f3b5f" data-name="path5014-9" d="M52.87,109.6a.6.6,0,0,0-.52.61c0,2.53-.36,5.06-.23,8.5a.6.6,0,0,0,1.2,0h0c-.13-3.32.27-5.81.23-8.47a.6.6,0,0,0-.6-.6Z" style="fill: #333"/>
    <path id="edf8d3bd-91ce-4f73-827a-230fd5b46fe5" data-name="path5059-8" d="M60.52,83.35l-.15,0a4.25,4.25,0,0,0-1.4.87c-.48.39-1,.87-1.52,1.3A11.64,11.64,0,0,1,56,86.68a1.37,1.37,0,0,1-.73.25.61.61,0,0,0-.76.38.6.6,0,0,0,.38.76,2,2,0,0,0,1.71-.38,11.38,11.38,0,0,0,1.61-1.2c.53-.46,1.06-.94,1.51-1.31a4.71,4.71,0,0,1,1-.65.6.6,0,0,0-.19-1.18Z" style="fill: #520"/>
    <path id="e8d306a9-ec7e-42f5-8535-d9ff60092a90" data-name="path5061-8" d="M47.44,105.27a.62.62,0,0,0-.23.07,12.54,12.54,0,0,0-4.58,4.6.6.6,0,1,0,.91.79.41.41,0,0,0,.07-.11,11.36,11.36,0,0,1,4.15-4.21.61.61,0,0,0,.26-.81.6.6,0,0,0-.58-.33Z" style="fill: #333"/>
    <path id="fff6f3ef-c72e-4115-9214-6590ab34d08d" data-name="path5075-6" d="M39.45,112.86c-1.12,0-.94,1.37,0,1.45C40.65,114.41,40.71,112.91,39.45,112.86Z" style="fill: #1a1a1a"/>
    <path id="a5ef4606-3838-4aec-afce-356caff05a33" data-name="path5075-7-4" d="M35.38,115.4c-1.12-.05-.94,1.37,0,1.45C36.58,117,36.64,115.45,35.38,115.4Z" style="fill: #1a1a1a"/>
    <path id="a5f28496-3a9e-497d-b2b9-7c99d635cd7e" data-name="path5075-5-3" d="M39.56,117.31c-1.12,0-.94,1.37,0,1.45C40.76,118.86,40.82,117.36,39.56,117.31Z" style="fill: #1a1a1a"/>
    <path id="be708bcc-5955-40b4-930d-c17f2a0a8b41" data-name="path5075-7-3-0" d="M35.49,119.85c-1.12,0-.94,1.37,0,1.45C36.69,121.4,36.75,119.91,35.49,119.85Z" style="fill: #1a1a1a"/>
    <path id="a4f03288-01a8-4352-a958-e30ff535d8c1" data-name="path5075-56-3" d="M66.28,113.59c1.12,0,.86,1.42,0,1.45C65,115.07,65,113.57,66.28,113.59Z" style="fill: #1a1a1a"/>
    <path id="e433ec98-2635-4d9c-ac2b-72ccbfbe82b0" data-name="path5075-7-2-0" d="M70.2,116.35c1.12,0,.86,1.42,0,1.45C68.92,117.83,68.94,116.33,70.2,116.35Z" style="fill: #1a1a1a"/>
    <path id="e92b5b29-2a65-4e68-82ce-42af6f969e3e" data-name="path5075-5-9-9" d="M65.92,118c1.13,0,.87,1.42,0,1.45C64.64,119.51,64.66,118,65.92,118Z" style="fill: #1a1a1a"/>
    <path id="b231cb39-9183-4807-aa79-56c20425d422" data-name="path5075-7-3-1-2" d="M69.85,120.79c1.12,0,.86,1.42,0,1.45C68.56,122.27,68.59,120.77,69.85,120.79Z" style="fill: #1a1a1a"/>
    <path id="f01247ba-7595-40f7-8b91-54d778749d8a" data-name="path4984-4" d="M31.69,81.87c-2.21.37-3.77-1.16-8.2-2.77-5.72-1.71-8,2.35-12.34.78-3.75-.65-4.17.23-6.21,1.51,1.32,4.53,2,5.08,5.43,6.31,3.36,2.47,4.8,3.49,8.86,3.61,3.21,4,5.44,1,8.18.22,3.05-3.66,6.32-4,4.28-9.66Z" style="fill: #edd1d1"/>
    <path id="a2419fff-585f-40ff-87b2-69b9b7964428" data-name="path4986-1" d="M79.11,84.11c2.57.47,8.25-2.1,12.31-4.66,4.36-1.45,5.78.47,7.79,1.9,4,2,5.51,1.23,7.22,2.43-1.4,4.79-6.9,6-8.6,7a19.32,19.32,0,0,1-5.16,4.34c-5.13,1.13-7-2.46-11.9-2.6-2.91-2.08-3.19-4.73-1.66-8.46Z" style="fill: #7a0a09"/>
    <path id="e10eac77-546e-4df0-9b7c-2cf28ef2fd39" data-name="path7558" d="M24.65,89.54c-2.19,1.78-3.58-.05-4.45-1.45-2.38-.34-3.92-.32-5-2-7.64-.18-4-4.82,1.39-2.87,3.12-1.46,4.25-.41,6.6.45,4.8-.23,5.45,3.58,1.42,5.85Z" style="fill: #c69090"/>
    <path id="eb9fea43-aa4d-4cd7-bb58-67f74fe76a32" data-name="path7560" d="M83.05,88.76c.7-1.09,5.28,1.92,7.06,2.57a10,10,0,0,1,4.29-2c1.14-2.31,3.26-2.59,4.34-4.11,1.15-1.83-.46-2.65-2.06-2.17-2.74-.65-4.14.38-5.83.9-1.67,3.83-4.93,1.58-7.73,2.43C82.37,87.72,82.41,87.39,83.05,88.76Z" style="fill: #b83131"/>
    <path id="a901bcca-22d9-4eb6-8e1d-903f301ad310" data-name="path4992-5" d="M53,110.77c-6.25.09-9.17-7.15-.46-7.18C62.54,103.55,58.36,110.69,53,110.77Z"/>
  </g>
</svg>
