<svg id="a23d298b-3c32-4ca3-8efa-ff05fa4687f1" data-name="set" xmlns="http://www.w3.org/2000/svg" viewBox="0 0 185.57 208.68">
  <g>
    <path d="M126.14,134.49c3.18,5.49,17.52,20.68,27.73,28.59,5.06,5.31,7.06,15.2,8.46,22.46,0,1.76-.54,2.48-1.24,4-1.33,3-7.33.41-6.58,8.92.22,2.59,4.89,1.65,7.15,1.18,2.88-.74,4.55-3.17,6.56-5.19,24.64-27.18-41.29-79-42.08-60Zm0,0" style="fill: #999"/>
    <path d="M146.66,84.52c2.2-1.35,10.44-9.32,14.19-17.07,2.29-4.75,2.18-12,1.33-19.49,1.39-.6,6-.48,8.66-.91,1.75,10.44,2.39,20.86.48,26.26-2.94,8.34-6.73,12.26-12.19,19.56-5.07,1.8-11.84-4.24-12.47-8.35Zm0,0" style="fill: #151515"/>
    <path d="M31.13,92c-2.42,7.56-5.25,28.56-.61,35a21.11,21.11,0,0,0,9,10.64c-.14,13.25,3.55,32.11,5.34,46.2-.46,2.81.11,1.05-1.14,3.54-2.36,3.91-6.9,2-6.11,9.94.71,3.13,5.36,2.85,9.79,2.16,4.14-.53,4.73-5.94,6.23-9,4.39,2.25,2.2-17.87,2-21.75-.38-7.24.25-15.4-1-22.58,1.14.1,1.31.47,2.21.87,1,5.71,1,11.74,1.59,15.4,1.18,7.66,2,16.52,2.42,23.29a5.22,5.22,0,0,1-1.31,4.3c-2.31,2.8-5.19,2.89-5.19,9.23.35,4.37,9.7,4,12.48,1.81,3.23-1.69,3.15-5.41,5.59-10.41,4.49,2.54.41-8,1.55-29.42.18-3.5.7-7.56,1.22-11.11a27.81,27.81,0,0,0,9.36,1.07c21.23-2,27.7-18.9,51.22-17.33,7.74,9.45,18.9,19.75,25.7,30.68a68,68,0,0,0,4,7.76c1.56,3.6,3.35,13.13,3.35,16.85-.91,1.72-.32,1.29-1.56,3-2,2.13-6.64,1.61-4.67,8.84.68,2.48,8.63,1.77,11.91.68,3-.38,5.36-7.45,5.36-10.14.29-5.36-2.65-21.91-2.71-27.46-.08-7.84-10.9-13.2-11.88-20.9-.78-6.06,1.29-19.25-.13-31.85C125.29,92.9,88,100.14,60.09,78c-6.64-5.3-13.39-11.56-20.74-4.2-4.11,4.11-4.29,13-8.22,18.19Zm0,0" style="fill: #e4e4e4"/>
    <path d="M162.33,49.31c-1.43-14.13-5.84-29.8-1.92-32.39,2.66-1.76,8.08,15.15,10.65,31.48-2.5,2.06-5.58.28-8.73.91Zm0,0" style="fill: #e2e2e2"/>
    <path d="M60.13,77.53c-.64,2,6.21,10.31,8.62,15.14,3.67,7.33-13.5,42,.92,48.6,8.16,3.76,4.82-1.56,17.85-1.69,11.4-.11,34-17,42.64-14.31,12.18,3.74,22.28,9.91,26.6,8.91,7.94-3.44,7.76-11.12,7.76-18.53.53-1.49.53-2.1.88-3.31-.53-6.18-1.87-12.16-4.73-17.17-21.32-23.36-76.91,9-83.53-14.76-3.34-4-6.83-9.75-11.52-9.75-1.66,3.89-4,3.07-5.49,6.87Zm0,0" style="fill: #b66114"/>
    <path d="M31.4,73.75c-.5,4.16-1.07,14.11-.27,18.24,7.06-3.35,15.08-19.75.27-18.24Zm0,0" style="fill: #b66114"/>
    <path d="M40.64,85.89c.7,1.68,4.38,2.38,6.79,2.19s6,.38,7.11-2.08c2.35-6.55-14.2-6.63-13.9-.11Zm0,0" style="fill: #b3b3b3"/>
    <path d="M59.26,80.3a29.89,29.89,0,0,0,2.32-5,11.92,11.92,0,0,0,4.8-5.21c8.07-7,5.09-25.44-3.79-28.73-1.47-3.42-11-5.22-15.6-5.34S33.11,37.7,31.61,41.31c-9,5.65-11.89,18.2-3,28.39,1.07,2.57,2.52,4.79,4.51,6A31.11,31.11,0,0,0,35.52,81c9-.8,16.25.15,23.74-.71Zm0,0" style="fill: #cb6f1c"/>
    <path d="M38.82,58.21c.18-4.73-6.94-4.69-6.34.81.27,2.56,6.17,3.43,6.34-.81Zm0,0" style="fill: #ff9f5d"/>
    <path d="M35.22,56.16c-2.33.23-2.49,3.73.46,3.9,2.56.14,2.6-4.22-.46-3.9Zm0,0"/>
    <path d="M54.45,58.61c-.21-5,6.66-6,6.46.19-.08,2.56-6.32,3.28-6.46-.19Zm0,0" style="fill: #ff9f5d"/>
    <path d="M58.07,56c2.32.24,2.48,3.75-.47,3.91C55,60,55,55.65,58.07,56Zm0,0"/>
    <path d="M72.39,74.75C70.16,76.08,70.59,84,74.61,88c5.88,5.89-9.84,37-1.79,44.55,11.4,10.66,28.28-8.5,41.19-11.55,6.1-1.44,22.34-13,28.3-18.72,7.46-7.17,13.14-5.65,19-6a24.3,24.3,0,0,0-19-13.56c-19-1.82-40.27,4-57.71,1.85-3.4-.41-4.77-3-7.7-4.6-1.92-1.92-2.31-3.2-4.5-5.17Zm0,0" style="fill: #1a1a1a"/>
    <path d="M27.77,39.09C16.79,42.48,7.36,52.7,7.16,58.8c-.13,4.13,6.11,7.82,7.31,16,1.15,7.85,10.29,8.94,13.46.18,1.46-4-.63-12.86-2.43-16.69,1.66-4.09,3.6-11.61,6.2-17a4.91,4.91,0,0,0-3.93-2.21Zm0,0" style="fill: #79461a"/>
    <path d="M66.57,39.33c11.19,3.39,20.81,13.61,21,19.71.14,4.14-6.23,7.83-7.44,16C79,82.87,69.64,84,66.4,75.19c-1.49-4,.64-12.85,2.48-16.69-1.7-4.09-3.64-11.91-6.31-17.1a5.22,5.22,0,0,1,4-2.07Zm0,0" style="fill: #79461a"/>
    <path d="M58,77.23c1.11,3.07,2.55,7.18.66,8.54-3.08,2.19-7.8-2.3-11.2-2.4s-7.9,4.39-11,2.19c-1.89-1.35-.45-5.47.66-8.54.47-4.48.85-11.26,7.48-13.27,1.13-2,.33-5.89,2.27-9.76,2,3.1,1.67,7.54,2.43,9.68,7.5,2,7.36,7.6,8.68,13.56Zm0,0" style="fill: #ececec"/>
    <path d="M47.19,72.55c-7.32.17-5.54,7.29.32,7.23s7-7.4-.32-7.23Zm0,0"/>
    <path d="M47.34,78.71a.64.64,0,0,0-.55.63v3.28a.61.61,0,1,0,1.21,0V79.34a.65.65,0,0,0-.66-.63Zm0,0"/>
  </g>
</svg>
