<svg id="b234388c-0a67-49f5-b0dd-9db7320c5648" data-name="set" xmlns="http://www.w3.org/2000/svg" viewBox="0 0 137.91 184.61">
  <g>
    <path d="M72,100.08c-1.21,1.61,10.18,1.11,12.35,1.11,11.17,0,15.08,3.89,23.77,8.23,2.36,1.18,2,5.59,5.06,5.86,1.7-2.26.63-5.11-.08-5.54,2.06,1.38,2.65,4.18,2.78,7,2.35-3.13.33-8.89-3.65-9.82,2.65,2,5.77,3.27,6.34,7.6,1.83-3.67-.33-7.77-4-9.67,3.07,0,5.85,4,6.33,7,.47-4.88-2.43-9.58-6-9.5,1.55-1.19,2-3.69,1-4.44,0,1.71-.87,2.71-2.38,3.64,2.42-1.81,3.5-7.45-.32-8.55,1.39,1.85.09,4.21-2.06,4.91,2.15-2.87.85-7.28-2.37-9.19a3.41,3.41,0,0,1-.79,4.75c0-3-3.21-5.9-6.66-6.49,1.59,1.19,3.57,3.34,2.38,5.7-2.27-1.7-2.75-5.44-7.52-5.86,1.11.3,3.48,2.91,2.77,4.75-1.6-2.13-6.44-5.16-8.48-5.38.88,1,3.49,3.1,3.73,5.54-2.64-3.51-6.5-4.92-11.41-4.44,3.85,0,5.85,1.65,7,4.76-3.2-2.4-7-3.73-10.22-1.51a6.27,6.27,0,0,1,6.58,3.41c-3.6-1.8-7.41-3.25-10.77,1.11.92-.69,4.16-2.53,5.54-.16-3.24,0-5.25.1-7,3,.93-.69,3.62-1.86,5.39-.63-3.07-.62-6.82,2.16-7.29,2.85Zm0,0" style="fill: #e4e4e4"/>
    <path d="M43.91,175.07c5.87-5.6,5.58-20.25,2.89-29.41-1.6-3.19-6.72-5.37-11.65-3.75-.3,1.83-1,3.3,0,5.15-1,1.92-1,3.09,0,4.33-1.16,2.09-1.37,3.73-.43,5.56a3.49,3.49,0,0,0,.22,4.12c-.55,1.94-.57,3.05.42,4.32-1.69,1.44-1.43,2.84-.42,4.12-1.43,2-.25,3.18.64,4.33-.67,2.41,1.87,1.15,2.56.82,1,1.32,1.83.77,2.57.41a2.89,2.89,0,0,0,3.2,0Zm0,0" style="fill: #999"/>
    <path d="M24.38,119.69a13.76,13.76,0,0,0,3.33-1.38c4-2,13.9.72,18.5-1.58C55.72,112,63.59,105.47,71.44,100c3.89,1.53,13.5-.51,22.43-.56,3.43,0,7.63.57,10,1.83a22,22,0,0,1,5.35,4.08,5.45,5.45,0,0,1,1.87,6c1.74,1,2.3,3.73,2.19,6.65,1.18,2.63,2,3.1,1.57,6.65,1,2.27,1.58,3.11.63,6.3,1.38,2.06,1.62,3,.31,5.95,2.21,1.85,1.52,4.23.85,6.35a3.26,3.26,0,0,1,1.21,4.44c2.2-.41,3.12,1.13,3.27,2.62,2.19.06,3.06,1.59,2.51,3.39,2.26.48,3,2.3,3.45,4.9,1.81,1.33,1.2,3.27-.31,4.55,1.26,1.93.67,3.29-.63,4.21a3.25,3.25,0,0,1-1.73,4.72c1.24,1.58-.5,4.19-2.21,4a2.08,2.08,0,0,1-3.72.06,2.51,2.51,0,0,1-3.63-2.13c-1.15-.26-3-.55-3.14-3.85-1.45-.81-2-1.81-2.82-4.21-1.86-1-2.58-1-2.82-3.84l-1.57-2.63c-2.18-1.4-3-2.08-2.82-5.08-2.33-1.3-2.6-2.84-4.08-5.95a5.4,5.4,0,0,1-2.51-4.55c-1.51-1.27-1.75-2.82-2.68-5.36-9.71.52-17.36,9.84-28.5,7.83a5.92,5.92,0,0,1-1.25,2c.71.91.42,3-.21,4.74.86,1.67.39,3.23-.65,4.74.8,1.52.06,2.86-.85,4.33a3.68,3.68,0,0,1-.86,4.53c.89,1.71.54,2.65-.42,4.32a4.66,4.66,0,0,1-.86,3.3c.29,1.36.81,1.43-1.06,2.67-1,.72-1.54,1.35-3.21.21-1.14.82-2.33.81-4.06-.21-1.21.59-1.92,1-3.63-.41-1,.2-1.85.26-2.35-1.23a2.94,2.94,0,0,1,0-3.5,4.52,4.52,0,0,1-.43-4.95,6.38,6.38,0,0,1,.21-4.53A7.43,7.43,0,0,1,44.1,158c-.6-1.15-1.32-2.23-.43-4.12a7.87,7.87,0,0,1,.64-5.56,8.37,8.37,0,0,1-.8-2.92c-2.26.44-3.23,0-4.87-1.33-2,.42-2.35-.47-3.49-2.44-2.41-.5-3.48-1.93-3.2-4.62-2-.36-3.14-3.17-2.14-5.29-2.23-.46-4.15-3.71-3.23-6.27a5.74,5.74,0,0,1-2.2-5.77Zm0,0" style="fill: #ececec"/>
    <path d="M28.58,104.05a.37.37,0,0,1,.41.47A7,7,0,0,0,30.82,111a.36.36,0,0,1-.49.54,7.64,7.64,0,0,1-2-7.18.37.37,0,0,1,.29-.26Zm0,0"/>
    <path d="M30.6,105.44a.39.39,0,0,1,.45.43,6.4,6.4,0,0,0,2.75,6.32.39.39,0,0,1,.09.51.4.4,0,0,1-.52.08,7.06,7.06,0,0,1-3-7.07.34.34,0,0,1,.25-.27Zm0,0"/>
    <path d="M33.86,104.29a.38.38,0,0,1,.39.58,4.84,4.84,0,0,0-1.09,3,4.92,4.92,0,0,0,1.2,2.87.39.39,0,0,1,0,.54.38.38,0,0,1-.53-.1,5.66,5.66,0,0,1-1.34-3.27,5.58,5.58,0,0,1,1.22-3.49.37.37,0,0,1,.2-.15Zm0,0"/>
    <path d="M51,104.1a.38.38,0,0,1,.39.29,7.61,7.61,0,0,1-2,7.16.37.37,0,0,1-.5-.54,7,7,0,0,0,1.83-6.43.38.38,0,0,1,.31-.48Zm0,0"/>
    <path d="M48.93,105.5a.37.37,0,0,1,.43.27,7.08,7.08,0,0,1-3,7.07.36.36,0,0,1-.41-.6A6.36,6.36,0,0,0,48.66,106a.39.39,0,0,1,.27-.46Zm0,0"/>
    <path d="M26.81,119.52c10.13.25,16.46.83,24.56.2.36,1,3.77.69,4.16-.81,2.87.14,4.95-1.45,4.3-3.76,2.4.06,4.1-1.47,4-3.5,2.4-1.25,3-2.21,3-4.3,3.17-1.22,4.16-2.81,3.36-5.64,2-1.23,1.68-4,.67-5.38,2.44-.82,2.61-5.93,0-6.45,2.9-2.15,1.49-5.94,0-5.92,1.22-2.81.54-5.1-1.62-6.18.55-2.49-.53-3.66-2.41-4,.65-2.65-.64-3.09-2.69-3.5-.25-2.85-1.27-4.57-4-4.57-.82-2.56-2-3-4.84-3C55.2,60.4,53.84,59,51.5,59.5c-1.31-1.54-2.65-2.17-4.84-1.08-.83-1.75-2.74-2.32-5-1.21-.53-1.38-4-2-4.68-.43a3.36,3.36,0,0,0-5.22,1.71c-2-2.31-4.71-1.12-4.58.81-2.34-.47-4.77,0-4.56,3-2.88,0-4,.4-4.84,3-2.77,0-3.79,1.73-4,4.57-2,.41-3.34.85-2.69,3.5-1.88.37-3,1.54-2.41,4-2.16,1.08-2.85,3.37-1.62,6.18-1.63.79-2.9,3.77,0,5.92-2.34.66-2.57,5.63,0,6.45a4.25,4.25,0,0,0,.68,5.91c-1.08,3,1.25,4.7,3.35,5.11a2.9,2.9,0,0,0,3,4.3c0,2.73,2.47,4.39,4.84,4.31-1.18,1.63,1.84,4,3.5,3a3.47,3.47,0,0,0,4.43,1.08Zm0,0" style="fill: #f2f2f2"/>
    <path d="M51.5,114.34c5.41-5.28-3.65-15-11.19-15.12-10.89-.21-16.56,9.89-13.9,14.65a3.6,3.6,0,0,0,1.07,5.92c1,2.28,3.15,2.55,5.11,1.88.7,1.51,2.87,1.79,4.28.91,1.48,1.36,3.21,1.18,4.14-.17a3.88,3.88,0,0,0,5.11-.67,2.86,2.86,0,0,0,4.3-1.48,3.59,3.59,0,0,0,1.08-5.92Zm0,0" style="fill: #f9f1d5"/>
    <path d="M50.6,96.6c-1.87.67-8.33-.3-11.32-.16-3.22.15-9.13,1.15-11.17.82a2.06,2.06,0,0,0-.69-2.84c.64-.68,1-3-.53-3.67,1.24-.17,1.8-.58,1.91-1.63.88,1.29,3.59,1,4,.4-.64,1.14,1.46,2.41,2.91,1.23,0,2,3.38,2.16,3.57,1.06.18,1,3.52.92,3.56-1.11,1.45,1.18,3.55-.09,2.92-1.23.41.63,3.11.89,4-.41.12,1.06.68,1.47,1.92,1.64-1.53.63-1.17,3-.53,3.67-.75.5-1.3,1.1-.54,2.23Zm0,0" style="fill: #ddd0d0"/>
    <path d="M30.63,90.74c3.1,0,3.33,4.46-.33,4.08-2.26-.23-2.63-4.1.33-4.08Zm0,0"/>
    <path d="M47.76,90.51c-3.1,0-3.33,4.45.33,4.07,2.26-.23,2.62-4.1-.33-4.07Zm0,0"/>
    <path d="M51,110.59a4.22,4.22,0,0,0,.92-3.22c-.81,1.62-1.25,3.41-2.85,4.72A7.66,7.66,0,0,0,50.1,108c-1,2.07-.82,4.12-3.84,4.52a7.23,7.23,0,0,0,1.58-3.83c-.51,1-.89,2.08-2.2,2.4,1.59-2,1.76-4.07-.27-6.59a4.1,4.1,0,0,1-5.41.74,4.06,4.06,0,0,1-4.43-.49c-1.56.78-1.76,4.64-.49,6.79-2.16-.43-2.13-2.35-3.05-4.13,0,2.22,1.13,3.74,2.07,5.51-2.16-.87-2.65-3-3.94-5.12-.33,1.66.56,2.95,1.38,4.23-2.24,0-2.94-2.76-3.64-4.92-.25,1.26.35,2.32.9,3.45C21.3,102.31,30.12,92.06,36.37,95a17.16,17.16,0,0,1,6.86,0c6.36-2.83,15.17,7.42,7.72,15.63Zm0,0" style="fill: #e4e4e4"/>
    <path d="M39.78,99.83c3.91-.12,3.14,4.35.12,4.31s-4-4.19-.12-4.31Zm0,0"/>
    <path d="M39.82,103.76a.39.39,0,0,1,.48.34v1a.36.36,0,1,1-.72,0v-1a.36.36,0,0,1,.24-.34Zm0,0"/>
    <path d="M35.92,105.14c.82.32,1.26,1.14,2.27.75.79-.16,1.05-.63,1.87-1,.79.4,1.86.33,2.66,1a2.44,2.44,0,0,0,1.43-.61c-.23,1.36-1,2.07-1.57,2a31.91,31.91,0,0,1-4.63,0,2.3,2.3,0,0,1-2-2.09Zm0,0" style="fill: #1a1a1a"/>
    <path d="M42.41,105.82c-1.08-.31-1.29-.92-2.35-.92a8.21,8.21,0,0,0-2,1c-.54,1.7-.07,4.61,2.3,4.71s2.53-3,2.08-4.78Zm0,0" style="fill: #ea2151"/>
    <path d="M40,105a.34.34,0,0,1,.39.35l-.06,3.16a.34.34,0,0,1-.33.34.35.35,0,0,1-.33-.34l.06-3.18A.34.34,0,0,1,40,105Zm0,0" style="fill: #bd003a"/>
    <path d="M35.65,104.48a.37.37,0,0,1,.31.14c.78.91,1.3.93,1.89.8a12.73,12.73,0,0,1,2.06-.62,7.44,7.44,0,0,1,2.4.62,1.72,1.72,0,0,0,.89,0,1,1,0,0,0,.63-.63.36.36,0,1,1,.66.3,1.76,1.76,0,0,1-1.07,1,2.27,2.27,0,0,1-1.29,0,10,10,0,0,0-2.16-.57c-.55,0-1.19.42-2,.59a2.57,2.57,0,0,1-2.59-1,.38.38,0,0,1,.23-.61Zm0,0"/>
  </g>
</svg>
