<svg id="ed46cb8c-e6f2-491f-92f7-adddb7c1204c" data-name="set" xmlns="http://www.w3.org/2000/svg" viewBox="0 0 238.9 286.81">
  <g>
    <path d="M25.63,195.81c4.41-6.57,36.05-1.32,28.1,61.87-5.23,5.22-8.42,8.74-15.45,12-4,.37-10.43,1.62-11.17-2.47-1.49-8.13,9-7.28,12.73-9.38a127.11,127.11,0,0,0-6.08-29.68c-2.95-9.17-6.45-18.2-8.13-32.37Zm0,0" style="fill: #985122"/>
    <path d="M174.11,212.3c-6.63-22.37-33.23-24.74-38.55-2.05,2.55,10,15.69,21.37,41,26.15,1.42,2.15,1,3.52,1.86,6.41-1.73,1.3-7.94,9.18-13.68,13.2-1.9,3.57-14.62-4-12,9.83,1.91,1.68,6.82,1.6,13.13,1,3.61-.36,9.69-3.34,11.43-6,6.21-6.21,20.49-16.13,18.69-23.46-2.44-9.87-14.3-8.61-21.82-25.07Zm0,0" style="fill: #985122"/>
    <path d="M187.51,150.77c-8.15,18.95.94,57.36,26.91,54.29-3.81-18-11-40.76-26.91-54.29Zm0,0"/>
    <path d="M216.4,226c-4.46-9.12-19.78-25.36-26.53-9.5,1.81,8.78,8.28,24.61,14.77,30.93-.7-2.15.18-4.22.23-6.58.81,4.87,5,14.82,13.37,19a17.86,17.86,0,0,0-1.13-4.08c2.44,2.2,8.26,6.27,11.56,5.67C218.7,246.33,218,234.23,216.4,226Zm0,0" style="fill: #b5773f"/>
    <path d="M217.56,227.51c-1.76-3.61-7.95-10.7-11.93-13.3-.45,1.92-3.68,3.14.89,7.6-1,5.06,2,14.39,5.75,17.52-.35-1.78-.74-3.32.27-5.49,1.11,5.58,1.78,13.31,6.27,16.47a4.8,4.8,0,0,1-.52-2.87c2.92,5.84,5.34,10.43,10.38,14.07-4.9-9.79-9.56-25.8-11.11-34Zm0,0" style="fill: #1a1a1a"/>
    <path d="M62.43,102.36c.17,4.61.09,8.85-.76,12.19,1.82,3.91,7.66,10.48,11.4,12.89,18.47,18,70.35,12.93,91.81,15,23.88,2.25,24.64,14.77,32.6,28.34,5.61,17.39,11.79,39,36.83,45,7.39,1.78,3.41,13.95,4.3,36.4.56,9.71.4,18.75-6.53,18.54-5.39.32-10.89,1.34-15.45-1.06-2.86-5.27,4.74-9.61,7.56-9.71-.71-2.7,4-21.64-1.24-27.54-2.41-1-10.54-10.69-13.59-11.29-18.65-3.66-35.2-5.23-47.16-17.89-16.74,4.85-34.65,10.89-59.14,10.38-9.45-.2-28.46-.22-37.44-3.64a413,413,0,0,1-2.39,48.11c-.7,6.76-2.72,13.78-8.91,13.84-7.55.07-15.63,1.7-15.63-2.8,0-8.83,5.22-6.82,9.31-9.87,2.15-8.44-1.25-27.28-2.6-36.5a100.75,100.75,0,0,0-3.69-16.41c-2.28-.23-7.92-3.57-13.95-7.79C16,190.29,10.25,169.4,10.16,153.9c.87-1.89.51-3.52.69-5.22-2-12-2-19.71-2.64-24.6-2.3-3.74-3.06-10.93-3.27-20.64-.07-3,.9-6.41,1.9-9.69,14.74-20.5,38.83-20.58,53.84.28a33.16,33.16,0,0,1,1.75,8.33Zm0,0" style="fill: #ad6433"/>
    <path d="M23.91,85.87c3.59-.57,8.7,2.32,9.73,7.2.8-5,6.59-7.92,10.18-7.35,4.54.72,9.23,6,7,11.6,4.86,1.21,10.08-.69,9.69-3.55-1.13-3.72-2.4-7.26-2.41-10.12,1.3-3.71,1.87-7.86.43-14.63-.86-4-5.15-24-10.39-24.51S36.33,69.71,37.65,77.4a38.69,38.69,0,0,0-7.06-.07c1-7.75-7.29-33.12-12.38-32.37S9.62,65.83,9,69.92c-1.13,6.82-1.52,10.53,0,14.19C9.16,86.5,8,90,6.84,93.78a9.68,9.68,0,0,0,9.34,3.55c-2.18-5.55,3.2-10.74,7.73-11.46Zm0,0" style="fill: #1a1a1a"/>
    <path d="M20.5,112.82c.08,7,6.25,16.48,13.87,16.38s13.7-9.6,13.87-16.58c.09-3.49-3.05-1.72-4.09-3.39-2.2-3.55-4.28-9.74-10.32-9.67s-7,6.06-9.08,9.59c-1.08,1.8-4.3-.6-4.25,3.67Zm0,0" style="fill: #2b2b2b"/>
    <path d="M30.26,101c-1,2.72-12.12,1.07-13.43-2.81-.81-2.35,3.08-7.28,7-7s7.37,7.33,6.43,9.84Zm0,0" style="fill: #2b2b2b"/>
    <path d="M36.73,100.61c1,2.72,12.39,1.34,13.7-2.54.81-2.35-2.94-7.42-6.86-7.17s-7.78,7.2-6.84,9.71Zm0,0" style="fill: #2b2b2b"/>
    <path d="M33.9,114.18c5.82-.15,7.46-7.65-.14-7.75s-5.68,7.9.14,7.75Zm0,0"/>
    <path d="M33.79,113.33a.84.84,0,0,1,.92.8v3a.81.81,0,1,1-1.62,0v-3a.84.84,0,0,1,.7-.8Zm0,0"/>
    <path d="M41.11,119.3c-2.68,0-4.31-1.39-7-1.39A21.29,21.29,0,0,0,27.24,119c1.09,5.77,3.35,5.3,7,5.24s6.32.94,6.87-5Zm0,0"/>
    <path d="M39.34,119c-1.88-.15-3-1.34-5.1-1.34-1.87-.38-3.22.62-4.82,1.34,0,4.47-1.7,16.48,5,16.59s4.21-11.54,4.89-16.59Zm0,0" style="fill: #e8379d"/>
    <path d="M25,97.75c-.25,2.26-5.8.71-6-.59-.23-1.49,2.5-3.33,3.82-3.45,2.05-.18,2.43,1.73,2.18,4Zm0,0" style="fill: #d45500"/>
    <path d="M22.32,95.12c1.51-.44,2.24,2.55.26,2.54s-1.77-2.1-.26-2.54Zm0,0"/>
    <path d="M42.15,97.69c.25,2.25,5.79.71,6-.59.23-1.5-2.5-3.34-3.81-3.45-2-.18-2.44,1.73-2.18,4Zm0,0" style="fill: #d45500"/>
    <path d="M44.83,95.06c-1.52-.44-2.24,2.54-.26,2.54s1.76-2.1.26-2.54Zm0,0"/>
    <path d="M34.12,118.64a.66.66,0,0,1,.66.66v9.76a.62.62,0,1,1-1.24,0V119.3a.64.64,0,0,1,.58-.66Zm0,0" style="fill: #cb1a48"/>
    <path d="M24.44,115a.86.86,0,0,1,1,.92c-.17,1.19,0,1.58.33,1.8a3.16,3.16,0,0,0,1.91.22c1.84-.19,4.3-1,6.15-1.07a12.87,12.87,0,0,1,3.12.56c1.1.28,2.21.59,3.15.73A3.07,3.07,0,0,0,42,118a.72.72,0,0,0,.29-.48,3.48,3.48,0,0,0,0-1.36.81.81,0,1,1,1.57-.29,4.74,4.74,0,0,1,0,2A2.49,2.49,0,0,1,43,119.3a4,4,0,0,1-3.08.44,27.66,27.66,0,0,1-3.33-.77,12.15,12.15,0,0,0-2.72-.47c-1.26,0-3.79.85-6,1.06a4.23,4.23,0,0,1-3-.55,3.27,3.27,0,0,1-1-3.3.83.83,0,0,1,.58-.7Zm0,0"/>
    <path d="M15,80.85c-.26-2.64-3.5-4.73-3.41-7.3,0-6.27,2.93-23.06,7.29-25.75,3.18,4.24,7.62,17,6.64,19.83-1.32,3.83-1,8.29-1.85,9.34A50.73,50.73,0,0,0,15,80.85Zm0,0" style="fill: #a34b4b"/>
    <path d="M51.92,80.73c.27-2.63,3.5-4.73,3.42-7.29,0-6.27-2.93-23.06-7.29-25.76-3.18,4.24-7.62,17-6.65,19.83,1.34,3.84,1,8.3,1.86,9.35a50.21,50.21,0,0,1,8.66,3.87Zm0,0" style="fill: #a34b4b"/>
    <path d="M61.7,114.74c4.59,3.72,11.75,10.54,12.75,15.66,1.25,6.36.43,18.85-13.92,26.07,5.24-7.52,11.71-18,8.11-24.69-1.65,5.27-5.84,10.78-9.21,11.42,3.82-6.58,5.52-15.15,4.42-21-.31.62-5,6.71-7.37,5.53a17.9,17.9,0,0,0,5.22-13Zm0,0" style="fill: #2b2b2b"/>
    <path d="M164.88,140.79c23.88,2.26,28.55,16.48,32.71,30-22.21-21.47-31.43-9.13-43.85,6.6-12.74,16.12-44.23,16.89-58.2,4.18-16.68-15.18.85-29.22-22.42-54,12.12,11.22,70.3,11.25,91.76,13.28Zm0,0" style="fill: #1a1a1a"/>
    <path d="M19.63,134.36A34.35,34.35,0,0,1,8.3,124.81c-.83,2.78.08,16.85,2.22,24.09-.32,1.56-.93,3.18-.26,5.21,1.81,1.36,4.19,2.66,6.78.88-3.52-2.64-6.2-5.7-5.89-11.79a16.07,16.07,0,0,0,7,1.47c-3.86-1.93-5.33-5.78-6.27-11,1.4.56,4.51,2.34,7.75.74Zm0,0" style="fill: #2b2b2b"/>
  </g>
</svg>
