<svg id="af1ffe8d-00ce-4432-972e-61bb8a06d76a" data-name="set" xmlns="http://www.w3.org/2000/svg" viewBox="0 0 268.66 226.02">
  <g>
    <path d="M187.13,178.26c1.16-12.72-12.38-33.69-28.33-28.37-3,1-8,5.68-6.21,8.9,2.3,11.48,13.8,18.38,23.55,26.06a22,22,0,0,1,2.91,8.51c.35,6.68-2,14.3-3.85,17.24-7.81-3.12-10.54,10.66-6,10.37,3.95-.26,9.76,1.76,14.13-1.26,2.58-1.79,3.61-5.85,4.39-10.05,1.86-10,6.51-17.83,3.77-22a28.28,28.28,0,0,1-4.4-9.42Zm0,0" style="fill: #e1cf61"/>
    <path d="M191.84,122.5c-8.14-.52-12.86-20-8.78-27.79,13.45,7.45,25.78,19.36,36.19,24.77,12.53,6.5,38.62,8.38,40.64,13,1.41,3.21-14.71,9.46-34.76,4.86-11.25-2.58-25.23-9.88-33.29-14.84Zm0,0" style="fill: #f2e164"/>
    <path d="M163.26,88.29c6.78.35,15,1,19.66,6.47,13.84,16.28,7.23,41.62,9.61,57.26.88,5.72,11.41,20.95,17.08,27.16,3.06,6.14,1.95,38.56.08,41.49-2.43,2.79-15.77,3.94-20.1.55-2.46-4.92,3.25-12.69,7.92-9.56,1-6.2,1.56-14.93-.56-21.71-1.15-3.67-4.64-7-5.73-8.54-8.51-7.77-20.88-15.63-29-26.4-10.59,5.31-30.38,11.26-46.72,11.53-9.47.16-22.07,3.25-37.39-1.95-.42,7-3.48,14.45-5.41,25.47-1.46,8.39-8.73,20-9.82,25.59-1.84,9.58-7.28,11-18.32,8.41-5.62-1.31-3.61-12.76,3.21-12.6,3.35-8.45,5.15-18.94,6-31.86.61-9,.62-15.93.62-22.19-1.62-.45-3.17-1.06-4.74-1.66.39,10.27,1.87,36.05.89,46.18-.05,9.82-1.64,13.21-9.51,18.6-4.69.71-11.81,1.18-12.81-1.57-.78-8.15,2.76-9.39,7.63-8.67,4.18-7-6.75-54.38-8-69.34-3.9-8-6.75-25.79-4.39-48.09-.87-5.63-1.77-10.27-1.17-17.57-5.87-7.6-5.89-29.08-.42-38.35,2.66-3.1,13.11-7.86,21.3-8s19.22,2.55,24.61,7.84c5,10.4,7.63,26.08,7.48,36.6,1.14,1.31,9.1,7.8,12.39,12,16.32,11,46,1.35,75.65,2.87Zm0,0" style="fill: #ffef75"/>
    <path d="M24.34,43.3c-2-.68-3.59-4-2.51-6.36C15.22,44.64,7,50.28,6.78,57.36,6.62,63.7,15.64,71.78,19.38,76c5.67,2.5-4-22.86,5-32.7Zm0,0" style="fill: #b5ab64"/>
    <path d="M67.74,36.78c-.5,3.23-2.61,4.6-4.74,6.82,12.66,6.93,3,29.06,7,31.71,5.38,2,14.23-12.27,13.31-19.61-.62-4.89-8.41-11.86-15.6-18.92Zm0,0" style="fill: #b5ab64"/>
    <path d="M57.2,48.62c2.92,2,.76,5.88-2.83,4.61-3.1-1.09-1.45-7.51,2.83-4.61Zm0,0"/>
    <path d="M30.24,48.44c-2.72,2.23-.21,5.92,3.25,4.33,3-1.37.75-7.61-3.25-4.33Zm0,0"/>
    <path d="M30.86,78.25a.81.81,0,0,1,.85.43,18.43,18.43,0,0,0,3.46,3.88,11.72,11.72,0,0,0,6.26,3.1.81.81,0,0,1,.74.85.82.82,0,0,1-.88.71,13,13,0,0,1-7.16-3.45,17.87,17.87,0,0,1-3.8-4.38.82.82,0,0,1,.53-1.14Zm0,0" style="fill: #daca57"/>
    <path d="M60,78.25a.83.83,0,0,1,.78,1.32,56.62,56.62,0,0,1-5.09,5.05c-1.93,1.6-4.14,2.89-6.58,2.81a.78.78,0,1,1,.07-1.56c1.86.06,3.72-1,5.52-2.46a57.32,57.32,0,0,0,4.94-4.91.84.84,0,0,1,.36-.25Zm0,0" style="fill: #daca57"/>
    <path d="M43.94,64.28c6-.07,4.41,5.57.58,6-4.68.46-6.26-5.88-.58-6Zm0,0"/>
    <path d="M44.28,69.42a.83.83,0,0,1,.89.79v3.34a.79.79,0,1,1-1.57,0V70.25a.82.82,0,0,1,.68-.83Zm0,0"/>
    <path d="M53.31,76.25c-3.5,1.39-6.19-2.81-8.69-2.31a47.76,47.76,0,0,1-8.2,2.19c.53,1.48,1.64,8,8.47,7.94s7.89-6.14,8.42-7.82Zm0,0" style="fill: #1a1a1a"/>
    <path d="M49.73,75.68a22.82,22.82,0,0,0-5.23-2.09,9.07,9.07,0,0,0-4.6,2.12c.33,1.65-1,16.72,5.3,16.58S50,77.19,49.73,75.68Zm0,0" style="fill: #e8379d"/>
    <path d="M33,72.34a.83.83,0,0,1,.82.57c1.63,5.64,7.2.17,10.71.07a8.32,8.32,0,0,1,2.92.79A36.36,36.36,0,0,0,51,75a5.52,5.52,0,0,0,2.92.14c.69-.24,1.16-.68,1.35-2a.82.82,0,0,1,.89-.68.83.83,0,0,1,.68.89,3.89,3.89,0,0,1-2.39,3.28,6.81,6.81,0,0,1-3.84-.11,37.88,37.88,0,0,1-3.7-1.28,11.44,11.44,0,0,0-2.32-.68c-1,0-10.25,5.79-12.28-1.17a.84.84,0,0,1,.68-1Zm0,0"/>
    <path d="M44.46,75.16a.64.64,0,0,1,.82.6c0,2.83.35,7.83.35,10.18a.62.62,0,0,1-.6.61.63.63,0,0,1-.61-.61c0-2.22-.37-7.23-.36-10.18a.62.62,0,0,1,.4-.6Zm0,0" style="fill: #cb1a48"/>
  </g>
</svg>
