<svg id="e8f2adab-3b16-4fa2-89fd-ca3e2b18f7f9" data-name="set" xmlns="http://www.w3.org/2000/svg" viewBox="0 0 163.23 155.29">
  <g>
    <path d="M81.29,48a.82.82,0,0,0-.36.15,3.27,3.27,0,0,0-.89.92,8.49,8.49,0,0,0-1,1.78,10.17,10.17,0,0,0-.5,5.94.82.82,0,0,0,1.24.47l.64-.5a18.44,18.44,0,0,0-.85,2.78,7.74,7.74,0,0,0,.68,4.91.82.82,0,0,0,1.17.25l.46-.36a9.58,9.58,0,0,0,.86,7.12.79.79,0,1,0,1.39-.71,7.78,7.78,0,0,1,0-8,.83.83,0,0,0-.72-1.14H83a.83.83,0,0,0-.5.18l-1.17,1a6.17,6.17,0,0,1-.25-2.95,30.68,30.68,0,0,1,1.42-4.55.82.82,0,0,0-.74-1.07h-.43a.77.77,0,0,0-.5.18L80,55a8.84,8.84,0,0,1,.5-3.59A6.36,6.36,0,0,1,81.29,50a4.53,4.53,0,0,1,.5-.57.83.83,0,0,0-.5-1.46Zm0,0" style="fill: #d6a46d"/>
    <path d="M122.66,39.06c4.18-2.73,17.13,1.91,12.91,10.37-7,1.83-13.25-4.65-12.91-10.37Zm0,0" style="fill: #7a0a09"/>
    <path d="M96.23,130.74c1.55-.89,1.16-.32,2.73-.14,2.32-1.43,3.44-2.47,4.41-4.43-.22-1.12-.77-3.09-1-4.38a30.62,30.62,0,0,1-3.41-3.91c-13.35-10.14,6.82-32.79,16-16.2-6.15,13.32,4.13,18.95,2.55,25.6-.84,3.48-10.44,8.94-12.53,11.13-1.54,1.62-4.85,2.12-7.8,2.05-5.76-2-3.7-6.35-.94-9.72Zm0,0" style="fill: #bf9d9d"/>
    <path d="M79,138.9c.45,2.75.24,5.45,2.47,7.51,2,1.84,2.9,2.81,8.35,2.1,12.7-1.65,7.86-9.25,4.51-11.42,1.14-4.33,6.68-18.92,5.59-30.39a50.59,50.59,0,0,0,20.15-8.47c7.22,4.24,12.35,18.57,16.23,23.74,1.73,5.25,3.2,8.5,3,12.92-.38,8.73,11.18,8.07,17.36,7.43,8.26-.85,6.67-8.91-.3-12.62-1-5.14-3.5-8.68-3.3-12,.35-6.15-4.43-13.23-5-20.1-1-12.38-.22-31.29-10.79-46.31-1.91.87-30.57-13.4-34.92-18.07a31.91,31.91,0,0,0-4,.34c-6.21.92-9.82.27-14.61.83A105.46,105.46,0,0,0,16,54.74a60.68,60.68,0,0,0-7.61,19.5c2.18,3.83,3.54,20.09,5.61,29.13,1.59,19.69,11.23,24.16,9.06,29.75.18,4.37-6,1.4-5.8,10.71.1,4.68,8.66,3.53,13.69,3,3.52-.35,6.84-4.15,8-9.7,1.72-8-4-21.86-1.24-25,10.35,5.64,27.59,5.52,38.2.34,2,6.94,2,19.76,3.1,26.35Zm0,0" style="fill: #f6dddd"/>
    <path d="M71.11,91.27a.67.67,0,0,0-.47.38A20.67,20.67,0,0,1,52.3,103.4,19.84,19.84,0,0,1,34.06,92.25a.69.69,0,0,0-.92-.39.67.67,0,0,0-.25,1A21.21,21.21,0,0,0,52.3,104.73,22,22,0,0,0,71.81,92.25a.7.7,0,0,0-.7-1Zm0,0" style="fill: #d7a5a5"/>
    <path d="M93.72,46.3a.7.7,0,0,0-.22,1.27c3.92,2,8.5,8.6,10.36,17.19a37.89,37.89,0,0,1-5.1,28.73.66.66,0,0,0,1.11.73,39.27,39.27,0,0,0,5.25-29.74c-1.92-8.88-6.42-15.83-11-18.11a.62.62,0,0,0-.38-.07Zm0,0" style="fill: #d7a5a5"/>
    <path d="M101.58,33.15A9.32,9.32,0,0,0,104.37,41c2.15,2.14,10.47,2,12.53,4.08,1.81,1.18,6.08,4,7,5.76,1,2.06,6.64,4.64,10.32,4.78,4.65.19,2.68-3.63,3.54-3.63-1-3.4-9.56-11-14.09-13.12-5.58-3-13.22-6.09-22.06-5.75Zm0,0" style="fill: #891615"/>
    <path d="M8.31,73.63c1-1,2.9-.32,4.83,1.61,7.51,7.5,5.78,5.76,3.77,15.85.93,7.62,5,9.13-2.92,12.32C7.64,92.13,6.78,83.81,8.31,73.63Zm0,0" style="fill: #891615"/>
    <path d="M123,73.9c-.77.4-4.57,2.11-4.57,6.18,0,8.28,9.56,5.14,12.36,10.74-3.58,6.58,4.09,10.57,7.52,9.94,8.33-1.51,2-8.25,2.42-11.28,2.89-4.88.3-10.19-4-13.43,1.72-8.19-16-8-13.7-2.15Zm0,0" style="fill: #891615"/>
    <path d="M17.76,22.94a40.06,40.06,0,0,1,3.61,4.19c5.34-3.76,15.74-7,14.06-13.7-5.67-6.18-22.17-.15-17.67,9.51Zm0,0" style="fill: #c69090"/>
    <path d="M14.64,30.73C9,25.94,6.57,19.07,12.28,15.47c6.37-4,13.38-8.21,15.59-6.7,3.42,1.4,6.79,2.24,7.32,4.67-2.51-.38-6.68-3.11-9.57-1.93-12.27,5-4.88,14.08-11,19.22Zm0,0" style="fill: #edd1d1"/>
    <path d="M85.06,23.15a40.54,40.54,0,0,0-3.61,4.2c-5.34-3.76-15.74-7-14.06-13.7,5.67-6.18,22.17-.15,17.67,9.5Zm0,0" style="fill: #b83131"/>
    <path d="M88.18,31c5.69-4.79,8.07-11.66,2.37-15.26C84.17,11.67,77.16,7.48,75,9c-3.43,1.4-6.79,2.23-7.33,4.67,2.51-.38,6.69-3.11,9.57-1.93,12.27,5,4.88,14.08,11,19.22Zm0,0" style="fill: #7a0a09"/>
    <path d="M15.56,50.6C15.5,38.82,22.37,30.9,21,26.76c6.49-7.32,9.56-9.18,14.7-13.23,2.22-2,11.75-.36,15.62-.28A64.41,64.41,0,0,0,58,12.6c9.41,2.63,17.21,12.84,22.77,13.82.26.29.52.58.78.89C80.16,31.44,87.16,39,87.09,50.73,87,73.21,78,83.2,69.53,78.9c-10,5.58-26.37,5.47-32.45.52-8.37,4.25-21.39-6.34-21.52-28.82Zm0,0" style="fill: #ffe3e3"/>
    <path d="M38.37,29.52a9.65,9.65,0,0,0-2.54.31c-3.92,1-6.49,4.5-7.25,9.63a.67.67,0,1,0,1.33.19c.71-4.81,2.9-7.68,6.27-8.55a10.36,10.36,0,0,1,8.39,1.8,14,14,0,0,1,5.16,6.24A.66.66,0,1,0,51,38.7a15.09,15.09,0,0,0-5.67-6.87,12.53,12.53,0,0,0-6.93-2.31Zm0,0" style="fill: #b28f8f"/>
    <path d="M49.86,24a.7.7,0,0,0-.51,1c.75,1.56.72,3.55.57,6a32.12,32.12,0,0,0,.23,8.33A.66.66,0,0,0,51.44,39a31.53,31.53,0,0,1-.22-8c.15-2.43.27-4.66-.66-6.62a.7.7,0,0,0-.7-.38Zm0,0" style="fill: #b28f8f"/>
    <path d="M42,19.29c-2.54.17-4.88,1.59-6.75,4.27a.68.68,0,0,0,.16.92.69.69,0,0,0,.92-.16c1.7-2.45,3.65-3.59,5.76-3.74s4.47.74,6.87,2.6a.7.7,0,0,0,1-.08.68.68,0,0,0-.19-1c-2.57-2-5.22-3-7.75-2.85Zm0,0" style="fill: #b28f8f"/>
    <path d="M63.19,29.33a12.92,12.92,0,0,0-7.06,2.31,15,15,0,0,0-5.76,6.87A.66.66,0,1,0,51.6,39a14,14,0,0,1,5.26-6.24,10.75,10.75,0,0,1,8.58-1.81c3.46.88,5.7,3.75,6.43,8.55a.69.69,0,0,0,.76.56.68.68,0,0,0,.54-.78c-.78-5.14-3.38-8.58-7.38-9.6a11.11,11.11,0,0,0-2.6-.34Zm0,0" style="fill: #b28f8f"/>
    <path d="M42.77,73c.6,1.93,5.61,3.58,8.71.28,4.05,2.87,7.88,1.78,9.28-.56,15.07-17.59-28.92-30.8-18,.28Zm0,0" style="fill: #b6a6a6"/>
    <path d="M80.55,62.48a.54.54,0,0,0-.48.54,6.31,6.31,0,0,1-3.45,5.92.55.55,0,0,0-.24.69.53.53,0,0,0,.69.23,7.37,7.37,0,0,0,4-6.84.54.54,0,0,0-.54-.54Zm0,0" style="fill: #b28f8f"/>
    <path d="M39.76,39.57c.34-4.38-8.14-1.31-7.23,1.69,1,3.45,7,1.46,7.23-1.69Zm0,0" style="fill: #d45500"/>
    <path d="M35.52,39.08c-1.63,1.6.37,3.63,1.92,2.32a1.51,1.51,0,1,0-1.92-2.32Zm0,0"/>
    <path d="M62.41,39.51c-.34-4.38,8.14-1.32,7.23,1.69-1,3.45-7,1.45-7.23-1.69Zm0,0" style="fill: #d45500"/>
    <path d="M66.65,39a1.51,1.51,0,1,1-1.93,2.32A1.51,1.51,0,1,1,66.65,39Zm0,0"/>
    <path d="M22.56,54.28a.52.52,0,0,0-.41.44,10.1,10.1,0,0,0,3.67,8.72c.44.31,1-.52.6-.83a9.22,9.22,0,0,1-3.26-7.76.53.53,0,0,0-.6-.57Zm0,0" style="fill: #b28f8f"/>
    <path d="M70.25,77c11.8-.91,5.87-23.15-1.11-30.82-5-5.43-14.25-7-17.65-7s-12.7,1.56-17.64,7c-7,7.67-12.91,29.91-1.11,30.82,16.13,1.23,5.74-15.2,18.75-15.5S54.11,78.22,70.25,77Zm0,0" style="fill: #dabebe"/>
    <path d="M45.6,63.8a5.71,5.71,0,0,1,0-3.38A28.85,28.85,0,0,0,48,62.19,21.64,21.64,0,0,0,45.6,63.8Zm0,0" style="fill: #ffffe5"/>
    <path d="M55.84,62.42a11.62,11.62,0,0,1,2.48-1.71c.46.84-.23,2.3-.51,3.42a5.8,5.8,0,0,0-2-1.71Zm0,0" style="fill: #ffffe5"/>
    <path d="M56.48,48.11a.68.68,0,0,0-.63.69.69.69,0,0,0,.69.64,3.2,3.2,0,0,1,2.16.91,13.25,13.25,0,0,1,2.21,2.54c1.42,2,2.66,4.48,3.84,6a.67.67,0,0,0,1,.18.68.68,0,0,0,.08-1c-1-1.3-2.31-3.78-3.8-5.92a14.08,14.08,0,0,0-2.44-2.82,4.59,4.59,0,0,0-3.07-1.23Zm0,0" style="fill: #956f6f"/>
    <path d="M51.51,53.9a.68.68,0,0,0-.54.67V60.9a.67.67,0,0,0,1.33,0V54.57a.69.69,0,0,0-.79-.67Zm0,0"/>
    <path d="M46.22,48.14a4.51,4.51,0,0,0-3,1.17,13.36,13.36,0,0,0-2.31,2.79c-1.41,2.1-2.63,4.52-3.64,5.82a.69.69,0,0,0,.11.94.7.7,0,0,0,.93-.11c1.18-1.52,2.34-3.93,3.67-5.92A12.69,12.69,0,0,1,44,50.32a3.13,3.13,0,0,1,2.13-.88.66.66,0,1,0,.06-1.3Zm0,0" style="fill: #956f6f"/>
    <path d="M51.21,45.33c8.36-.06,7.74,9.42.58,9.48s-8.95-9.41-.58-9.48Zm0,0"/>
    <path d="M57.27,12.87c-4.82,1.48-5.65,8.35-1,10.17.09,6.67,11.47,5.62,15.91,7.26,2.2,3.94,7.45,2.9,9.52.29a10.7,10.7,0,0,1-.18-3.49c-3.59-3.61-9.33-10.86-14.23-14-2.39-1.56-10-.52-10.06-.21Zm0,0" style="fill: #a21614"/>
    <path d="M63.19,17.48c-2.53-.17-5.18.89-7.75,2.89a.69.69,0,0,0-.12.93.71.71,0,0,0,.94.11c2.4-1.86,4.73-2.74,6.84-2.6s4.06,1.29,5.76,3.74a.66.66,0,1,0,1.08-.76c-1.87-2.69-4.21-4.14-6.75-4.31Zm0,0" style="fill: #792322"/>
    <path d="M44.71,57.34c-1,.07-.77,1.28.18,1.12s.93-1.2-.18-1.12Zm0,0" style="fill: #585555"/>
    <path d="M37.67,53.73c-.94.07-.76,1.28.18,1.12s.94-1.21-.18-1.12Zm0,0" style="fill: #585555"/>
    <path d="M40,60.3c-.94.07-.77,1.28.18,1.12s.94-1.21-.18-1.12Zm0,0" style="fill: #585555"/>
    <path d="M33.37,55.19c-.95.07-.77,1.28.18,1.12s.94-1.21-.18-1.12Zm0,0" style="fill: #585555"/>
    <path d="M43.78,45.25c-.94.07-.77,1.28.18,1.12s.94-1.21-.18-1.12Zm0,0" style="fill: #585555"/>
    <path d="M40.5,48.91c-.94.07-.76,1.28.18,1.12s.94-1.21-.18-1.12Zm0,0" style="fill: #585555"/>
    <path d="M44.3,53.41c-.94.07-.76,1.28.18,1.12s.94-1.21-.18-1.12Zm0,0" style="fill: #585555"/>
    <path d="M36,48.23c-.94.07-.76,1.28.18,1.12s.94-1.2-.18-1.12Zm0,0" style="fill: #585555"/>
    <path d="M58.59,57.92c.94.07.76,1.28-.18,1.12s-.94-1.21.18-1.12Zm0,0" style="fill: #585555"/>
    <path d="M65.62,54.31c.95.07.77,1.28-.18,1.12s-.94-1.21.18-1.12Zm0,0" style="fill: #585555"/>
    <path d="M63.26,60.88c.95.07.77,1.28-.17,1.12s-.94-1.21.17-1.12Zm0,0" style="fill: #585555"/>
    <path d="M69.92,55.76c1,.07.77,1.29-.17,1.12s-.94-1.21.17-1.12Zm0,0" style="fill: #585555"/>
    <path d="M59.51,45.82c1,.08.77,1.29-.17,1.12s-.94-1.2.17-1.12Zm0,0" style="fill: #585555"/>
    <path d="M62.79,49.49c.94.07.76,1.28-.18,1.12s-.94-1.21.18-1.12Zm0,0" style="fill: #585555"/>
    <path d="M59,54c.94.07.76,1.28-.18,1.12S57.87,53.9,59,54Zm0,0" style="fill: #585555"/>
    <path d="M67.28,48.81c.94.07.76,1.28-.18,1.12s-.94-1.21.18-1.12Zm0,0" style="fill: #585555"/>
    <path d="M51.44,67.05a.52.52,0,0,0-.44.53v4.5a.53.53,0,0,0,.51.51.51.51,0,0,0,.5-.51v-4.5a.52.52,0,0,0-.57-.53Zm0,0" style="fill: #7c7878"/>
  </g>
</svg>
