<svg id="Layer_2" data-name="Layer 2" xmlns="http://www.w3.org/2000/svg" viewBox="0 0 105.57 173.26"><defs><style>.cls-1{fill:none;}.cls-2{fill:#333;}</style></defs><path class="cls-1" d="M19.33,159a6.37,6.37,0,0,0,4.94-5.85,6.59,6.59,0,0,0-4.37-5.7c-5.18-1.92-7.95,4.14-6.31,8.38A4.91,4.91,0,0,0,19.33,159Z"/><path class="cls-1" d="M36.68,136.89c-2.62,1.44-1.35,5.65,1.78,4.79a2.62,2.62,0,0,0,1.63-3.42A2.67,2.67,0,0,0,36.68,136.89Z"/><path class="cls-1" d="M45.63,108.84a65.48,65.48,0,0,1-6.19-2.66A49.27,49.27,0,0,1,34,103.09c-.34.58-.69,1.16-1,1.74a7,7,0,0,0,1.52.76,1.22,1.22,0,0,1-.65,2.36,9.82,9.82,0,0,1-2.06-1,17.39,17.39,0,0,0-.87,1.92,8.93,8.93,0,0,0,.83.4l1.78.88c1.41.7.17,2.8-1.24,2.11-.64-.32-1.37-.61-2.05-1a4.67,4.67,0,0,0,.42,2.91,7.49,7.49,0,0,0,3.52,3c2.09,1,5,1.33,6.94-.27,1.17-1,1.73-2.67,2.41-4Z"/><path class="cls-1" d="M29.12,116.29a6.78,6.78,0,0,1-1.28-2.78,16.82,16.82,0,0,0-5.06,4.54c-1.56,2.16-2.43,5.77-.93,8.17s4.36,2.69,6.11.45a16.87,16.87,0,0,0,1.95-3.53,11.8,11.8,0,0,0,1.25-4.88A10.33,10.33,0,0,1,29.12,116.29Z"/><path class="cls-1" d="M50.36,93.47c3,.13,5.72-1.58,7.93-3.45,4.75-4.15,8.23-9.65,11.3-15.11,2.1-3.72,4.11-7.51,6-11.37a67.6,67.6,0,0,0,4.51-11.63c.88-3.27,1.53-6.93.57-10.26s-3.94-5.37-7.33-6c-5.11-1-9.43,2.27-12.42,6.08A45,45,0,0,0,56.46,49q-2.24,4.32-4.3,8.73a192.41,192.41,0,0,0-7.53,17.84c-1.44,4.12-3.19,9.68-.94,13.82A8.3,8.3,0,0,0,50.36,93.47Z"/><path class="cls-1" d="M34.58,100.57a49.82,49.82,0,0,0,11.08,5.62c6.65,2.48,15.16,4.68,21.74.85,8-4.64,8.52-15.38,10.53-23.38a41.16,41.16,0,0,1,5.3-12.25,116.28,116.28,0,0,1,8.16-10.74c5.67-6.93,12.74-15.48,11.62-25-1-8.48-7.72-14.89-15-18.6C82.8,14.36,76.48,12.16,70.3,12l4.2,2.14c1.41.72.17,2.82-1.23,2.11l-7-3.56a1.15,1.15,0,0,1-.48-.44,21.1,21.1,0,0,0-4.13,1,18.18,18.18,0,0,0-5.32,3.17c-.41.36-.79.72-1.16,1.1L60,19.77c1.42.67.18,2.77-1.23,2.11l-5.18-2.44-.08-.05a24.61,24.61,0,0,0-3.14,5.35l4,1.82c1.43.65.18,2.76-1.23,2.11L49.5,27a61.12,61.12,0,0,0-2.07,7.68,17.28,17.28,0,0,1,3.4,1.37c1.39.74.16,2.84-1.23,2.11a13.87,13.87,0,0,0-2.66-1.08c-.37,1.82-.72,3.64-1.12,5.41-.16.72-.33,1.45-.51,2.17.93.26,1.85.53,2.77.84,1.49.49.85,2.85-.65,2.35-.91-.3-1.82-.57-2.74-.82a56.39,56.39,0,0,1-2.57,7.37,1,1,0,0,1,.17.32l.11.06a2.47,2.47,0,0,0,.4.11,5.55,5.55,0,0,1,1.47.5A1.22,1.22,0,0,1,43,57.51c-.52-.29-1.19-.29-1.74-.55L41,56.79c0,.1-.09.2-.15.3A47.68,47.68,0,0,1,37,63.17a11.8,11.8,0,0,1,2.5,1.28c1.29.88.07,3-1.24,2.11a10.14,10.14,0,0,0-2.82-1.34c-.87,1.11-1.76,2.19-2.68,3.26S31,70.6,30.09,71.7a16.44,16.44,0,0,1,3.63,2c1.17,1.06-.56,2.78-1.72,1.73a14.31,14.31,0,0,0-3.35-1.84,23.65,23.65,0,0,0-3.22,5.9c2.26,1.15,4.49,2.34,6.7,3.59a1.22,1.22,0,0,1-1.24,2.11q-3-1.71-6.14-3.3a14.4,14.4,0,0,0,.14,5.74,29.82,29.82,0,0,0,6.66,3.5c1.46.54.83,2.9-.65,2.35a32.66,32.66,0,0,1-4.73-2.18c.2.41.41.81.64,1.21A26,26,0,0,0,34,100.15,1.31,1.31,0,0,1,34.58,100.57Zm7.86-26.13a211,211,0,0,1,8.37-19.58c2.77-5.8,5.47-12.09,10-16.77,3.8-3.94,9-6.11,14.41-4.5A10.94,10.94,0,0,1,83,41c1.12,3.88.39,8.14-.67,11.94a75.49,75.49,0,0,1-5.11,12.79c-1.89,3.87-3.92,7.7-6.07,11.43-3,5.26-6.49,10.56-11.1,14.59a20.76,20.76,0,0,1-4,2.79,10.73,10.73,0,0,1-8.77.73,10.57,10.57,0,0,1-6-5.45C39.1,85,40.74,79.16,42.44,74.44Z"/><path class="cls-2" d="M45.45,114.51,48,109.65a32.36,32.36,0,0,0,15,1.52,16.3,16.3,0,0,0,10.12-5.89c3-3.78,4.42-8.42,5.46-13s1.79-9.56,3.77-14a56.15,56.15,0,0,1,7.72-12c3-3.71,6.1-7.3,8.82-11.21,2.89-4.15,5.58-8.86,6.43-13.91,1.58-9.25-3.64-17.66-10.87-23A44.93,44.93,0,0,0,82.26,12,39.52,39.52,0,0,0,67.74,9.6,23,23,0,0,0,61,10.88a22.47,22.47,0,0,0-10.44,8.35c-2.78,4-4.08,8.59-5.14,13.29-1.26,5.64-2.2,11.37-4,16.87a46.28,46.28,0,0,1-7.16,13.44c-2.17,2.85-4.65,5.45-6.83,8.28a1.38,1.38,0,0,0-.36.47A33.48,33.48,0,0,0,24.84,75a18.53,18.53,0,0,0-2.41,12.9A1.28,1.28,0,0,0,22.71,89c1.42,5.2,5,9.38,9.31,12.63a43.84,43.84,0,0,0-3.6,6.84,1,1,0,0,0-.21.61,10.66,10.66,0,0,0-.39,1.7,1.14,1.14,0,0,0-.38.13,17.79,17.79,0,0,0-7.37,6.83c-1.7,3.28-2.17,7.75.43,10.7a5.88,5.88,0,0,0,8.65.54A14.82,14.82,0,0,0,32,124.37a16.61,16.61,0,0,0,1.52-4.79c3.1,1.29,6.78,1.3,9.3-.94A13.31,13.31,0,0,0,45.45,114.51Zm-18.64-22c-.23-.4-.44-.8-.64-1.21a32.66,32.66,0,0,0,4.73,2.18c1.48.55,2.11-1.81.65-2.35a29.82,29.82,0,0,1-6.66-3.5,14.4,14.4,0,0,1-.14-5.74q3.11,1.59,6.14,3.3a1.22,1.22,0,0,0,1.24-2.11c-2.21-1.25-4.44-2.44-6.7-3.59a23.65,23.65,0,0,1,3.22-5.9A14.31,14.31,0,0,1,32,75.42c1.16,1,2.89-.67,1.72-1.73a16.44,16.44,0,0,0-3.63-2c.89-1.1,1.8-2.17,2.71-3.22s1.81-2.15,2.68-3.26a10.14,10.14,0,0,1,2.82,1.34c1.31.88,2.53-1.23,1.24-2.11A11.8,11.8,0,0,0,37,63.17a47.68,47.68,0,0,0,3.81-6.08c.06-.1.1-.2.15-.3l.29.17c.55.26,1.22.26,1.74.55a1.22,1.22,0,0,0,1.24-2.11,5.55,5.55,0,0,0-1.47-.5,2.47,2.47,0,0,1-.4-.11l-.11-.06a1,1,0,0,0-.17-.32A56.39,56.39,0,0,0,44.69,47c.92.25,1.83.52,2.74.82,1.5.5,2.14-1.86.65-2.35-.92-.31-1.84-.58-2.77-.84.18-.72.35-1.45.51-2.17.4-1.77.75-3.59,1.12-5.41a13.87,13.87,0,0,1,2.66,1.08c1.39.73,2.62-1.37,1.23-2.11a17.28,17.28,0,0,0-3.4-1.37A61.12,61.12,0,0,1,49.5,27l3.62,1.66c1.41.65,2.66-1.46,1.23-2.11l-4-1.82a24.61,24.61,0,0,1,3.14-5.35l.08.05,5.18,2.44c1.41.66,2.65-1.44,1.23-2.11L55.2,17.5c.37-.38.75-.74,1.16-1.1a18.18,18.18,0,0,1,5.32-3.17,21.1,21.1,0,0,1,4.13-1,1.15,1.15,0,0,0,.48.44l7,3.56c1.4.71,2.64-1.39,1.23-2.11L70.3,12C76.48,12.16,82.8,14.36,88,17c7.25,3.71,14,10.12,15,18.6,1.12,9.56-6,18.11-11.62,25a116.28,116.28,0,0,0-8.16,10.74,41.16,41.16,0,0,0-5.3,12.25c-2,8-2.56,18.74-10.53,23.38-6.58,3.83-15.09,1.63-21.74-.85a49.82,49.82,0,0,1-11.08-5.62,1.31,1.31,0,0,0-.59-.42A26,26,0,0,1,26.81,92.5Zm3.1,30.64A16.87,16.87,0,0,1,28,126.67c-1.75,2.24-4.62,1.94-6.11-.45s-.63-6,.93-8.17a16.82,16.82,0,0,1,5.06-4.54,6.78,6.78,0,0,0,1.28,2.78,10.33,10.33,0,0,0,2,2A11.8,11.8,0,0,1,29.91,123.14Zm11.2-6.23c-1.9,1.6-4.85,1.26-6.94.27a7.49,7.49,0,0,1-3.52-3,4.67,4.67,0,0,1-.42-2.91c.68.36,1.41.65,2.05,1,1.41.69,2.65-1.41,1.24-2.11l-1.78-.88a8.93,8.93,0,0,1-.83-.4,17.39,17.39,0,0,1,.87-1.92,9.82,9.82,0,0,0,2.06,1,1.22,1.22,0,0,0,.65-2.36,7,7,0,0,1-1.52-.76c.35-.58.7-1.16,1-1.74a49.27,49.27,0,0,0,5.43,3.09,65.48,65.48,0,0,0,6.19,2.66l-2.11,4.08C42.84,114.24,42.28,115.93,41.11,116.91Z"/><path class="cls-2" d="M47.21,95.27A10.73,10.73,0,0,0,56,94.54a20.76,20.76,0,0,0,4-2.79c4.61-4,8.06-9.33,11.1-14.59,2.15-3.73,4.18-7.56,6.07-11.43A75.49,75.49,0,0,0,82.3,52.94c1.06-3.8,1.79-8.06.67-11.94a10.94,10.94,0,0,0-7.76-7.41c-5.43-1.61-10.61.56-14.41,4.5-4.52,4.68-7.22,11-10,16.77a211,211,0,0,0-8.37,19.58C40.74,79.16,39.1,85,41.22,89.82A10.57,10.57,0,0,0,47.21,95.27ZM44.63,75.53a192.41,192.41,0,0,1,7.53-17.84q2.07-4.41,4.3-8.73a45,45,0,0,1,4.41-7.24c3-3.81,7.31-7.06,12.42-6.08,3.39.64,6.34,2.59,7.33,6s.31,7-.57,10.26a67.6,67.6,0,0,1-4.51,11.63c-1.84,3.86-3.85,7.65-6,11.37C66.52,80.37,63,85.87,58.29,90c-2.21,1.87-4.92,3.58-7.93,3.45a8.3,8.3,0,0,1-6.67-4.12C41.44,85.21,43.19,79.65,44.63,75.53Z"/><path class="cls-2" d="M35.86,134.58l-.11.06-.18.07A5.16,5.16,0,0,0,33,140.94a5,5,0,0,0,9.44-3.33A5.13,5.13,0,0,0,35.86,134.58Zm2.6,7.1c-3.13.86-4.4-3.35-1.78-4.79a2.67,2.67,0,0,1,3.41,1.37A2.62,2.62,0,0,1,38.46,141.68Z"/><path class="cls-2" d="M18.76,161.57a8.85,8.85,0,0,0,8-8.4c-.2-6.37-8.89-11.74-13.78-6.33C8.42,151.82,11,162.29,18.76,161.57Zm1.14-14.1a6.59,6.59,0,0,1,4.37,5.7A6.37,6.37,0,0,1,19.33,159a4.91,4.91,0,0,1-5.74-3.17C12,151.61,14.72,145.55,19.9,147.47Z"/></svg>