<svg id="Layer_2" data-name="Layer 2" xmlns="http://www.w3.org/2000/svg" viewBox="0 0 108.07 97.63"><defs><style>.cls-1{fill:none;}.cls-2{fill:#333;}</style></defs><path class="cls-1" d="M68.89,55.81a7.63,7.63,0,0,1,3,2.17c1-.56,2-1.13,2.92-1.73A104.76,104.76,0,0,0,89,45.65,82.2,82.2,0,0,0,101.78,32a1.27,1.27,0,0,1,.4-.37,1.08,1.08,0,0,1-.17-.69,20.11,20.11,0,0,0-4.09-13.57,15.13,15.13,0,0,1-.71,6,1.56,1.56,0,0,1,.18.34L98.5,27c.5,1.5-1.86,2.14-2.35.65-.12-.34-.23-.69-.35-1A33.92,33.92,0,0,1,92.35,32l.36.82c.19.41.34.87.55,1.29a1.08,1.08,0,0,1,.46.42,1.24,1.24,0,0,1-.43,1.68c-1.17.5-1.81-.2-2.25-1.2L90.62,34c-1.32,1.5-2.72,2.93-4.16,4.29.36,1,.73,1.9,1.1,2.85a1.23,1.23,0,0,1-.85,1.5,1.27,1.27,0,0,1-1.51-.85l-.67-1.75c-1.53,1.36-3.11,2.64-4.74,3.86a30.29,30.29,0,0,0,1.27,2.92c.7,1.4-1.41,2.64-2.11,1.23-.43-.87-.82-1.76-1.18-2.67-1.52,1.07-3.06,2.1-4.64,3.08.45,1.31.9,2.61,1.36,3.92.51,1.49-1.85,2.13-2.36.65L71,49.8c-1,.59-2,1.18-3.07,1.75a97.77,97.77,0,0,1-25.58,10,70.14,70.14,0,0,1-13.22,1.76,24.63,24.63,0,0,1-10-1.58,12.72,12.72,0,0,1-5.36-4.06A18.81,18.81,0,0,0,19.93,68.3a1,1,0,0,1,.32,1.19A48.06,48.06,0,0,0,41,69.77a94.2,94.2,0,0,0,18-5.5c1.09-.44,2.16-.91,3.23-1.38a8.12,8.12,0,0,1-.11-2.64C62.42,57.34,66,54.73,68.89,55.81Z"/><path class="cls-1" d="M66.45,64.9c1.68.37,3.16-1.24,3.86-2.56a2.36,2.36,0,0,0-.26-2.78c-.58-.69-1.75-1.67-2.71-1.55a4.32,4.32,0,0,0-2.58,1.57,3.32,3.32,0,0,0-.33,1.84C64.49,62.76,64.94,64.56,66.45,64.9Z"/><path class="cls-1" d="M66,85A11,11,0,0,0,78,87a13.94,13.94,0,0,0,5.11-3.76l-1,.17c-1.54.28-2.2-2.08-.65-2.35l3.39-.61a11.62,11.62,0,0,0,1-4.62c0-.17,0-.34,0-.51-.94.53-1.89,1-2.88,1.49-1.41.66-2.65-1.44-1.23-2.11a41.67,41.67,0,0,0,3.79-2,12.06,12.06,0,0,0-1.2-3.16L80.22,72A1.22,1.22,0,0,1,79,69.89l4-2.4a8.4,8.4,0,0,0-2.93-2c-1.78,1.28-3.53,2.59-5.27,3.92-1.24,1-2.46-1.16-1.23-2.11s2.2-1.64,3.3-2.46c-5.29-.24-10.5,3.34-12.76,8.09A10.41,10.41,0,0,0,66,85Z"/><path class="cls-1" d="M36.91,32.07C28,38.3,18.85,47.52,19.58,59.25a17.78,17.78,0,0,0,4.82,1.36,40,40,0,0,0,10.87-.28,77.65,77.65,0,0,0,12.34-2.72A102,102,0,0,0,71.08,46.9a80.31,80.31,0,0,0,14-10.63,64.73,64.73,0,0,0,4.61-4.86,1.13,1.13,0,0,1,.56-.89l.22-.07a25.64,25.64,0,0,0,4.61-8.3,13.09,13.09,0,0,0,.45-2c-7-3.07-15-2.84-22.46-1.93A80.61,80.61,0,0,0,36.91,32.07Z"/><path class="cls-1" d="M17.1,57.73c0-6.17,2.62-11.88,6.43-16.73A57.72,57.72,0,0,1,37.06,29a83.27,83.27,0,0,1,38.8-13.5c6.67-.58,13.45-.38,19.72,2.07A8.12,8.12,0,0,0,95,15.15c-1.33-3.09-4.32-4.35-7.35-5.25L88,11.61c.33,1.54-2,2.19-2.35.65l-.65-3a40.48,40.48,0,0,0-4.37-.81l-.52-.05c.23.64.47,1.29.71,1.93a1.22,1.22,0,0,1-2.36.65c-.34-.94-.69-1.87-1-2.81-1.33-.07-2.66-.08-4-.05.2.77.39,1.54.59,2.31a1.22,1.22,0,0,1-2.35.65c-.25-1-.49-1.9-.74-2.85a59.41,59.41,0,0,0-6.77.88l.75,2.33c.49,1.5-1.87,2.14-2.35.65-.27-.82-.53-1.65-.8-2.47-1.29.3-2.58.64-3.86,1l.85,2.52c.5,1.5-1.86,2.13-2.36.65l-.81-2.43c-1.28.43-2.55.89-3.8,1.39.19.91.39,1.81.58,2.72.32,1.54-2,2.19-2.36.65l-.51-2.4c-1,.43-1.94.88-2.9,1.35.3.91.61,1.82.91,2.73.5,1.5-1.86,2.13-2.36.65l-.75-2.25a81.2,81.2,0,0,0-8.56,5.24A79.75,79.75,0,0,0,22.44,33.15c-3.9,4.3-8.07,9.76-8.59,15.76a10.38,10.38,0,0,0,2.36,8A9.94,9.94,0,0,0,17.1,57.73Z"/><path class="cls-2" d="M63,85.28a13.26,13.26,0,0,0,13.93,4.63,15.85,15.85,0,0,0,9.69-7.46,1,1,0,0,0,.39-.74,13.87,13.87,0,0,0,1.23-4c.84-6-1.9-12.5-7.83-14.69l-.26-.07-.12,0a13.1,13.1,0,0,0-7.29,0A5.05,5.05,0,0,0,73,60.08,105.78,105.78,0,0,0,89,48.93,86.56,86.56,0,0,0,103.89,33.2a1,1,0,0,0,0-1.3,1.22,1.22,0,0,0,.62-1A22.37,22.37,0,0,0,95.8,11.85,9.82,9.82,0,0,0,93,9.45,25.75,25.75,0,0,0,87,7.18c-16.58-4.35-34.49.9-48.7,9.71A84.81,84.81,0,0,0,22.76,29.27C18.13,34,13.49,39.58,11.87,46.11a16.63,16.63,0,0,0-.5,3.91,21.11,21.11,0,0,0,6.84,20,1.2,1.2,0,0,0,.54.27,1.13,1.13,0,0,0,.8,1.53c12.63,3.22,25.81.28,37.72-4.29C59.22,66.8,61.12,66,63,65.13a4.69,4.69,0,0,0,2.2,1.92l.19.06C60.54,71.86,58.41,79.29,63,85.28ZM13.85,48.91c.52-6,4.69-11.46,8.59-15.76A79.75,79.75,0,0,1,35.81,21.43a81.2,81.2,0,0,1,8.56-5.24l.75,2.25c.5,1.48,2.86.85,2.36-.65-.3-.91-.61-1.82-.91-2.73,1-.47,1.93-.92,2.9-1.35l.51,2.4c.33,1.54,2.68.89,2.36-.65-.19-.91-.39-1.81-.58-2.72,1.25-.5,2.52-1,3.8-1.39l.81,2.43c.5,1.48,2.86.85,2.36-.65l-.85-2.52c1.28-.38,2.57-.72,3.86-1,.27.82.53,1.65.8,2.47.48,1.49,2.84.85,2.35-.65l-.75-2.33a59.41,59.41,0,0,1,6.77-.88c.25,1,.49,1.9.74,2.85A1.22,1.22,0,0,0,74,10.4c-.2-.77-.39-1.54-.59-2.31,1.33,0,2.66,0,4,.05.34.94.69,1.87,1,2.81a1.22,1.22,0,0,0,2.36-.65c-.24-.64-.48-1.29-.71-1.93l.52.05A40.48,40.48,0,0,1,85,9.23l.65,3c.32,1.54,2.68.89,2.35-.65L87.61,9.9c3,.9,6,2.16,7.35,5.25a8.12,8.12,0,0,1,.62,2.44c-6.27-2.45-13-2.65-19.72-2.07A83.27,83.27,0,0,0,37.06,29,57.72,57.72,0,0,0,23.53,41c-3.81,4.85-6.4,10.56-6.43,16.73a9.94,9.94,0,0,1-.89-.83A10.38,10.38,0,0,1,13.85,48.91ZM95.51,20.18a13.09,13.09,0,0,1-.45,2,25.64,25.64,0,0,1-4.61,8.3l-.22.07a1.13,1.13,0,0,0-.56.89,64.73,64.73,0,0,1-4.61,4.86,80.31,80.31,0,0,1-14,10.63A102,102,0,0,1,47.61,57.61a77.65,77.65,0,0,1-12.34,2.72,40,40,0,0,1-10.87.28,17.78,17.78,0,0,1-4.82-1.36c-.73-11.73,8.38-21,17.33-27.18A80.61,80.61,0,0,1,73.05,18.25C80.5,17.34,88.5,17.11,95.51,20.18ZM62.05,60.25a8.12,8.12,0,0,0,.11,2.64c-1.07.47-2.14.94-3.23,1.38a94.2,94.2,0,0,1-18,5.5,48.06,48.06,0,0,1-20.71-.28,1,1,0,0,0-.32-1.19,18.81,18.81,0,0,1-6.19-10.65,12.72,12.72,0,0,0,5.36,4.06,24.63,24.63,0,0,0,10,1.58,70.14,70.14,0,0,0,13.22-1.76,97.77,97.77,0,0,0,25.58-10C69,51,70,50.39,71,49.8l1.13,3.27c.51,1.48,2.87.84,2.36-.65-.46-1.31-.91-2.61-1.36-3.92,1.58-1,3.12-2,4.64-3.08.36.91.75,1.8,1.18,2.67.7,1.41,2.81.17,2.11-1.23a30.29,30.29,0,0,1-1.27-2.92c1.63-1.22,3.21-2.5,4.74-3.86l.67,1.75a1.27,1.27,0,0,0,1.51.85,1.23,1.23,0,0,0,.85-1.5c-.37-1-.74-1.9-1.1-2.85C87.9,37,89.3,35.54,90.62,34L91,35c.44,1,1.08,1.7,2.25,1.2a1.24,1.24,0,0,0,.43-1.68,1.08,1.08,0,0,0-.46-.42c-.21-.42-.36-.88-.55-1.29L92.35,32a33.92,33.92,0,0,0,3.45-5.33c.12.34.23.69.35,1,.49,1.49,2.85.85,2.35-.65l-1.11-3.34a1.56,1.56,0,0,0-.18-.34,15.13,15.13,0,0,0,.71-6A20.11,20.11,0,0,1,102,30.91a1.08,1.08,0,0,0,.17.69,1.27,1.27,0,0,0-.4.37A82.2,82.2,0,0,1,89,45.65a104.76,104.76,0,0,1-14.19,10.6c-1,.6-1.94,1.17-2.92,1.73a7.63,7.63,0,0,0-3-2.17C66,54.73,62.42,57.34,62.05,60.25Zm2.38,1.17a3.32,3.32,0,0,1,.33-1.84A4.32,4.32,0,0,1,67.34,58c1-.12,2.13.86,2.71,1.55a2.36,2.36,0,0,1,.26,2.78c-.7,1.32-2.18,2.93-3.86,2.56C64.94,64.56,64.49,62.76,64.43,61.42Zm12.4,3.4c-1.1.82-2.21,1.62-3.3,2.46s0,3.07,1.23,2.11c1.74-1.33,3.49-2.64,5.27-3.92a8.4,8.4,0,0,1,2.93,2l-4,2.4A1.22,1.22,0,0,0,80.22,72l4.19-2.53a12.06,12.06,0,0,1,1.2,3.16,41.67,41.67,0,0,1-3.79,2c-1.42.67-.18,2.77,1.23,2.11,1-.46,1.94-1,2.88-1.49,0,.17,0,.34,0,.51a11.62,11.62,0,0,1-1,4.62L81.51,81c-1.55.27-.89,2.63.65,2.35l1-.17A13.94,13.94,0,0,1,78,87,11,11,0,0,1,66,85a10.41,10.41,0,0,1-1.9-12.08C66.33,68.16,71.54,64.58,76.83,64.82Z"/></svg>