<svg id="Layer_2" data-name="Layer 2" xmlns="http://www.w3.org/2000/svg" viewBox="0 0 118.72 52.91"><defs><style>.cls-1{fill:none;}.cls-2{fill:#333;}</style></defs><path class="cls-1" d="M25.29,45.32a4.59,4.59,0,0,0,1.79.87c-.09-.35-.17-.69-.25-1a3.47,3.47,0,0,1-.16-2.39,1.15,1.15,0,0,1,1-.61h.09A1.27,1.27,0,0,1,29,43.39v.07a1.2,1.2,0,0,1,0,.19c0,.09,0,.44.11.69s.16.63.23.95l.24,1A15.14,15.14,0,0,0,33.49,45l-.6-2.58c-.35-1.53,2-2.18,2.36-.65l.48,2.12c1.16-.6,2.3-1.23,3.44-1.86a23.25,23.25,0,0,0-.66-2.74c-.47-1.51,1.89-2.15,2.35-.65.23.71.4,1.44.56,2.17.78-.4,1.57-.8,2.38-1.16.61-.27,1.23-.52,1.84-.77-.17-.62-.32-1.25-.44-1.89a1.22,1.22,0,0,1,2.36-.65c.1.57.22,1.12.37,1.67,1.31-.47,2.63-.89,4-1.25a14.86,14.86,0,0,1-.36-2.1,1.23,1.23,0,0,1,1.22-1.22A1.24,1.24,0,0,1,54,34.69a9.94,9.94,0,0,0,.29,1.52c1.31-.28,2.63-.48,3.95-.65a13.77,13.77,0,0,1-.38-1.69,1.27,1.27,0,0,1,.85-1.51,1.23,1.23,0,0,1,1.5.86,16.63,16.63,0,0,0,.51,2.11,40.91,40.91,0,0,1,5.31,0A3.33,3.33,0,0,0,66,34c-.36-1.53,2-2.18,2.36-.65a6.28,6.28,0,0,1,.11,2.2,39.87,39.87,0,0,1,4.57.84,10.13,10.13,0,0,0-.2-1.9c-.34-1.54,2-2.19,2.35-.65a12.1,12.1,0,0,1,.27,3.23c.29.08.57.15.86.25,1.13.38,2.27.79,3.42,1.15,0-.25,0-.5-.06-.73,0-.62-.07-1.25-.1-1.87-.08-1.57,2.36-1.56,2.44,0a17.13,17.13,0,0,1,.13,3.29,16.74,16.74,0,0,0,3.86.5L85.71,37a1.23,1.23,0,0,1,1.22-1.22A1.26,1.26,0,0,1,88.16,37c.08.79.16,1.59.25,2.38,2.71-.64,5.18-2.58,5.32-5.59s-3.14-4.46-4.35-6.92a4.77,4.77,0,0,1,0-4.17c.62-1.4,1.73-2.53,2.17-4a8,8,0,0,0-1.78-7.41c-2.45-2.66-6.3-2.64-9.52-1.59-3.64,1.19-6.68,3.73-9.83,5.84a42.45,42.45,0,0,1-9.47,4.76,34.21,34.21,0,0,1-10.69,2,41.15,41.15,0,0,1-11.43-1.86c-1.3-.35-2.6-.75-3.9-1.11-4.35-1.21-14.23-3.47-14,4a7.57,7.57,0,0,0,1.32,4.12c.87,1.16,2.24,1.84,3.05,3.08,1.66,2.53.48,5.08-.92,7.36a6,6,0,0,0-1.19,3.52A5.63,5.63,0,0,0,25.29,45.32Zm58.8-29.25a1.36,1.36,0,0,1,1.25.32,1.38,1.38,0,0,1,.37.61,1.4,1.4,0,0,1-.6,1.55,1.32,1.32,0,0,1-1.66-.31l-.09-.11s0-.05-.06-.08a.58.58,0,0,1,0-.14c0-.05-.06-.09-.08-.15A1.36,1.36,0,0,1,84.09,16.07Zm-2.71,8.1a1.28,1.28,0,0,1,1.74.46,1.46,1.46,0,0,1,.15.53.74.74,0,0,1,0,.21s0,.05,0,.07a1,1,0,0,1-.15.48l0,0a.62.62,0,0,1-.14.18l0,0,0,0a1.63,1.63,0,0,1-.35.23h0l-.13.05a1.36,1.36,0,0,1-.29,0H82a1.09,1.09,0,0,1-.59-.16,1.31,1.31,0,0,1-.58-.75A1.3,1.3,0,0,1,81.38,24.17Zm-6-5.26a1.44,1.44,0,0,1,.5-.51,1.4,1.4,0,0,1,.7-.18,1.26,1.26,0,0,1,1,.51,1.31,1.31,0,0,1-.37,1.91,1.33,1.33,0,0,1-1.64-.19h0a.87.87,0,0,1-.19-.25h0a1.26,1.26,0,0,1-.12-.29h0a1,1,0,0,1-.06-.35A1.42,1.42,0,0,1,75.33,18.91ZM42.18,28.63,69.53,25.5c1.56-.18,1.54,2.26,0,2.44L42.18,31.07C40.62,31.25,40.63,28.8,42.18,28.63Z"/><path class="cls-1" d="M80.9,25V25s0-.06,0-.09Z"/><path class="cls-1" d="M82.34,24.15h0Z"/><path class="cls-2" d="M83.25,17.91a.58.58,0,0,0,0,.14s0,.05.06.08l.09.11a1.32,1.32,0,0,0,1.66.31,1.4,1.4,0,0,0,.6-1.55,1.38,1.38,0,0,0-.37-.61,1.32,1.32,0,0,0-2.17,1.37C83.19,17.82,83.23,17.86,83.25,17.91Z"/><path class="cls-2" d="M20.74,40.83a7.93,7.93,0,0,0,5,7.51,7.72,7.72,0,0,0,2.55.47,1.39,1.39,0,0,0,.73,0A19.18,19.18,0,0,0,36,46.56c3.39-1.68,6.55-3.72,10-5.19l.75-.3a1.14,1.14,0,0,0,.84.1,1.28,1.28,0,0,0,.8-.73,42,42,0,0,1,21.51-2.3c7.14,1.26,16,7.08,22.88,2,2.46-1.84,4-5.2,3.15-8.26a9.56,9.56,0,0,0-2.62-3.9c-.93-1-2.28-2.14-2-3.64s1.76-2.87,2.33-4.4a9.47,9.47,0,0,0,.48-4.35,10.28,10.28,0,0,0-4.39-7.41c-3.21-2.14-7.5-1.85-11-.53-3.81,1.45-7,4.07-10.34,6.27-6.6,4.27-14.8,6.95-22.7,5.7-2.14-.35-4.24-.9-6.33-1.46a75.67,75.67,0,0,0-9.1-2.28c-3-.45-6.45-.53-9,1.36S18,22.5,18.78,25.55A8.8,8.8,0,0,0,21,29.78c1.07,1,2.56,1.85,2.66,3.5.07,1.31-.85,2.48-1.5,3.54A8.65,8.65,0,0,0,20.74,40.83Zm3.63-2.9c1.4-2.28,2.58-4.83.92-7.36-.81-1.24-2.18-1.92-3.05-3.08a7.57,7.57,0,0,1-1.32-4.12c-.26-7.48,9.62-5.22,14-4,1.3.36,2.6.76,3.9,1.11a41.15,41.15,0,0,0,11.43,1.86,34.21,34.21,0,0,0,10.69-2,42.45,42.45,0,0,0,9.47-4.76c3.15-2.11,6.19-4.65,9.83-5.84,3.22-1,7.07-1.07,9.52,1.59a8,8,0,0,1,1.78,7.41c-.44,1.49-1.55,2.62-2.17,4a4.77,4.77,0,0,0,0,4.17c1.21,2.46,4.49,3.88,4.35,6.92s-2.61,4.95-5.32,5.59c-.09-.79-.17-1.59-.25-2.38a1.26,1.26,0,0,0-1.23-1.22A1.23,1.23,0,0,0,85.71,37L86,39.64a16.74,16.74,0,0,1-3.86-.5A17.13,17.13,0,0,0,82,35.85c-.08-1.56-2.52-1.57-2.44,0,0,.62.07,1.25.1,1.87,0,.23,0,.48.06.73-1.15-.36-2.29-.77-3.42-1.15-.29-.1-.57-.17-.86-.25a12.1,12.1,0,0,0-.27-3.23c-.33-1.54-2.69-.89-2.35.65a10.13,10.13,0,0,1,.2,1.9,39.87,39.87,0,0,0-4.57-.84,6.28,6.28,0,0,0-.11-2.2C68,31.8,65.62,32.45,66,34a3.33,3.33,0,0,1,0,1.33,40.91,40.91,0,0,0-5.31,0,16.63,16.63,0,0,1-.51-2.11,1.23,1.23,0,0,0-1.5-.86,1.27,1.27,0,0,0-.85,1.51,13.77,13.77,0,0,0,.38,1.69c-1.32.17-2.64.37-3.95.65A9.94,9.94,0,0,1,54,34.69a1.24,1.24,0,0,0-1.22-1.22,1.23,1.23,0,0,0-1.22,1.22,14.86,14.86,0,0,0,.36,2.1c-1.35.36-2.67.78-4,1.25-.15-.55-.27-1.1-.37-1.67A1.22,1.22,0,0,0,45.2,37c.12.64.27,1.27.44,1.89-.61.25-1.23.5-1.84.77-.81.36-1.6.76-2.38,1.16-.16-.73-.33-1.46-.56-2.17-.46-1.5-2.82-.86-2.35.65a23.25,23.25,0,0,1,.66,2.74c-1.14.63-2.28,1.26-3.44,1.86l-.48-2.12c-.36-1.53-2.71-.88-2.36.65l.6,2.58a15.14,15.14,0,0,1-3.88,1.23l-.24-1c-.07-.32-.15-.63-.23-.95s-.06-.6-.11-.69a1.2,1.2,0,0,0,0-.19v-.07a1.27,1.27,0,0,0-1.22-1.23h-.09a1.15,1.15,0,0,0-1,.61,3.47,3.47,0,0,0,.16,2.39c.08.35.16.69.25,1a4.59,4.59,0,0,1-1.79-.87,5.63,5.63,0,0,1-2.11-3.87A6,6,0,0,1,24.37,37.93Z"/><path class="cls-2" d="M42.18,31.07l27.35-3.13c1.54-.18,1.56-2.62,0-2.44L42.18,28.63C40.63,28.8,40.62,31.25,42.18,31.07Z"/><path class="cls-2" d="M75.22,19.91a1.26,1.26,0,0,0,.12.29h0a.87.87,0,0,0,.19.25h0a1.33,1.33,0,0,0,1.64.19,1.31,1.31,0,0,0,.37-1.91,1.26,1.26,0,0,0-1-.51,1.4,1.4,0,0,0-.7.18,1.44,1.44,0,0,0-.5.51,1.42,1.42,0,0,0-.17.64,1,1,0,0,0,.06.35Z"/><path class="cls-2" d="M81.38,26.37a1.09,1.09,0,0,0,.59.16h.12a1.36,1.36,0,0,0,.29,0l.13-.05h0a1.63,1.63,0,0,0,.35-.23l0,0,0,0a.62.62,0,0,0,.14-.18l0,0a1,1,0,0,0,.15-.48s0-.05,0-.07a.74.74,0,0,0,0-.21,1.46,1.46,0,0,0-.15-.53,1.28,1.28,0,0,0-1.74-.46,1.3,1.3,0,0,0-.58,1.45A1.31,1.31,0,0,0,81.38,26.37Zm1-2.22h0ZM80.9,25l0,0s0,.06,0,.09Z"/></svg>