<svg id="Layer_2" data-name="Layer 2" xmlns="http://www.w3.org/2000/svg" viewBox="0 0 73.8 77.01"><defs><style>.cls-1{fill:none;}.cls-2{fill:#333;}</style></defs><path class="cls-1" d="M17.91,61a71.51,71.51,0,0,0,5.54-9.65,22.41,22.41,0,0,0-.05-19.56,29.37,29.37,0,0,0-5.74-7.89l-.55-.52a30.44,30.44,0,0,0-6.75,22.8,29.56,29.56,0,0,0,.87,4.16A22.41,22.41,0,0,0,17.91,61Z"/><path class="cls-1" d="M20.17,23c.69.73,1.34,1.49,2,2.28a31.67,31.67,0,0,1,3,4.64,25.45,25.45,0,0,1,3,10.67c.37,8.15-4.05,15.36-8.34,21.93a25.83,25.83,0,0,0,12.44,4.33,31.56,31.56,0,0,0,10.55-.94c-.3-.55-.62-1.09-1-1.62C41,62.93,43.12,61.71,44,63a21.63,21.63,0,0,1,1.22,2.15,29.85,29.85,0,0,0,4.55-2,13.78,13.78,0,0,1-2-2.48c-.85-1.34,1.27-2.56,2.1-1.24a12,12,0,0,0,2.06,2.42,28,28,0,0,0,3.39-2.67,1.33,1.33,0,0,1-.62-.26,21.42,21.42,0,0,1-8.11-18A27.56,27.56,0,0,1,50,29.91c.88-1.68,1.88-3.29,2.92-4.88a33.75,33.75,0,0,1,3.21-4.5c-.51-.55-1.06-1.09-1.62-1.6a1.82,1.82,0,0,1-.51.34,8.78,8.78,0,0,0-2.9,2c-1.11,1.12-2.83-.61-1.73-1.73a11.6,11.6,0,0,1,3.15-2.24,25.87,25.87,0,0,0-2.6-1.71c-1.17.76-2.32,1.55-3.42,2.42a1.27,1.27,0,0,1-1.73,0,1.24,1.24,0,0,1,0-1.73c.85-.67,1.72-1.3,2.61-1.92-.32-.13-.63-.28-1-.4a24.06,24.06,0,0,0-17,.45,29.44,29.44,0,0,0-10.59,7s0,.1,0,.14l.33.32C19.48,22.24,19.83,22.6,20.17,23Z"/><path class="cls-1" d="M52.18,31A24.89,24.89,0,0,0,49,40.86a19.14,19.14,0,0,0,7.39,16.32,1.15,1.15,0,0,1,.37.51c.47-.51.92-1,1.35-1.58.19-.24.35-.49.52-.73a28.76,28.76,0,0,1-3.52-1.74,1.22,1.22,0,0,1,1.23-2.11,25,25,0,0,0,3.4,1.69l.23.12a25.78,25.78,0,0,0,2.32-5h0l-4-.46A1.26,1.26,0,0,1,57,46.65a1.24,1.24,0,0,1,1.22-1.23l4,.47a1.45,1.45,0,0,1,.65.23,26.4,26.4,0,0,0,.67-4l-4.19.14c-1.57.05-1.57-2.39,0-2.44l4.28-.14a27.78,27.78,0,0,0-.68-6L58.79,35c-1.5.5-2.13-1.86-.65-2.36l4.21-1.41A28.43,28.43,0,0,0,60.61,27l-3.48,2.27c-1.33.85-2.55-1.26-1.24-2.11l3.52-2.29c-.2-.32-.39-.65-.61-1-.34-.51-.71-1-1.09-1.49a31.93,31.93,0,0,0-2.81,4C53.94,27.91,53,29.41,52.18,31Z"/><path class="cls-2" d="M28.2,68.65A33.19,33.19,0,0,0,44.28,68a1.35,1.35,0,0,0,1-.09,1.15,1.15,0,0,0,.36-.33,31.06,31.06,0,0,0,11.92-7.21,29.91,29.91,0,0,0-6.8-47,1.11,1.11,0,0,0-1-.48,25.22,25.22,0,0,0-16.28-2.24A31.9,31.9,0,0,0,17,19.87a1.46,1.46,0,0,0-.92.62,1.58,1.58,0,0,0-.26.65A32.61,32.61,0,0,0,7.73,40.5a31.6,31.6,0,0,0,.19,5.67,26.62,26.62,0,0,0,7,15.33A26.21,26.21,0,0,0,28.2,68.65ZM58.8,23.9c.22.32.41.65.61,1l-3.52,2.29c-1.31.85-.09,3,1.24,2.11L60.61,27a28.43,28.43,0,0,1,1.74,4.26l-4.21,1.41c-1.48.5-.85,2.86.65,2.36L63,33.62a27.78,27.78,0,0,1,.68,6l-4.28.14c-1.57,0-1.57,2.49,0,2.44l4.19-.14a26.4,26.4,0,0,1-.67,4,1.45,1.45,0,0,0-.65-.23l-4-.47A1.24,1.24,0,0,0,57,46.65a1.26,1.26,0,0,0,1.22,1.22l4,.46h0a25.78,25.78,0,0,1-2.32,5l-.23-.12a25,25,0,0,1-3.4-1.69,1.22,1.22,0,0,0-1.23,2.11,28.76,28.76,0,0,0,3.52,1.74c-.17.24-.33.49-.52.73-.43.55-.88,1.07-1.35,1.58a1.15,1.15,0,0,0-.37-.51A19.14,19.14,0,0,1,49,40.86,24.89,24.89,0,0,1,52.18,31c.83-1.55,1.76-3.05,2.72-4.52a31.93,31.93,0,0,1,2.81-4C58.09,22.89,58.46,23.39,58.8,23.9Zm-40-2.46a29.44,29.44,0,0,1,10.59-7,24.06,24.06,0,0,1,17-.45c.33.12.64.27,1,.4-.89.62-1.76,1.25-2.61,1.92a1.24,1.24,0,0,0,0,1.73,1.27,1.27,0,0,0,1.73,0c1.1-.87,2.25-1.66,3.42-2.42a25.87,25.87,0,0,1,2.6,1.71,11.6,11.6,0,0,0-3.15,2.24c-1.1,1.12.62,2.85,1.73,1.73a8.78,8.78,0,0,1,2.9-2,1.82,1.82,0,0,0,.51-.34c.56.51,1.11,1.05,1.62,1.6A33.75,33.75,0,0,0,52.9,25c-1,1.59-2,3.2-2.92,4.88a27.56,27.56,0,0,0-3.43,11,21.42,21.42,0,0,0,8.11,18,1.33,1.33,0,0,0,.62.26,28,28,0,0,1-3.39,2.67,12,12,0,0,1-2.06-2.42c-.83-1.32-2.95-.1-2.1,1.24a13.78,13.78,0,0,0,2,2.48,29.85,29.85,0,0,1-4.55,2A21.63,21.63,0,0,0,44,63c-.86-1.3-3-.08-2.11,1.24.35.53.67,1.07,1,1.62a31.56,31.56,0,0,1-10.55.94,25.83,25.83,0,0,1-12.44-4.33c4.29-6.57,8.71-13.78,8.34-21.93a25.45,25.45,0,0,0-3-10.67,31.67,31.67,0,0,0-3-4.64c-.62-.79-1.27-1.55-2-2.28-.34-.36-.69-.72-1.05-1.06l-.33-.32S18.82,21.49,18.83,21.44ZM10.36,46.17a30.44,30.44,0,0,1,6.75-22.8l.55.52a29.37,29.37,0,0,1,5.74,7.89,22.41,22.41,0,0,1,.05,19.56A71.51,71.51,0,0,1,17.91,61a22.41,22.41,0,0,1-6.68-10.66A29.56,29.56,0,0,1,10.36,46.17Z"/></svg>