<svg id="Layer_2" data-name="Layer 2" xmlns="http://www.w3.org/2000/svg" viewBox="0 0 156.42 181.55"><defs><style>.cls-1{fill:none;}.cls-2{fill:#333;}</style></defs><path class="cls-1" d="M127.49,56.56c.56-.25,1.11-.52,1.65-.79a16.88,16.88,0,0,0,4.13-2.59,5.53,5.53,0,0,0,.18-7.9A36.65,36.65,0,0,1,129.78,53C129.07,54.22,128.31,55.42,127.49,56.56Z"/><path class="cls-1" d="M105.75,80.64a5.78,5.78,0,0,0,3.1,1.06c1.44,0,2.72-1,3.92-1.75a13.07,13.07,0,0,1-4.53-3.23c-1.06-1.16.66-2.89,1.72-1.73a10.85,10.85,0,0,0,5.16,3.21,1,1,0,0,1,.35.16l.23-.14,3.94-2.3a23.26,23.26,0,0,1-2.1-1.52c-1-.76-2.94-1.68-2.91-3.1A1.23,1.23,0,0,1,117,71c.67.64,1.52,1.17,2.24,1.73a8.65,8.65,0,0,0,2.59,1.63,1.11,1.11,0,0,1,.27.12c1.36-.83,2.69-1.7,4-2.59a21.82,21.82,0,0,1-3.52-2.61c-1.16-1.06.57-2.78,1.73-1.72a18.51,18.51,0,0,0,4,2.77,46.89,46.89,0,0,0,5.2-4.32,9,9,0,0,1-2.74-1.87c-1.1-1.12.62-2.85,1.73-1.73a6.25,6.25,0,0,0,2.5,1.57,1.13,1.13,0,0,1,.27.13,19.32,19.32,0,0,0,2.74-4.16.36.36,0,0,0,0-.07,21.27,21.27,0,0,1-3-1.19c-1.42-.69-.18-2.8,1.23-2.11a16.7,16.7,0,0,0,2.54,1,11.23,11.23,0,0,0-1.43-8,7.52,7.52,0,0,1-1.69,4.56,14.12,14.12,0,0,1-4.57,3.39,24.56,24.56,0,0,1-6.82,2.69,1,1,0,0,1-.52.08c-4.35.55-7.64-1.92-9.78-5.6a82.18,82.18,0,0,1-5.22-12.11c-1.5-4-3-7.93-4.67-11.82-.62-1.42,1.49-2.67,2.11-1.23,1.38,3.19,2.66,6.42,3.89,9.68a22.36,22.36,0,0,0,.63-9.35c-.23-1.54,2.12-2.2,2.35-.65a25,25,0,0,1-1.08,12.08,1.18,1.18,0,0,1-.81.79c1.18,3.13,2.41,6.27,3.84,9.3,1.5,3.19,3.69,6.75,7.69,6.57.17,0,.34,0,.5,0,.65-.71,1.25-1.46,1.83-2.23l-2.7-1.92c-1-.68-1.71-1.53-.82-2.65a1.23,1.23,0,0,1,1.73,0,1.12,1.12,0,0,1,.28.51l0,0,.45.32.78.55c.54.39,1.08.78,1.63,1.16.57-.88,1.12-1.77,1.64-2.67l.73-1.3a2.07,2.07,0,0,1-.32-.19l-2.23-1.85c-.71-.59-1.71-1.33-1.27-2.4a1.25,1.25,0,0,1,1.5-.85,1.36,1.36,0,0,1,.9,1l.13.14.37.31.75.61c.42.36.85.71,1.28,1.06a17.92,17.92,0,0,0,1.61-5,7.75,7.75,0,0,0-.15-2.67l-.23-.06-3.52-1.6a1.23,1.23,0,0,1-.44-1.67A1.26,1.26,0,0,1,129,36l1.42.64c-.28-.59-.58-1.17-.87-1.72-1.4-2.6-3.08-5-4.67-7.51A14,14,0,0,0,122,23.76c-1.54-1.21-3.48-1-5.32-1a85,85,0,0,0-11.62.63,8.41,8.41,0,0,0-6.82,5c-1.17,2.7-1.39,5.74-1.71,8.63A51.75,51.75,0,0,1,94.3,47.58c-1.21,3.65-2.75,7.18-4.29,10.71a1,1,0,0,1-.36.46c.26,7.17,4.52,13.11,10,17.6a46.59,46.59,0,0,0,4.19,3c.51.33,1.07.73,1.65,1.1A1.1,1.1,0,0,1,105.75,80.64Z"/><path class="cls-2" d="M110.81,83.76a24.65,24.65,0,0,0,3.94-2.15c4.57-2.72,9.24-5.27,13.61-8.32s8.83-6.62,11.43-11.37a13.64,13.64,0,0,0,1.79-7.79,16.12,16.12,0,0,0-3.86-8.51,1,1,0,0,0-1.27-.29A8.26,8.26,0,0,0,134,42.54c.42-5.37-3.16-10.39-6-14.73-1.69-2.58-3.24-5.81-6.3-7-1.92-.74-4.14-.47-6.15-.41q-3.29.09-6.57.26c-3.58.19-7.33.45-10.18,2.89-2.37,2-3.44,5.11-4,8.07C94.07,35.55,94,39.54,93,43.43A84.37,84.37,0,0,1,88.35,56a1.21,1.21,0,0,0-1.14,1.17A21.5,21.5,0,0,0,88.71,66a1.25,1.25,0,0,0-1.38.49c-5.67,8-11.31,15.92-17,23.86-4.69,6.54-9.48,13-14.8,19.06l-.12,0a14.76,14.76,0,0,0-9.62,1.17,93.12,93.12,0,0,0-9.14,4.75,83.19,83.19,0,0,0-15.43,11.34c-1.2,1.11-2.37,2.25-3.53,3.4a1.05,1.05,0,0,0-.42.44,1,1,0,0,0-.17.38c-1.06,2.69.91,5,3.38,6.85.08,5.26-.16,10.53-.1,15.79,0,3.37,0,6.88,1.64,9.94a11.27,11.27,0,0,0,4.07,4.35c3.68,2.3,8.35,2.56,12.56,2.2a50.05,50.05,0,0,0,6.56-1,1.17,1.17,0,0,0,.58-.13A67.45,67.45,0,0,0,53,166.64q3.12-1.11,6.13-2.49a19.76,19.76,0,0,0,5-2.91,12.73,12.73,0,0,0,2.57-3,17.75,17.75,0,0,0,1.42-4.77l2.9-11.7a75,75,0,0,0,2.26-10.12,14.88,14.88,0,0,0-.43-5.2c7-12.51,16.89-23,25.71-34.24,2.32-3,4.57-6,6.68-9.08A6.61,6.61,0,0,0,110.81,83.76Zm22.46-30.58a16.88,16.88,0,0,1-4.13,2.59c-.54.27-1.09.54-1.65.79.82-1.14,1.58-2.34,2.29-3.53a36.65,36.65,0,0,0,3.67-7.75A5.53,5.53,0,0,1,133.27,53.18ZM71,131a7.34,7.34,0,0,1-1.75-1.54,1.23,1.23,0,0,0-1.73,0,1.24,1.24,0,0,0,0,1.72,8.82,8.82,0,0,0,3.13,2.36c-.24,1.2-.56,2.4-.87,3.58l-.51,2a6.22,6.22,0,0,1-2.16-1.06,1.28,1.28,0,0,0-1.73,0,1.24,1.24,0,0,0,0,1.73,9.54,9.54,0,0,0,3.29,1.69c-.36,1.45-.72,2.89-1.07,4.34a7.08,7.08,0,0,1-2.7-1.86c-1.07-1.16-2.79.57-1.73,1.73A9.44,9.44,0,0,0,67,148.26c-.37,1.52-.75,3-1.13,4.56-.19.78-.33,1.63-.53,2.45l-4.25-3.7c-1.18-1-2.92.69-1.73,1.72l4.93,4.3a12.76,12.76,0,0,1-4.67,3.73q-1.69-1.73-3.33-3.52c-1.06-1.16-2.78.57-1.72,1.73.88,1,1.8,1.92,2.71,2.87-.86.36-1.72.7-2.55,1-.58.23-1.16.43-1.74.65l-2.34-2.35a1.22,1.22,0,0,0-1.72,1.73c.5.5,1,1,1.49,1.51-1.56.51-3.14,1-4.73,1.36a8.62,8.62,0,0,1-.8-1.2,1.22,1.22,0,0,0-2.11,1.23c.1.18.22.34.34.52-.41.08-.82.18-1.23.25-4,.68-8.32,1-12.21-.36A9.78,9.78,0,0,1,25,163.57c-2-2.66-2.11-6.08-2.15-9.28-.06-5,.13-10,.1-15,1.08.64,2.1,1.18,2.87,1.6,6.17,3.44,13,6.26,18.46,10.77A17.59,17.59,0,0,1,47,154.36l-1.34.85a1.11,1.11,0,0,0-.49-.26,2.84,2.84,0,0,1-1.85-1.19A1.22,1.22,0,0,0,41.19,155a5.37,5.37,0,0,0,1.89,1.75c-.78.45-1.56.88-2.35,1.3A29.58,29.58,0,0,0,38,155.43a1.26,1.26,0,0,0-1.73,0,1.23,1.23,0,0,0,0,1.72,29.35,29.35,0,0,1,2.24,2.07l-1.64.83c-1.41.68-.18,2.79,1.23,2.1.89-.43,1.78-.87,2.65-1.33a1.2,1.2,0,0,0,.46-.24q3.6-1.91,7-4.12a5,5,0,0,1,.35,1.86,1.23,1.23,0,0,0,2.45,0c.06-5.93-6.75-9.95-11.17-12.57-5.81-3.43-12.26-6-17.73-10a10.75,10.75,0,0,1-2.43-2.29,2.35,2.35,0,0,1-.44-1,1.47,1.47,0,0,1,.07-.62A91.91,91.91,0,0,1,33.13,120.3c2.57-1.69,5.24-3.19,8-4.63s5.47-3.12,8.52-3.89a10.2,10.2,0,0,1,4-.21l-.49.54c-1.07,1.15.65,2.88,1.73,1.73l1.37-1.54A14.49,14.49,0,0,1,59,113.87a53.11,53.11,0,0,1,7.2,6.11,17.14,17.14,0,0,1,4.07,6.14l-.14.24a1.23,1.23,0,0,0,.64,1.73c0,.12.06.24.08.37A12.89,12.89,0,0,1,71,131Zm31.66-48.29-.35-.2a11.82,11.82,0,0,1-1.77-1,1.22,1.22,0,1,0-1.24,2.1,13.74,13.74,0,0,0,2,1c-.73,1-1.49,2-2.25,3a8,8,0,0,1-2.41-1.27,1.28,1.28,0,0,0-1.73,0,1.24,1.24,0,0,0,0,1.73,12.25,12.25,0,0,0,2.62,1.56c-1.13,1.45-2.27,2.88-3.42,4.31a1.67,1.67,0,0,0-.43-.25L92,93.21l-.73-.29-.18-.07c-.47-1.28-2.59-.62-2.29.84.17.83.87,1.2,1.58,1.49l2,.81-3.12,3.79a10.1,10.1,0,0,0-3.14-1.63c-1.5-.48-2.14,1.88-.64,2.35a7.33,7.33,0,0,1,2.24,1.15q-1.5,1.81-3,3.65c-.94-.69-1.86-1.4-2.76-2.15a1.23,1.23,0,0,0-1.72,0,1.22,1.22,0,0,0,0,1.72c1,.81,1.94,1.58,3,2.32q-1.41,1.77-2.78,3.56l-.05,0c-.84-.56-1.66-1.15-2.44-1.79a1.26,1.26,0,0,0-1.73,0,1.23,1.23,0,0,0,0,1.72c.89.73,1.81,1.42,2.76,2.06-.73,1-1.47,2-2.19,3-.5.71-1,1.43-1.47,2.15a1.45,1.45,0,0,0-.36-.33l-3.48-2.16c-1.34-.83-2.57,1.28-1.23,2.11l3.48,2.16a1.25,1.25,0,0,0,.32.14c-.79,1.23-1.57,2.47-2.31,3.73-.21-.43-.44-.86-.69-1.27a31,31,0,0,0-6.85-7.28A34.58,34.58,0,0,0,58,110.35c8.67-9.94,16.07-21,23.71-31.71l7.78-10.92h0A29.76,29.76,0,0,0,96,76.39a47.34,47.34,0,0,0,7.21,5.5Zm-3-6.38c-5.48-4.49-9.74-10.43-10-17.6a1,1,0,0,0,.36-.46c1.54-3.53,3.08-7.06,4.29-10.71a51.75,51.75,0,0,0,2.22-10.51c.32-2.89.54-5.93,1.71-8.63a8.41,8.41,0,0,1,6.82-5,85,85,0,0,1,11.62-.63c1.84,0,3.78-.26,5.32,1a14,14,0,0,1,2.85,3.68c1.59,2.49,3.27,4.91,4.67,7.51.29.55.59,1.13.87,1.72L129,36a1.26,1.26,0,0,0-1.67.44,1.23,1.23,0,0,0,.44,1.67l3.52,1.6.23.06a7.75,7.75,0,0,1,.15,2.67,17.92,17.92,0,0,1-1.61,5c-.43-.35-.86-.7-1.28-1.06L128,45.8l-.37-.31-.13-.14a1.36,1.36,0,0,0-.9-1,1.25,1.25,0,0,0-1.5.85c-.44,1.07.56,1.81,1.27,2.4l2.23,1.85a2.07,2.07,0,0,0,.32.19l-.73,1.3c-.52.9-1.07,1.79-1.64,2.67-.55-.38-1.09-.77-1.63-1.16l-.78-.55-.45-.32,0,0a1.12,1.12,0,0,0-.28-.51,1.23,1.23,0,0,0-1.73,0c-.89,1.12-.14,2,.82,2.65l2.7,1.92c-.58.77-1.18,1.52-1.83,2.23-.16,0-.33,0-.5,0-4,.18-6.19-3.38-7.69-6.57-1.43-3-2.66-6.17-3.84-9.3a1.18,1.18,0,0,0,.81-.79,25,25,0,0,0,1.08-12.08c-.23-1.55-2.58-.89-2.35.65a22.36,22.36,0,0,1-.63,9.35c-1.23-3.26-2.51-6.49-3.89-9.68-.62-1.44-2.73-.19-2.11,1.23,1.69,3.89,3.17,7.85,4.67,11.82a82.18,82.18,0,0,0,5.22,12.11c2.14,3.68,5.43,6.15,9.78,5.6a1,1,0,0,0,.52-.08,24.56,24.56,0,0,0,6.82-2.69,14.12,14.12,0,0,0,4.57-3.39,7.52,7.52,0,0,0,1.69-4.56,11.23,11.23,0,0,1,1.43,8,16.7,16.7,0,0,1-2.54-1c-1.41-.69-2.65,1.42-1.23,2.11a21.27,21.27,0,0,0,3,1.19.36.36,0,0,1,0,.07,19.32,19.32,0,0,1-2.74,4.16,1.13,1.13,0,0,0-.27-.13,6.25,6.25,0,0,1-2.5-1.57c-1.11-1.12-2.83.61-1.73,1.73A9,9,0,0,0,133.58,66a46.89,46.89,0,0,1-5.2,4.32,18.51,18.51,0,0,1-4-2.77c-1.16-1.06-2.89.66-1.73,1.72a21.82,21.82,0,0,0,3.52,2.61c-1.32.89-2.65,1.76-4,2.59a1.11,1.11,0,0,0-.27-.12,8.65,8.65,0,0,1-2.59-1.63c-.72-.56-1.57-1.09-2.24-1.73a1.23,1.23,0,0,0-2.4.35c0,1.42,1.92,2.34,2.91,3.1a23.26,23.26,0,0,0,2.1,1.52l-3.94,2.3-.23.14a1,1,0,0,0-.35-.16A10.85,10.85,0,0,1,110,75c-1.06-1.16-2.78.57-1.72,1.73A13.07,13.07,0,0,0,112.77,80c-1.2.75-2.48,1.7-3.92,1.75a5.78,5.78,0,0,1-3.1-1.06,1.1,1.1,0,0,0-.26-.15c-.58-.37-1.14-.77-1.65-1.1A46.59,46.59,0,0,1,99.65,76.35Z"/></svg>