<svg id="Layer_2" data-name="Layer 2" xmlns="http://www.w3.org/2000/svg" viewBox="0 0 104.26 76.87"><defs><style>.cls-1{fill:none;}.cls-2{fill:#333;}</style></defs><path class="cls-1" d="M78.18,42.45c1.08-.11,1.41,1,1,1.78A5.42,5.42,0,0,0,83,48.46c3.63,1,8.32-.91,9.85-4.45a6.79,6.79,0,0,0-1-6.72,6.72,6.72,0,0,0-6.54-2.16,1.14,1.14,0,0,1-.61.11,9.56,9.56,0,0,0-1.15.36c-1.46.57-2.09-1.79-.65-2.35a9.39,9.39,0,0,1,1.62-.48c2.73-1.65,5.47-3.92,6.26-7.14a7.8,7.8,0,0,0-3.39-8.24c.25.88.51,1.76.76,2.64a1.22,1.22,0,0,1-2.35.65l-1.19-4.1a1.18,1.18,0,0,1,0-.25,6.2,6.2,0,0,0-5.14,1.75.08.08,0,0,1,0,.05c.59,1.74,1.17,3.47,1.75,5.21.5,1.5-1.85,2.13-2.35.65-.42-1.23-.83-2.46-1.24-3.69a13.83,13.83,0,0,0-1.89,5c.3,1.44.66,2.86,1.09,4.27a1.22,1.22,0,0,1-2.35.65c-.26-.83-.48-1.66-.69-2.5-1.26.34-2.51.69-3.76,1.05l.65,3.1c.33,1.53-2,2.18-2.35.64-.21-1-.43-2-.64-3.05-2.7.81-5.36,1.7-8,2.63l1.15,3a1.22,1.22,0,1,1-2.36.65l-1.08-2.84q-4.68,1.72-9.27,3.68L49.51,40a1.23,1.23,0,0,1-.86,1.5,1.27,1.27,0,0,1-1.5-.85c-.41-1-.82-2.06-1.22-3.09Q42.56,39,39.25,40.65l1.27,3a1.26,1.26,0,0,1-.43,1.67,1.23,1.23,0,0,1-1.67-.44l-1.35-3.16c-2.22,1.12-4.41,2.28-6.59,3.49l1.67,2.7c.83,1.34-1.28,2.56-2.11,1.23l-1.69-2.74-1.62.91a1.66,1.66,0,0,1-.32.13,1.22,1.22,0,0,1-1.38.18c-.76-.37-1.56-.73-2.38-1.07l1.23,2.18A1.22,1.22,0,0,1,21.77,50c-.65-1.15-1.3-2.3-1.94-3.45a1.1,1.1,0,0,1-.12-.9A9.47,9.47,0,0,0,16,45.5a7.15,7.15,0,0,0-1.62.53c.65,1.4,1.32,2.79,2,4.15s-1.37,2.62-2.11,1.23-1.34-2.64-2-4a6.91,6.91,0,0,0-.55,9.44A5.37,5.37,0,0,0,15.38,59a8.53,8.53,0,0,0,4.43-1.3c1.34-.7,2.52,1.22,1.38,2l-.13.2c-2.89,3.58-3.33,11.11,2,12.72C29,74.36,32.84,67,29.81,62.42c-.87-1.32,1.25-2.54,2.11-1.24h0q11.3-5.41,22.75-10.44c3.83-1.68,7.66-3.35,11.52-4.93A44,44,0,0,1,78.18,42.45Z"/><path class="cls-2" d="M66.44,48.34a46.7,46.7,0,0,1,10.44-3.27c1.36,5.28,7.07,7.21,12,5.39a10.61,10.61,0,0,0,6-5,9.24,9.24,0,0,0-.45-8.76,8.61,8.61,0,0,0-5.64-3.89,13.49,13.49,0,0,0,3.63-4.43,10.17,10.17,0,0,0-.34-9.54,9.92,9.92,0,0,0-8.06-5,9.22,9.22,0,0,0-7.35,3.54,15.61,15.61,0,0,0-3.37,8A195.17,195.17,0,0,0,25.54,45.18c-3.4-1.6-7.25-3-11-1.84a9.45,9.45,0,0,0-4,15.75,7.45,7.45,0,0,0,4.85,2.32,7.39,7.39,0,0,0,2.15-.22C16,64.89,16,69.37,18.71,72.52A8,8,0,0,0,27,75a9,9,0,0,0,5.63-5.25A9.33,9.33,0,0,0,33,63.39q11-5.26,22.11-10.17C58.84,51.56,62.63,49.92,66.44,48.34ZM31.92,61.19h0c-.86-1.3-3-.08-2.11,1.24,3,4.56-.85,11.94-6.71,10.19-5.37-1.61-4.93-9.14-2-12.72l.13-.2c1.14-.8,0-2.72-1.38-2A8.53,8.53,0,0,1,15.38,59a5.37,5.37,0,0,1-3.58-2.11,6.91,6.91,0,0,1,.55-9.44c.62,1.35,1.27,2.68,2,4s2.85.16,2.11-1.23S15,47.43,14.38,46A7.15,7.15,0,0,1,16,45.5a9.47,9.47,0,0,1,3.71.12,1.1,1.1,0,0,0,.12.9c.64,1.15,1.29,2.3,1.94,3.45a1.22,1.22,0,0,0,2.11-1.23l-1.23-2.18c.82.34,1.62.7,2.38,1.07a1.22,1.22,0,0,0,1.38-.18,1.66,1.66,0,0,0,.32-.13l1.62-.91L30,49.15c.83,1.33,2.94.11,2.11-1.23l-1.67-2.7c2.18-1.21,4.37-2.37,6.59-3.49l1.35,3.16a1.23,1.23,0,0,0,1.67.44,1.26,1.26,0,0,0,.43-1.67l-1.27-3q3.3-1.6,6.68-3.09c.4,1,.81,2.06,1.22,3.09a1.27,1.27,0,0,0,1.5.85,1.23,1.23,0,0,0,.86-1.5l-1.35-3.4q4.59-2,9.27-3.68l1.08,2.84a1.22,1.22,0,1,0,2.36-.65l-1.15-3c2.66-.93,5.32-1.82,8-2.63.21,1,.43,2,.64,3.05.32,1.54,2.68.89,2.35-.64l-.65-3.1c1.25-.36,2.5-.71,3.76-1.05.21.84.43,1.67.69,2.5a1.22,1.22,0,0,0,2.35-.65c-.43-1.41-.79-2.83-1.09-4.27a13.83,13.83,0,0,1,1.89-5c.41,1.23.82,2.46,1.24,3.69.5,1.48,2.85.85,2.35-.65-.58-1.74-1.16-3.47-1.75-5.21a.08.08,0,0,0,0-.05,6.2,6.2,0,0,1,5.14-1.75,1.18,1.18,0,0,0,0,.25l1.19,4.1A1.22,1.22,0,0,0,88.22,20c-.25-.88-.51-1.76-.76-2.64a7.8,7.8,0,0,1,3.39,8.24c-.79,3.22-3.53,5.49-6.26,7.14a9.39,9.39,0,0,0-1.62.48c-1.44.56-.81,2.92.65,2.35a9.56,9.56,0,0,1,1.15-.36,1.14,1.14,0,0,0,.61-.11,6.72,6.72,0,0,1,6.54,2.16,6.79,6.79,0,0,1,1,6.72c-1.53,3.54-6.22,5.46-9.85,4.45a5.42,5.42,0,0,1-3.84-4.23c.41-.77.08-1.89-1-1.78a44,44,0,0,0-12,3.37c-3.86,1.58-7.69,3.25-11.52,4.93Q43.21,55.78,31.92,61.19Z"/></svg>