<svg id="Layer_2" data-name="Layer 2" xmlns="http://www.w3.org/2000/svg" viewBox="0 0 112.79 140.05"><defs><style>.cls-1{fill:none;}.cls-2{fill:#333;}</style></defs><path class="cls-1" d="M77.48,127.74h0q-2.62-13.06-6.32-25.88-10.11.43-20.2,1.23l-2,25.76q7-.59,14-1A94.08,94.08,0,0,1,77.48,127.74Z"/><path class="cls-1" d="M42.63,96q-1.58,19.83-3.13,39.67v0l.57,0,3.24-.15,6.5-.3,12.53-.58,25.52-1.18a1.33,1.33,0,0,1,.42.06,1.69,1.69,0,0,1-.15-.36l-.81-3.34a24,24,0,0,0-4-.17c-1.57.06-1.56-2.38,0-2.44a23.68,23.68,0,0,1,3.37.11c-.37-1.51-.74-3-1.1-4.53a1.09,1.09,0,0,1-.51-.36H85l-.74.1-1.61.21c-.66.09-1.22-.63-1.22-1.22a1.27,1.27,0,0,1,1.22-1.22c.57-.07,1.43-.26,2.25-.29q-.6-2.51-1.22-5a13.1,13.1,0,0,1-2.42.2,1.23,1.23,0,0,1,0-2.45,10.3,10.3,0,0,0,1.84-.14c-.31-1.26-.61-2.52-.92-3.78l-3.07.48a1.25,1.25,0,0,1-1.5-.85,1.22,1.22,0,0,1,.85-1.5l3.14-.5q-.72-3-1.45-6a16.17,16.17,0,0,1-3.68.14c-1.56-.12-1.57-2.56,0-2.44a15.25,15.25,0,0,0,3.1-.08l-.87-3.6a295.91,295.91,0,0,0-36,1.46Zm6.9,4.75q11.6-.94,23.21-1.41a1.2,1.2,0,0,1,.87,2q3.83,13.22,6.48,26.72a1.3,1.3,0,0,1-1.55,1.5,1,1,0,0,1-1.06.57,95.36,95.36,0,0,0-14.44.14q-7.24.41-14.47,1h-.24a1.17,1.17,0,0,1-1.89-1q1.08-13.78,2.15-27.57A1.3,1.3,0,0,1,49.53,100.77Z"/><path class="cls-2" d="M85.33,46.24C88.22,45,91.23,44,94,42.48a24.1,24.1,0,0,0,7.2-5.93c3.92-4.67,6.22-10.57,5.13-16.71-1-5.49-4.75-10.67-10.19-12.38A13.79,13.79,0,0,0,83,10.24c0-.75,0-1.5,0-2.26a1.14,1.14,0,0,0-.71-1.07h0l-.07,0a1.45,1.45,0,0,0-.42-.12C65,5.29,48.18,7.17,31.56,9.06a1.36,1.36,0,0,0-1,2.06,1.31,1.31,0,0,0-.06.41c0,.64,0,1.29.05,1.93A13.79,13.79,0,0,0,18.52,11.6c-5.4,1.69-9,6.76-9.94,12.23-1,6,1.24,11.77,5.26,16.23a25,25,0,0,0,7.47,5.78,52.6,52.6,0,0,0,9.08,3c2.59.72,7.5,1.55,8.13,4.79a2.8,2.8,0,0,1-1.86,3.14c-1.56.55-3.06-.63-2.37-2.28.59-1.45-1.77-2.09-2.36-.65a4.09,4.09,0,0,0,4.14,5.51,5.27,5.27,0,0,0,4.78-4A26.91,26.91,0,0,0,44.21,59a23.85,23.85,0,0,0,11.89,5.7q.57,13.89,1.13,27.78-7.24.38-14.48,1.1a1.29,1.29,0,0,0-.61.24,1.3,1.3,0,0,0-1.86,1l-3.21,40.6a1.38,1.38,0,0,0-.56,2.69,8.61,8.61,0,0,0,3.08,0L43.3,138l14.85-.69,29.7-1.37a1.28,1.28,0,0,0,1-1.92,1.26,1.26,0,0,0,1.61-1.47c-.25-1-.49-2-.74-3a1.13,1.13,0,0,0-.43-1.79q-3.42-14.06-6.85-28.1a1.32,1.32,0,0,0-.36-1.49l-1.23-5a1.09,1.09,0,0,0-1.2-.86,1.32,1.32,0,0,0-.51-.12Q72,92,64.81,92.17q-.36-14.06-1-28.11a24.76,24.76,0,0,0,13.68-11,5.27,5.27,0,0,0,4.55,3.49,4.14,4.14,0,0,0,4.07-6.11A1.22,1.22,0,0,0,84,51.69a1.67,1.67,0,0,1-1.7,2.45,2.8,2.8,0,0,1-2.5-1.79C78.59,49.12,83.1,47.21,85.33,46.24Zm-49.11,2a99.35,99.35,0,0,0-9.56-2.91c-6.19-1.91-11.72-6-14.47-12C9.71,27.88,10.48,21,14.74,16.68s11.93-4.42,16,.25a116.44,116.44,0,0,0,2.35,20,58.46,58.46,0,0,0,3.7,11.56C36.59,48.36,36.4,48.27,36.22,48.2Zm42.5,46.36.87,3.6a15.25,15.25,0,0,1-3.1.08c-1.57-.12-1.56,2.32,0,2.44a16.17,16.17,0,0,0,3.68-.14q.73,3,1.45,6l-3.14.5a1.22,1.22,0,0,0-.85,1.5,1.25,1.25,0,0,0,1.5.85l3.07-.48c.31,1.26.61,2.52.92,3.78a10.3,10.3,0,0,1-1.84.14,1.23,1.23,0,0,0,0,2.45,13.1,13.1,0,0,0,2.42-.2q.61,2.5,1.22,5c-.82,0-1.68.22-2.25.29a1.27,1.27,0,0,0-1.22,1.22c0,.59.56,1.31,1.22,1.22l1.61-.21.74-.1h.07a1.09,1.09,0,0,0,.51.36c.36,1.51.73,3,1.1,4.53a23.68,23.68,0,0,0-3.37-.11c-1.56.06-1.57,2.5,0,2.44a24,24,0,0,1,4,.17l.81,3.34a1.69,1.69,0,0,0,.15.36,1.33,1.33,0,0,0-.42-.06l-25.52,1.18-12.53.58-6.5.3-3.24.15-.57,0v0Q41.06,115.86,42.63,96h.12A295.91,295.91,0,0,1,78.72,94.56ZM77.26,33.7l2-.1,1-.05.3,0a61.58,61.58,0,0,1-1,7.23,10.48,10.48,0,0,0-1.42-.15l-2.78-.16c-1.57-.09-1.57,2.35,0,2.44l2.09.12a7,7,0,0,1,1.57.1,35.15,35.15,0,0,1-2.37,6.51c-1-.09-2-.15-3.06-.16a1.22,1.22,0,0,0,0,2.44c.59,0,1.18,0,1.77.07a25.93,25.93,0,0,1-1.62,2.31,21.6,21.6,0,0,1-3.21,3.27.79.79,0,0,0-.34-.14c-1-.19-2-.42-3-.69a1.22,1.22,0,0,0-.65,2.35c.45.13.9.24,1.35.35A25.75,25.75,0,0,1,62.26,62l-.17.07-.06,0h0a1.06,1.06,0,0,0-.64,1.07c0,.7,0,1.4.08,2.1l-.36,0-.82,0A1.23,1.23,0,0,0,59,66.53a1.25,1.25,0,0,0,1.22,1.22,6.83,6.83,0,0,0,1.28,0l.18,4.52a3.37,3.37,0,0,0-1.78.25,1.23,1.23,0,0,0-.44,1.68,1.26,1.26,0,0,0,1.67.43l0,0h0c-.16.07,0,0,0,0h.21c.06,0,.33.14.07,0a1.61,1.61,0,0,0,.36.1c0,1.28.1,2.55.14,3.82l-1.08.09a1.22,1.22,0,0,0,0,2.44L62,81c.06,1.86.11,3.72.17,5.59h-.62a.92.92,0,0,1-.18,0,1.22,1.22,0,1,0-.65,2.36,6,6,0,0,0,1.52.07c0,1.08.07,2.16.1,3.24l-2.7.11L58.5,63.67c0-.05,0-.09,0-.13a1,1,0,0,0-.88-1C39.68,60,35.08,39.69,33.67,24.56c-.41-4.34-.59-8.68-.69-13a1.11,1.11,0,0,0,0-.19C48.73,9.55,64.65,7.87,80.52,9.11c0,1.76.08,3.51.14,5.27a18.6,18.6,0,0,1-3.73,0c-1.57-.15-1.56,2.29,0,2.44a19.4,19.4,0,0,0,3.81,0q.11,2.93.15,5.86a26.42,26.42,0,0,1-3.21.06c-1.57-.07-1.56,2.37,0,2.44a26.79,26.79,0,0,0,3.23-.06c0,2,0,4-.16,6a1.51,1.51,0,0,0-.3,0c-1.07,0-2.13.1-3.19.16C75.7,31.33,75.69,33.78,77.26,33.7Zm6.07-12.42c0-2.48-.14-5-.23-7.43,2.85-4.4,9.19-5.78,13.81-3.48,5.4,2.69,8.07,9.29,7.11,15.09-1.06,6.35-5.77,12-11.4,15C89.77,42,86.7,43,83.76,44.28a20.48,20.48,0,0,0-3,1.57C83.28,38,83.49,29.46,83.33,21.28Z"/><path class="cls-2" d="M48.33,131.33h.24q7.23-.6,14.47-1a95.36,95.36,0,0,1,14.44-.14,1,1,0,0,0,1.06-.57,1.3,1.3,0,0,0,1.55-1.5q-2.66-13.49-6.48-26.72a1.2,1.2,0,0,0-.87-2q-11.62.47-23.21,1.41a1.3,1.3,0,0,0-.94,2q-1.08,13.78-2.15,27.57A1.17,1.17,0,0,0,48.33,131.33ZM51,103.1q10.08-.8,20.2-1.23,3.71,12.81,6.32,25.88h0a94.08,94.08,0,0,0-14.44.14q-7,.39-14,1Z"/></svg>