<svg id="Layer_2" data-name="Layer 2" xmlns="http://www.w3.org/2000/svg" viewBox="0 0 140.57 266.23"><defs><style>.cls-1{fill:none;}.cls-2{fill:#333;}</style></defs><path class="cls-1" d="M78.91,101a4.7,4.7,0,0,0-5.15-2.53,6.59,6.59,0,0,0-5.52,5.42c-.19,2.6.67,5.33,3.48,6C76.43,110.94,80.73,105.39,78.91,101Z"/><path class="cls-1" d="M47.53,104.25a18.16,18.16,0,0,0-2-5.14c-1.49-2.6-4.17-5.89-7.3-6.84a1.28,1.28,0,0,1-.83.42L29.78,97l10,17.71a44.56,44.56,0,0,1,7.5-4.59,1,1,0,0,1,.48-.53c.41-.23.17-2.1.15-2.51A16.17,16.17,0,0,0,47.53,104.25Z"/><path class="cls-1" d="M81.16,120.17a19.87,19.87,0,0,0,10-18.08A16.67,16.67,0,0,0,73.73,86.57C66.89,86.89,60.3,91.34,58.18,98a21,21,0,0,0,3.63,19.2C66.64,122.88,74.75,123.69,81.16,120.17Zm-10.91-8.43c-3.22-1.27-4.47-4.57-4.24-7.84a8.84,8.84,0,0,1,8.22-7.69,6.73,6.73,0,0,1,6.94,4.53,9.32,9.32,0,0,1-2.81,9.38A8.16,8.16,0,0,1,70.25,111.74Z"/><path class="cls-1" d="M38.33,79.93c.38.41.74.34,1.16,0s.42-1.11.11-1.69l-1.85,1C37.94,79.47,38.12,79.71,38.33,79.93Z"/><path class="cls-1" d="M74.24,138.27c11.78-6.75,23.47-13.66,34.85-21.06-.35-.59-.71-1.18-1.06-1.78-.6.25-1.19.49-1.78.78a1.12,1.12,0,0,1-1.12-1.93c.57-.27,1.16-.53,1.75-.78-.68-1.14-1.36-2.27-2-3.41l-.1.06-.52.29-1.2.69a1.11,1.11,0,0,1-1.13-1.92l1.82-1-3-5.14a25.82,25.82,0,0,0-2.46,1.25,1.11,1.11,0,0,1-1.13-1.92,27.41,27.41,0,0,1,2.48-1.25L97.19,97l-1.35.76a1.12,1.12,0,0,1-1.12-1.93L96.08,95c-.77-1.34-1.52-2.68-2.28-4l-1.41.69a1.14,1.14,0,0,1-1.53-.4,1.12,1.12,0,0,1,.4-1.52l1.43-.71-1.27-2.23a1.07,1.07,0,0,1-.1-.86c-4.37-.72-8.1-5-10-8.71a20.67,20.67,0,0,1-2.18-6.8c-.19-1.41-.59-3.79.21-5.24l-4.65-8.31-1.8,1.2a3.8,3.8,0,0,1,.85,2.49A3.71,3.71,0,0,1,72,63.15a3.67,3.67,0,0,1-3.14.54,4.18,4.18,0,0,1-1.78-1.8Q62,65.16,56.83,68.28A3.26,3.26,0,0,1,57.25,71a4.57,4.57,0,0,1-1.94,2.16c-1.8,1.13-3.46.16-4.67-1.22-3,1.76-6.07,3.51-9.13,5.21.8,1.62.87,3.43-.88,4.65a3,3,0,0,1-3.1.33,6.13,6.13,0,0,1-1.75-1.86c-1,.53-2,1-3,1.56,1.61,2.67,3.21,5.33,4.81,8,4.44.65,8.21,5,10.16,8.73A20.38,20.38,0,0,1,50,105.4c.18,1.35.56,3.61-.13,5.07Q59,126.09,68,141.84ZM58.52,116.42c-4-6.39-4.81-15.56-1.11-22.25A19.88,19.88,0,0,1,77,84.48a18.92,18.92,0,0,1,16.31,17.61c.39,9.27-5.44,18.46-14.35,21.44a18.13,18.13,0,0,1-12.14,0A17.33,17.33,0,0,1,58.52,116.42Z"/><path class="cls-1" d="M74,54.68a1.24,1.24,0,0,1,.84-.57c2.37-1.6,4.72-3.21,7.06-4.85l-2.37-3.92q-4.89,3.24-9.86,6.38c-1.21.77-2.33-1.16-1.12-1.93,3.3-2.08,6.58-4.21,9.84-6.36q-1.24-2.05-2.48-4.11a.48.48,0,0,1-.08-.16q-6.21,4.11-12.53,8.06-6.93,4.34-13.95,8.51a1.35,1.35,0,0,1-.51.31C38.33,62.32,27.68,68.4,17,74.46l2.67,4.19c14.13-8,28.23-16.08,42.06-24.6A1.11,1.11,0,0,1,62.88,56C49.07,64.48,35,72.53,20.89,80.54L23.1,84a1.37,1.37,0,0,1,.13.31l.39-.2.06,0,.09,0q3.06-1.53,6.1-3.12A1.17,1.17,0,0,1,31.55,80c1.6-.84,3.21-1.68,4.8-2.55Q55.72,67,74,54.68Z"/><path class="cls-1" d="M54.19,71.27a2.26,2.26,0,0,0,1-1,1.09,1.09,0,0,0-.19-.84l-2.38,1.42C53,71.31,53.58,71.64,54.19,71.27Z"/><path class="cls-1" d="M69.54,61.46a1,1,0,0,0,1.1-.09c.41-.22.85-.62.82-1.1a1.93,1.93,0,0,0-.42-.93l-2.1,1.36A2.35,2.35,0,0,0,69.54,61.46Z"/><path class="cls-1" d="M113.69,116.86l-1.61,1a1.13,1.13,0,0,1-1.81,1.18c-2.51,1.63-5,3.25-7.56,4.83-12.45,7.79-25.21,15.08-38,22.33l0,0-.07.08a2.09,2.09,0,0,0-.22,2.56,2.47,2.47,0,0,0,2.49,1.33,1.11,1.11,0,0,1,.24-.16q5.69-2.84,11.27-5.87A381.34,381.34,0,0,0,115.92,121a3,3,0,0,0,.5-3.55A1.76,1.76,0,0,0,113.69,116.86Z"/><path class="cls-1" d="M62,45.42a9.13,9.13,0,0,1-1-1.17c-.23-.3-.52-.8-1-.77-1.18.09-.21,2.06.29,3Z"/><path class="cls-1" d="M79.72,53.5c.31.42.72.79,1.15.5s.42-.92.21-1.44Z"/><path class="cls-1" d="M109.32,61.21l-1-1.69-1.92,1c.36.58.71,1.17,1.05,1.76Q108.39,61.8,109.32,61.21Z"/><path class="cls-1" d="M103,73.15a1,1,0,0,1,.34-.15,47.51,47.51,0,0,0,2.7-8.66c-.71-1.26-1.45-2.49-2.22-3.72-2.52-.15-4.93-.86-7.45-1a1.11,1.11,0,0,1-.47.62L92.57,62.4Q96.14,68.72,99.72,75A28.33,28.33,0,0,0,103,73.15Z"/><path class="cls-1" d="M45,55.77l2-1.21a3.87,3.87,0,0,0-1.82-1.38c-1.76-.51-.6,2-.23,2.59Z"/><path class="cls-1" d="M71.23,39.53l1.56-1c-.44-.7-1-1.51-1.86-1.49-1.37,0-.21,1.82.18,2.32A1.45,1.45,0,0,1,71.23,39.53Z"/><path class="cls-1" d="M81.56,71.62a18.19,18.19,0,0,0,2,5.14c1.51,2.64,4.25,6,7.44,6.88a1.18,1.18,0,0,1,.27-.22l8-4.57-.8-1.41c-1.14.65-2.25,1.33-3.34,2.07s-2.3-1.13-1.12-1.93,2.22-1.42,3.36-2.08C96.7,74.23,96,73,95.27,71.69L93.39,73a1.11,1.11,0,0,1-1.52-.4,1.13,1.13,0,0,1,.4-1.52l1.9-1.29c-.69-1.21-1.37-2.42-2-3.63l-2.51,1.67c-1.19.8-2.31-1.13-1.12-1.92L91,64.18l-1.72-3a45.05,45.05,0,0,1-7.51,4.59,1.07,1.07,0,0,1-.47.53c-.41.23-.17,2.1-.15,2.51A17.14,17.14,0,0,0,81.56,71.62Z"/><path class="cls-1" d="M82.22,174.54l1.44-2.67a29.77,29.77,0,0,0-3.4-.1c.61,1.09,1.22,2.18,1.81,3.27A1.24,1.24,0,0,1,82.22,174.54Z"/><path class="cls-1" d="M30.09,230.31a1.17,1.17,0,0,1-.19.68c6.09,9.56,12.7,18.76,19.31,28,16.59-.67,29.85-9.26,41.55-20.53,12.62-12.15,24.7-27.19,24.88-45.61l-1.43-1.11c-.84,1.24-1.64,2.51-2.37,3.83s-2.82.05-2.06-1.32,1.61-2.71,2.5-4q-2.62-2-5.26-4c-.75,1.16-1.48,2.34-2.16,3.55-.78,1.37-2.83,0-2.06-1.32s1.48-2.5,2.27-3.71c-1.33-1-2.67-2-4-3l-2,3.6c-.75,1.39-2.79.05-2-1.32s1.36-2.5,2-3.75l-3.27-2.44L94.29,181a1.22,1.22,0,0,1-1.68.37,1.26,1.26,0,0,1-.37-1.69c.53-1.12,1.05-2.25,1.58-3.37-1-.75-2-1.5-3-2.24a1.23,1.23,0,0,1-.51-.86,29.46,29.46,0,0,0-4-1l-2,3.66a1.07,1.07,0,0,1-1.7.29,1.12,1.12,0,0,1-2.06.69q-1.32-2.46-2.69-4.89c-9.77,1.07-18.88,6.67-26.24,13.58C39.33,197.05,29.73,213.1,30.09,230.31ZM69.5,180.06l.11-.16a1.19,1.19,0,0,1,1.45-.43,32.07,32.07,0,0,1,6.47-1.61h.19l.12,0c5-.32,10.38,1.1,12.7,5.95C93.37,189.7,90,197,87.1,202.21c-7.25,13.27-18.19,25.59-31.81,32.48-8.24,4.17-18,3.76-18.85-7.25-.78-9.88,4.13-19.92,9.7-27.72C51.86,191.7,60,183.91,69.5,180.06Z"/><path class="cls-1" d="M40.16,232.06c4.19,6.7,13.84.83,18.57-2.12a69.76,69.76,0,0,0,18-16.56C81.22,207.5,85.85,201,88.1,193.9a15.46,15.46,0,0,0,.78-4.79l-1.18,1.74c-.88,1.29-2.94,0-2-1.32s1.75-2.57,2.62-3.85c0,0,0,0,0,0a7.73,7.73,0,0,0-3.6-4.1L82.77,185c-.76,1.38-2.81,0-2-1.32l1.68-3a14.57,14.57,0,0,0-3.92-.41,1.42,1.42,0,0,1-.14.46l-2.25,4.21c-.74,1.39-2.79.06-2.06-1.32l1.56-2.91a33.06,33.06,0,0,0-4.48,1.36,25.37,25.37,0,0,0-2.42,4.58c-.58,1.45-2.91.73-2.33-.73.3-.74.63-1.46,1-2.17-9,4.62-16.62,12.87-21.68,21.14C41.62,211.47,35.38,224.4,40.16,232.06Z"/><path class="cls-2" d="M81.17,100.74a6.73,6.73,0,0,0-6.94-4.53A8.84,8.84,0,0,0,66,103.9c-.23,3.27,1,6.57,4.24,7.84a8.16,8.16,0,0,0,8.11-1.62A9.32,9.32,0,0,0,81.17,100.74Zm-9.45,9.13c-2.81-.64-3.67-3.37-3.48-6a6.59,6.59,0,0,1,5.52-5.42A4.7,4.7,0,0,1,78.91,101C80.73,105.39,76.43,110.94,71.72,109.87Z"/><path class="cls-2" d="M36.44,227.44c.87,11,10.61,11.42,18.85,7.25,13.62-6.89,24.56-19.21,31.81-32.48C90,197,93.37,189.7,90.54,183.78c-2.32-4.85-7.74-6.27-12.7-5.95l-.12,0h-.19a32.07,32.07,0,0,0-6.47,1.61,1.19,1.19,0,0,0-1.45.43l-.11.16C60,183.91,51.86,191.7,46.14,199.72,40.57,207.52,35.66,217.56,36.44,227.44Zm30.9-43.71c-.35.71-.68,1.43-1,2.17-.58,1.46,1.75,2.18,2.33.73a25.37,25.37,0,0,1,2.42-4.58,33.06,33.06,0,0,1,4.48-1.36L74,183.6c-.73,1.38,1.32,2.71,2.06,1.32l2.25-4.21a1.42,1.42,0,0,0,.14-.46,14.57,14.57,0,0,1,3.92.41l-1.68,3c-.76,1.37,1.29,2.7,2,1.32l1.92-3.43a7.73,7.73,0,0,1,3.6,4.1s0,0,0,0c-.87,1.28-1.75,2.56-2.62,3.85s1.17,2.61,2,1.32l1.18-1.74a15.46,15.46,0,0,1-.78,4.79c-2.25,7.13-6.88,13.6-11.41,19.48a69.76,69.76,0,0,1-18,16.56c-4.73,2.95-14.38,8.82-18.57,2.12-4.78-7.66,1.46-20.59,5.5-27.19C50.72,196.6,58.3,188.35,67.34,183.73Z"/><path class="cls-2" d="M79,123.53c8.91-3,14.74-12.17,14.35-21.44A18.92,18.92,0,0,0,77,84.48a19.88,19.88,0,0,0-19.63,9.69c-3.7,6.69-2.89,15.86,1.11,22.25a17.33,17.33,0,0,0,8.34,7.06A18.13,18.13,0,0,0,79,123.53Zm-17.19-6.35A21,21,0,0,1,58.18,98c2.12-6.64,8.71-11.09,15.55-11.41a16.67,16.67,0,0,1,17.39,15.52,19.87,19.87,0,0,1-10,18.08C74.75,123.69,66.64,122.88,61.81,117.18Z"/><path class="cls-2" d="M118,121.92a5.17,5.17,0,0,0,.24-5.85,4,4,0,0,0-5.64-1.14L111,116q-9-15-17.58-30.22a1.19,1.19,0,0,0,.24-1.12l6.92-3.93a1,1,0,0,0,.53-1,1.08,1.08,0,0,0,.45-1.51L100.81,77a30.39,30.39,0,0,0,2.9-1.63.9.9,0,0,0,1.27-.48,50.26,50.26,0,0,0,3.3-10.23,1.46,1.46,0,0,0,0-.29,25.24,25.24,0,0,0,2.93-1.69.43.43,0,0,0,.1-.09,1,1,0,0,0,.49-1.52c-.55-.91-1.1-1.81-1.64-2.72a1.15,1.15,0,0,0-1.57-1.48l-.08,0a1.23,1.23,0,0,0-.7.37l-2.58,1.36a1,1,0,0,0-.57-.18c-2.83,0-5.5-.89-8.3-1a.94.94,0,0,0-1,.75,1,1,0,0,0-.56.17l-3.32,2.15-.29-.5a1,1,0,0,0-1.09-.53,1.25,1.25,0,0,0-1.78-.31A42.56,42.56,0,0,1,81,63.65q-2.23-4-4.46-8l1.39-.94c1,1.26,2.52,2.18,4.11,1.17s1.67-3.06.9-4.64c.35-.24.71-.48,1-.73a1.2,1.2,0,0,0,.4-1.52L77.86,38.2a1.07,1.07,0,0,0-.59-.48,1.08,1.08,0,0,0-1.63-1.07l-1,.65c-1.15-1.64-2.9-3.22-5-2.22a2.82,2.82,0,0,0-1.55,2.75,5.18,5.18,0,0,0,1.33,2.9l-2,1.3a1,1,0,0,0-.13-.37A81.23,81.23,0,0,0,58.3,28.48s0-.05,0-.07a1,1,0,0,0-.3-.32c-1.23-1.43-2.51-2.81-3.85-4.12-.62-.61-1.27-1.21-1.94-1.79,0,0,0-.05,0-.07a1.07,1.07,0,0,0-.63-.49,32.34,32.34,0,0,0-7.39-4.78,1,1,0,0,0-1.33-.56,17.86,17.86,0,0,0-8.5-1.17l-.22,0a1.13,1.13,0,0,0-.14-.4c-1-1.65-2-3.31-3-5a1.12,1.12,0,0,0-1.86-.06l-.18.07c-1.25.69-2.47,1.42-3.68,2.15a1.14,1.14,0,0,0-.29-.62,32.26,32.26,0,0,1-4.2-6.1,1,1,0,0,0-1.14-.52,1.07,1.07,0,0,0-.95,0A31.36,31.36,0,0,0,13,8.61a1,1,0,0,0,.39,1.75l3.69,6.81L12.3,20.35a1.14,1.14,0,0,0-.4,1.52l2.61,4.33a1,1,0,0,0,1.11.51A25.71,25.71,0,0,0,12,43.12c.81,8.91,4.48,17.64,9.5,25,.8,1.18,2.73.06,1.92-1.12a54.24,54.24,0,0,1-8.78-20.86c-1.27-7.12-.5-15,4.63-20.51a26.49,26.49,0,0,1,6.08-4.34,29.26,29.26,0,0,1,6.82-3.48,14.88,14.88,0,0,1,8.24.07l-.83.56c-1.19.79-.07,2.72,1.12,1.92L43,18.8c.48.2.94.43,1.4.66a17,17,0,0,0-1.76,1.3,1.11,1.11,0,1,0,1.57,1.57,13,13,0,0,1,2.44-1.56c.89.57,1.76,1.2,2.59,1.85l-1,.64a1.11,1.11,0,0,0,1.12,1.92L51,24.12l.11.09c.46.41.9.85,1.35,1.28l-.4.24a1.11,1.11,0,1,0,1.12,1.92l.89-.54c.51.54,1,1.08,1.51,1.63-.42.25-.86.47-1.3.68a1.11,1.11,0,0,0-.4,1.52,1.13,1.13,0,0,0,1.52.4,17.49,17.49,0,0,0,1.65-.89q1.92,2.32,3.63,4.82a5.6,5.6,0,0,0-1.6,1,1.12,1.12,0,0,0,0,1.58,1.14,1.14,0,0,0,1.57,0,3.44,3.44,0,0,1,1.27-.7q1.8,2.78,3.38,5.64a1.2,1.2,0,0,0,.3.36l-1.67,1.07-.14-.15c-.82-.66-1.23-1.68-2.1-2.29a2.77,2.77,0,0,0-2.93-.16c-2.36,1.31-1.37,4.11-.3,6q-4.76,2.93-9.56,5.79c-1.21-1.59-3.2-3.08-5.14-2.37C41.16,52,42,55.1,43,56.89h0c-3.42,2-6.85,4-10.28,6-.61-.89-1-1.85-2.15-2.24a3.25,3.25,0,0,0-3.34.7c-1.13,1.17-1,3.34,0,4.69l-6.18,3.52c-1.43-1.6-3.72-2.45-5.64-1A3.17,3.17,0,0,0,15,73.2h0a1,1,0,0,0-.43,1.49l6.63,10.42a1,1,0,0,0,.82.51,1.17,1.17,0,0,0,1.68,1l.17-.09a6,6,0,0,0,1,1.42,2.72,2.72,0,0,0,2.73.66,2.68,2.68,0,0,0,1.85-2.28A3.84,3.84,0,0,0,28.83,84c.67-.34,1.35-.69,2-1q2.32,3.84,4.62,7.67a1.43,1.43,0,0,0,0,.65l-6.92,3.93a1,1,0,0,0-.53,1,1.07,1.07,0,0,0-.44,1.5l.7,1.25a31.67,31.67,0,0,0-2.9,1.63.9.9,0,0,0-1.27.48,50.35,50.35,0,0,0-3.29,10.22,1.56,1.56,0,0,0,0,.3,25.24,25.24,0,0,0-2.93,1.69.87.87,0,0,0-.11.09,1,1,0,0,0-.48,1.52c.55.9,1.09,1.81,1.64,2.72A1.14,1.14,0,0,0,20.49,119l.08,0a1.29,1.29,0,0,0,.7-.37c.86-.46,1.72-.9,2.57-1.36a1.14,1.14,0,0,0,.58.18c2.82,0,5.49.88,8.3,1a.94.94,0,0,0,1-.75,1,1,0,0,0,.56-.17l3.32-2.15.29.5a1,1,0,0,0,1.09.53,1.23,1.23,0,0,0,1.77.3,43.26,43.26,0,0,1,7.49-4.6q9,15.35,17.78,30.8l-2.44,1.39a1.24,1.24,0,0,0-.32.27,1.43,1.43,0,0,0-.26.19c-3,2.93,0,7.87,3.83,7.68,3.12,5.79,6.44,11.46,9.68,17.18-9.46,1.35-18.34,6.58-25.63,13.19-13.2,12-23.63,29.11-23.25,47.37a1,1,0,0,0,.06.35,1,1,0,0,0-.14,1.31c6.29,9.89,13.13,19.39,20,28.91a1,1,0,0,0,.46.52.93.93,0,0,0,.92.11c17.34-.62,31.25-9.37,43.49-21.16,13.22-12.73,25.8-28.61,25.7-48a1.19,1.19,0,0,0-.31-.81,1.27,1.27,0,0,0-.25-.27l-2-1.57a1.27,1.27,0,0,0-1.64-1.28q-10.44-8.08-21.1-15.87a1.19,1.19,0,0,0-.8-1.3,32.88,32.88,0,0,0-5.14-1.37,1.16,1.16,0,0,0-1.86-.28,31.83,31.83,0,0,0-6-.13c-3.33-5.92-6.78-11.77-10-17.75a378.42,378.42,0,0,0,37.78-21.76q4.82-3.16,9.54-6.48,1.23,2.16,2.47,4.32a11.87,11.87,0,0,1-1.18.6,1.13,1.13,0,0,0-.4,1.53,1.16,1.16,0,0,0,1.53.4,12.55,12.55,0,0,0,1.15-.6l2,3.45-1.24.75a1.12,1.12,0,0,0,1.12,1.93l1.23-.74c.65,1.12,1.29,2.24,1.93,3.37l-.46.34-.44.33h-.13a1.13,1.13,0,0,0-1.11,1.11c-.14,1.08,1.22,1.5,2,1.07a9.61,9.61,0,0,0,1.26-.89l2.24,3.91-1.6,1a1.11,1.11,0,1,0,1.12,1.92l1.59-1,1.06,1.85a1.11,1.11,0,0,0,1.92-1.12Q125.13,134.43,118,121.92ZM15.42,9.48A30,30,0,0,1,19.17,7a34.8,34.8,0,0,0,4.18,5.9l.12.11c-1.52,1-3,1.93-4.54,2.93Zm10.49,8.85a54.7,54.7,0,0,0-6.21,3.82,20.73,20.73,0,0,0-3.14,3.22.94.94,0,0,0-.12-.3l-2.07-3.43c5-3.34,10-6.76,15.26-9.7l2.22,3.66A24.33,24.33,0,0,0,25.91,18.33ZM83.66,171.87l-1.44,2.67a1.24,1.24,0,0,0-.15.5c-.59-1.09-1.2-2.18-1.81-3.27A29.77,29.77,0,0,1,83.66,171.87Zm-3.15,5a1.12,1.12,0,0,0,2.06-.69,1.07,1.07,0,0,0,1.7-.29l2-3.66a29.46,29.46,0,0,1,4,1,1.23,1.23,0,0,0,.51.86c1,.74,2,1.49,3,2.24-.53,1.12-1,2.25-1.58,3.37a1.26,1.26,0,0,0,.37,1.69,1.22,1.22,0,0,0,1.68-.37l1.52-3.23,3.27,2.44c-.67,1.25-1.35,2.5-2,3.75s1.3,2.71,2,1.32l2-3.6c1.35,1,2.69,2,4,3-.79,1.21-1.55,2.45-2.27,3.71s1.28,2.69,2.06,1.32c.68-1.21,1.41-2.39,2.16-3.55q2.64,2,5.26,4c-.89,1.3-1.73,2.63-2.5,4s1.29,2.7,2.06,1.32,1.53-2.59,2.37-3.83l1.43,1.11c-.18,18.42-12.26,33.46-24.88,45.61-11.7,11.27-25,19.86-41.55,20.53C42.6,249.75,36,240.55,29.9,231a1.17,1.17,0,0,0,.19-.68c-.36-17.21,9.24-33.26,21.49-44.78C58.94,178.62,68.05,173,77.82,172Q79.19,174.38,80.51,176.84ZM108.3,59.52l1,1.69q-.93.59-1.89,1.08c-.34-.59-.69-1.18-1.05-1.76Zm-12.38.72a1.11,1.11,0,0,0,.47-.62c2.52.14,4.93.85,7.45,1,.77,1.23,1.51,2.46,2.22,3.72a47.51,47.51,0,0,1-2.7,8.66,1,1,0,0,0-.34.15A28.33,28.33,0,0,1,99.72,75q-3.59-6.32-7.15-12.63Zm-14.6,6a1.07,1.07,0,0,0,.47-.53,45.05,45.05,0,0,0,7.51-4.59l1.72,3-2.53,1.69c-1.19.79-.07,2.72,1.12,1.92l2.51-1.67c.68,1.21,1.36,2.42,2,3.63L92.27,71a1.13,1.13,0,0,0-.4,1.52,1.11,1.11,0,0,0,1.52.4l1.88-1.27C96,73,96.7,74.23,97.42,75.5c-1.14.66-2.27,1.35-3.36,2.08s-.07,2.73,1.12,1.93,2.2-1.42,3.34-2.07l.8,1.41-8,4.57a1.18,1.18,0,0,0-.27.22c-3.19-.89-5.93-4.24-7.44-6.88a18.19,18.19,0,0,1-2-5.14,17.14,17.14,0,0,1-.39-2.85C81.15,68.36,80.91,66.49,81.32,66.26ZM80.87,54c-.43.29-.84-.08-1.15-.5l1.36-.94C81.29,53.08,81.37,53.67,80.87,54ZM70.93,37c.83,0,1.42.79,1.86,1.49l-1.56,1a1.45,1.45,0,0,0-.12-.19C70.72,38.84,69.56,37.05,70.93,37ZM60.07,43.48c.43,0,.72.47,1,.77a9.13,9.13,0,0,0,1,1.17l-1.63,1C59.86,45.54,58.89,43.57,60.07,43.48Zm-14.89,9.7A3.87,3.87,0,0,1,47,54.56l-2,1.21h0C44.58,55.13,43.42,52.67,45.18,53.18ZM29.06,62.77c.8-.42,1.39.42,1.85,1.19L29.2,65C28.66,64.66,28.52,63.05,29.06,62.77Zm-12.2,9.1c-.8-.42-.56-1.35.18-1.7a1.93,1.93,0,0,1,2.08.52L17,71.93Zm9.81,14.61c-.35,0-.65-.5-.9-1l1-.53C27.19,85.68,27.52,86.59,26.67,86.48Zm3.2-5.57q-3,1.59-6.1,3.12l-.09,0-.06,0-.39.2A1.37,1.37,0,0,0,23.1,84l-2.21-3.46c14.1-8,28.18-16.06,42-24.57a1.11,1.11,0,0,0-1.13-1.92c-13.83,8.52-27.93,16.58-42.06,24.6L17,74.46C27.68,68.4,38.33,62.32,48.87,56a1.35,1.35,0,0,0,.51-.31q7-4.18,13.95-8.51,6.32-4,12.53-8.06a.48.48,0,0,0,.08.16q1.23,2.05,2.48,4.11c-3.26,2.15-6.54,4.28-9.84,6.36-1.21.77-.09,2.7,1.12,1.93q5-3.15,9.86-6.38l2.37,3.92c-2.34,1.64-4.69,3.25-7.06,4.85a1.24,1.24,0,0,0-.84.57Q55.73,67,36.35,77.47c-1.59.87-3.2,1.71-4.8,2.55A1.17,1.17,0,0,0,29.87,80.91ZM71.46,60.27c0,.48-.41.88-.82,1.1a1,1,0,0,1-1.1.09,2.35,2.35,0,0,1-.6-.76L71,59.34A1.93,1.93,0,0,1,71.46,60.27Zm-16.32,10a2.26,2.26,0,0,1-1,1c-.61.37-1.17,0-1.62-.43L55,69.42A1.09,1.09,0,0,1,55.14,70.26ZM39.49,79.91c-.42.36-.78.43-1.16,0-.21-.22-.39-.46-.58-.7l1.85-1C39.91,78.8,40.05,79.42,39.49,79.91ZM20.8,116.35l-1-1.7c.61-.38,1.24-.74,1.89-1.07.34.59.69,1.18,1,1.76Zm12.37-.72a1.09,1.09,0,0,0-.46.62c-2.52-.14-4.94-.85-7.46-1-.77-1.23-1.5-2.47-2.21-3.72a46.74,46.74,0,0,1,2.7-8.66,1.42,1.42,0,0,0,.34-.15,28.33,28.33,0,0,1,3.3-1.88l7.14,12.63Zm14.61-6a1,1,0,0,0-.48.53,44.56,44.56,0,0,0-7.5,4.59L29.78,97l7.63-4.33a1.28,1.28,0,0,0,.83-.42c3.13,1,5.81,4.24,7.3,6.84a18.16,18.16,0,0,1,2,5.14,16.17,16.17,0,0,1,.4,2.85C48,107.51,48.19,109.38,47.78,109.61Zm2.08.86c.69-1.46.31-3.72.13-5.07a20.38,20.38,0,0,0-2.19-6.8c-1.95-3.71-5.72-8.08-10.16-8.73-1.6-2.68-3.2-5.34-4.81-8,1-.52,2-1,3-1.56a6.13,6.13,0,0,0,1.75,1.86,3,3,0,0,0,3.1-.33c1.75-1.22,1.68-3,.88-4.65,3.06-1.7,6.1-3.45,9.13-5.21,1.21,1.38,2.87,2.35,4.67,1.22A4.57,4.57,0,0,0,57.25,71a3.26,3.26,0,0,0-.42-2.75Q62,65.16,67.08,61.89a4.18,4.18,0,0,0,1.78,1.8A3.67,3.67,0,0,0,72,63.15a3.71,3.71,0,0,0,1.72-2.54,3.8,3.8,0,0,0-.85-2.49l1.8-1.2,4.65,8.31c-.8,1.45-.4,3.83-.21,5.24a20.67,20.67,0,0,0,2.18,6.8c1.93,3.67,5.66,8,10,8.71a1.07,1.07,0,0,0,.1.86l1.27,2.23-1.43.71a1.12,1.12,0,0,0-.4,1.52,1.14,1.14,0,0,0,1.53.4L93.8,91c.76,1.33,1.51,2.67,2.28,4l-1.36.76a1.12,1.12,0,0,0,1.12,1.93L97.19,97l2.4,4.16a27.41,27.41,0,0,0-2.48,1.25,1.11,1.11,0,0,0,1.13,1.92A25.82,25.82,0,0,1,100.7,103l3,5.14-1.82,1a1.11,1.11,0,0,0,1.13,1.92l1.2-.69.52-.29.1-.06c.67,1.14,1.35,2.27,2,3.41-.59.25-1.18.51-1.75.78a1.12,1.12,0,0,0,1.12,1.93c.59-.29,1.18-.53,1.78-.78.35.6.71,1.19,1.06,1.78-11.38,7.4-23.07,14.31-34.85,21.06L68,141.84Q59,126.09,49.86,110.47ZM115.92,121a381.34,381.34,0,0,1-37.54,23.27q-5.58,3-11.27,5.87a1.11,1.11,0,0,0-.24.16,2.47,2.47,0,0,1-2.49-1.33,2.09,2.09,0,0,1,.22-2.56l.07-.08,0,0c12.78-7.25,25.54-14.54,38-22.33,2.54-1.58,5.05-3.2,7.56-4.83a1.13,1.13,0,0,0,1.81-1.18l1.61-1a1.76,1.76,0,0,1,2.73.54A3,3,0,0,1,115.92,121Z"/></svg>