<svg id="Layer_2" data-name="Layer 2" xmlns="http://www.w3.org/2000/svg" viewBox="0 0 229.99 303.92"><defs><style>.cls-1{fill:none;}.cls-2{fill:#333;}</style></defs><path class="cls-1" d="M70.34,132.85c-.48-1.59-.9-3.2-1.23-4.83s2-2.19,2.35-.65.66,2.83,1.06,4.22c.52-.28,1-.54,1.56-.79,2.68-1.26,5.38-2.49,8.09-3.71a.94.94,0,0,1-.3-.53,19.25,19.25,0,0,0-1.13-4.16,1.24,1.24,0,0,1,.85-1.51,1.26,1.26,0,0,1,1.5.86,18.87,18.87,0,0,1,1.14,4.16,2.43,2.43,0,0,1,0,.27q4.59-2,9.2-4a1.16,1.16,0,0,1-.32-.53l-1-3.34a1.22,1.22,0,0,1,2.35-.65c.33,1.11.65,2.23,1,3.34a1.6,1.6,0,0,1,0,.29L102,118.6l1.73-.7a13.81,13.81,0,0,1-1.6-3.72,1.22,1.22,0,0,1,2.36-.65A11.1,11.1,0,0,0,106,117q3.78-1.53,7.58-3a1,1,0,0,1-.19-.26l-1.25-2.85a1.25,1.25,0,0,1,.43-1.67,1.22,1.22,0,0,1,1.67.44l1.26,2.84a1.53,1.53,0,0,1,.12.69q4.53-1.77,9.07-3.5a1.19,1.19,0,0,1-.46-.27,3.23,3.23,0,0,1-1-2.44,1.24,1.24,0,0,1,1.22-1.22,1.22,1.22,0,0,1,1.22,1.22,1.34,1.34,0,0,0,0,.2v.06a1.21,1.21,0,0,0,0,.18,1.19,1.19,0,0,0,.09.15v0l.1.11a1.2,1.2,0,0,1,.18,1.44l3.75-1.42,3.61-1.37-1.64-5.12c-.48-1.5,1.88-2.14,2.36-.65l1.56,4.9c6-2.3,12-4.68,17.78-7.4l.73-.36a.9.9,0,0,1-.43-.41,28.18,28.18,0,0,1-1.14-2.93,1.22,1.22,0,0,1,.85-1.5,1.24,1.24,0,0,1,1.5.85A23.55,23.55,0,0,0,156,96a1.46,1.46,0,0,1,.12.79c2.93-1.44,5.81-3,8.61-4.63a1,1,0,0,1-.5-.69,5,5,0,0,0-.88-2.09,1.27,1.27,0,0,1,0-1.73,1.24,1.24,0,0,1,1.73,0,7.5,7.5,0,0,1,1.5,3.17c0,.07,0,.13,0,.2,2.15-1.34,4.25-2.76,6.27-4.29a1.09,1.09,0,0,1-.67-.54l-2-3.41a1.22,1.22,0,0,1,2.11-1.23l2,3.41a1.38,1.38,0,0,1,.17.52c.19-.16.39-.3.59-.46a69.86,69.86,0,0,0,6.92-6.41.93.93,0,0,1-.55-.31A7.61,7.61,0,0,1,179.63,74c-.12-1.57,2.32-1.55,2.44,0a4.83,4.83,0,0,0,1,2.64,1.51,1.51,0,0,1,.25.42c.22-.24.44-.48.65-.73a23.55,23.55,0,0,0,3.27-5,1,1,0,0,1-.83-.85A5.89,5.89,0,0,0,185,67.72c-1.08-1.15.65-2.88,1.73-1.73a8.35,8.35,0,0,1,1.56,2.36,8.77,8.77,0,0,0-.15-4.19,12.16,12.16,0,0,0-3.44-5.3c-2.95,5.76-8.2,10.52-13.21,14.5A99.85,99.85,0,0,1,155.39,83.6c-10.3,5.34-21.23,9.32-32,13.42-13,4.93-25.94,10-38.69,15.62q-4.74,2.06-9.43,4.21a74.31,74.31,0,0,0-8.16,4c-4.25,2.64-7.72,6.76-7.73,12a14.53,14.53,0,0,0,.64,4c.46,1.84,1,3.66,1.53,5.47.11.4.24.79.36,1.18C63,139,66.33,135.42,70.34,132.85Zm73.82-36.36a1.24,1.24,0,0,1,1.68.44,9.31,9.31,0,0,1,.95,3.13,1.23,1.23,0,0,1-1.22,1.22,1.26,1.26,0,0,1-1.22-1.22,6.06,6.06,0,0,0-.62-1.9A1.24,1.24,0,0,1,144.16,96.49Z"/><path class="cls-1" d="M184.29,52.7a16.84,16.84,0,0,1-.57-1.83,11.06,11.06,0,0,0-2.3-4.54c-4.58-5.5-11.85-7.82-18.76-8.4a69.17,69.17,0,0,1-16.47,13.42c3-.6,5.93-1.13,8.93-1.5,1.63-.2,3.28-.35,4.94-.45a1.19,1.19,0,0,1-.2-.65,10.18,10.18,0,0,0-.33-2.45,1.22,1.22,0,0,1,2.36-.65,13.59,13.59,0,0,1,.41,3.1,1.06,1.06,0,0,1-.13.58,48.34,48.34,0,0,1,6.37.26,11.63,11.63,0,0,1-.41-3.32,1.22,1.22,0,0,1,2.44,0A9.68,9.68,0,0,0,171,49.2a1.1,1.1,0,0,1,0,.72,34.31,34.31,0,0,1,7,1.93,16.33,16.33,0,0,0-.49-2.24,1.23,1.23,0,0,1,2.36-.65,20.3,20.3,0,0,1,.71,4.07,24.58,24.58,0,0,1,5.2,3.56C185.27,55.29,184.77,54,184.29,52.7Z"/><path class="cls-1" d="M145.16,42.52a1.22,1.22,0,0,1,1.67.43A13.77,13.77,0,0,1,148,47.37a65.64,65.64,0,0,0,6.3-4.7,1.11,1.11,0,0,1-.3-.58,10.92,10.92,0,0,0-1.61-3.82c-.87-1.31,1.24-2.53,2.11-1.23A12.57,12.57,0,0,1,156.18,41,64.74,64.74,0,0,0,161,36.12a.83.83,0,0,1-.3-.23l-2.06-2.61a1.26,1.26,0,0,1,0-1.73,1.23,1.23,0,0,1,1.73,0l2,2.61.13.18a69,69,0,0,0,4.87-6.64,1.07,1.07,0,0,1-.82-.59L164.89,24c-.76-1.38,1.35-2.61,2.11-1.23l1.62,2.95c.55-.92,1.08-1.86,1.59-2.81a35.92,35.92,0,0,0-6.13-10.45,69.89,69.89,0,0,1-23.8,26.17c.22.63.4,1.27.57,1.83a36.84,36.84,0,0,1,1.59,10.17c1.09-.58,2.15-1.19,3.21-1.83a1.06,1.06,0,0,1-.09-.45,10.38,10.38,0,0,0-.84-4.18A1.25,1.25,0,0,1,145.16,42.52Z"/><path class="cls-1" d="M138.62,41.54a24.62,24.62,0,0,0-1-2.82c-.42-1-.65-1.21-1.71-1-2,.36-4.06.81-6.07,1.27-1.08.24-2.16.5-3.23.77a4.31,4.31,0,0,0-1.57.48,2.46,2.46,0,0,1,.07.29l.12,1a.68.68,0,0,1,0,.14c.49,3.89,1,7.88,2.67,11.45a1,1,0,0,1,.62.81,26.33,26.33,0,0,1,.23,3.32l0,.47,1.46-.19c1.9-.31,3.77-.73,5.64-1.17a1,1,0,0,1-.08-.21q-.72-2.58-1.45-5.14a1.22,1.22,0,0,1,2.36-.65l1.44,5.14a1,1,0,0,1,0,.37,3.34,3.34,0,0,0,.77-.3,2,2,0,0,0,.88-1.7,33.25,33.25,0,0,0-.08-6.15A34.45,34.45,0,0,0,138.62,41.54Zm-7.73,14.54-1-4.82c-.32-1.54,2-2.19,2.35-.65l1,4.82C133.56,57,131.2,57.62,130.89,56.08Z"/><path class="cls-2" d="M76.71,271.75c-2.74-3.29-8,.56-9.85,2.95A9.73,9.73,0,0,0,66,286a12.22,12.22,0,0,0,8.38,5.81c7,1.07,13.83-3.56,18.82-7.91a18.78,18.78,0,0,0,5.54-22.51l5.66-5.09.2.22c3.32,3.18,8.33,5.18,12.85,3.47a7.79,7.79,0,0,0,5.1-5.4,11.3,11.3,0,0,0-.84-7.17c11.07-10.41,24.09-18.5,37.09-26.3,14.82-8.9,30.25-17.59,42.89-29.53,6.1-5.78,11.61-12.75,13.77-21a24.43,24.43,0,0,0,.32-12.07,19.05,19.05,0,0,0-1-4.72c-.66-2.23-1.44-4.43-2.27-6.6-1.46-3.82-2.9-7.81-6-10.64-10-9.08-24.37-4.41-35.6-.9-22.33,7-44.67,16-68.27,17.32-12.79.72-26.85-1.06-37.32-9.06a1,1,0,0,0-1-.14A14.83,14.83,0,0,1,70,135.94c3.59-2.66,8-4.29,12-6.13q7.13-3.23,14.33-6.26c9.54-4,19.16-7.82,28.82-11.51,8.13-3.1,16.31-6.08,24.3-9.53A124.65,124.65,0,0,0,172,90.38a77.3,77.3,0,0,0,9.83-8.13c3-3,6.12-6.31,7.85-10.26a13,13,0,0,0,1.05-7.11c.32-1.68-.66-3.78-1.2-5.31-.85-2.37-1.8-4.71-2.68-7.08s-1.35-4.81-2.91-6.93a23.15,23.15,0,0,0-8.82-7,34.54,34.54,0,0,0-10.49-2.89,68.89,68.89,0,0,0,7.73-11.53,1,1,0,0,0,.53-1,1.22,1.22,0,0,0-.52-1.44A39.06,39.06,0,0,0,164.8,9.59a1.18,1.18,0,0,0-2,.54,1.14,1.14,0,0,0-.51.53A67.61,67.61,0,0,1,139.2,36.44a3.4,3.4,0,0,0-1-.91,3.46,3.46,0,0,0-2.49-.27c-1.16.2-2.32.45-3.47.69a63.16,63.16,0,0,0-7.58,1.77,3.85,3.85,0,0,0-2.09,1.4,2.17,2.17,0,0,0-.33,1.17c-19.62-.85-35-15.89-54.18-18.65a37.07,37.07,0,0,0-24.33,5.19,34.42,34.42,0,0,0-9,7.59A22.6,22.6,0,0,0,31.29,41c-3.08,8.77-2.37,18.6-.37,27.52,0,0,0,.09,0,.14a14.13,14.13,0,0,0,1.19,3.21C35.38,78,42.6,79.91,49,80.15c1.76.07,3.52,0,5.28,0a1.43,1.43,0,0,0,.87,0A91.55,91.55,0,0,0,72.8,77c8-2.12,15.71-4.95,23.46-7.72,8.16-2.91,16.35-5.78,24.59-8.47q2.88-.93,5.77-1.82a1.78,1.78,0,0,0,1.06,1.1,5.74,5.74,0,0,0,2.63-.15c1.24-.18,2.47-.41,3.7-.67s2.17-.49,3.25-.74a12.56,12.56,0,0,0,3-.89,4,4,0,0,0,1.95-2.93l.17,0c8.46-2,17.23-3.57,26-2.66a30.7,30.7,0,0,1,11.4,3.34,26.55,26.55,0,0,1,3.06,1.94,1.44,1.44,0,0,0-.22.31C179.83,63,175,67.42,170.3,71.17a93.77,93.77,0,0,1-14.5,9.46c-10.37,5.56-21.44,9.62-32.42,13.78-13.08,5-26.1,10.1-38.93,15.67q-4.85,2.1-9.65,4.29a87,87,0,0,0-8.69,4.21c-4.2,2.54-7.92,6.37-8.92,11.32-.84,4.15.5,8.12,1.65,12.07.63,2.15,1.29,4.28,2,6.4a18.7,18.7,0,0,0,1.73,4.18l.06.08c2.2,5,7.08,8.58,12,11.05a58.18,58.18,0,0,0,21.81,5.67c16.33,1.18,32.77-2.72,48.32-7.31,7.38-2.18,14.69-4.61,22-7a1.22,1.22,0,0,0,.65-.21l.36-.12c3.47-1.14,6.94-2.27,10.43-3.34a88.45,88.45,0,0,1,12.88-3.29,1.32,1.32,0,0,0,1.52-.2,27.21,27.21,0,0,1,8.79.49,1.4,1.4,0,0,0,.57.13,17.24,17.24,0,0,1,7.64,4,1,1,0,0,0-.51.77c-1.42,8.44-6.51,15.54-12.49,21.45a136.09,136.09,0,0,1-20.14,15.8C162.26,200,147.05,208,133,217.72a151.39,151.39,0,0,0-17.16,13.63,5.72,5.72,0,0,0-4.45-4,7.8,7.8,0,0,0-5.8,2A16.92,16.92,0,0,0,99.41,242a20.88,20.88,0,0,0,.12,3.53l-8,6.94-4.31,3.75A11.89,11.89,0,0,0,84,259.89a5.68,5.68,0,0,0-.51,2.57c-1.81,1.51-3.73,3-5.42,4.6a3.72,3.72,0,0,0-.13,5.21,3.57,3.57,0,0,0,5,.38,68.78,68.78,0,0,0,5.79-4.71,5.38,5.38,0,0,0,1.14-.06C91,272,87.69,275.67,84.55,278a20.17,20.17,0,0,1-6.19,3.33c-1.29.37-4.14.3-4-1.73.08-1.18,1.58-2.32,2.19-3.25C77.43,275,77.84,273.1,76.71,271.75ZM32,57.05c-.09.24-.17.49-.25.73A42.14,42.14,0,0,1,33,43.63a23,23,0,0,1,3-6.87,27.73,27.73,0,0,1,7.54-6.94A34.92,34.92,0,0,1,67,24c9.06,1.1,17.49,5.41,25.6,9.32,9.58,4.63,19.54,9.23,30.36,9.49a43.19,43.19,0,0,0,2.15,9.9c-1.24-.06-2.45-.18-3.66-.35l0-2.78a1.22,1.22,0,0,0-2.44,0l0,2.37a52.92,52.92,0,0,1-6.35-1.67,19.29,19.29,0,0,0-.35-4.08c-.29-1.54-2.65-.89-2.35.65a16.12,16.12,0,0,1,.26,2.59c-2.33-.85-4.62-1.82-6.9-2.85a19.6,19.6,0,0,0-.22-3.9,1.24,1.24,0,0,0-1.51-.86,1.26,1.26,0,0,0-.85,1.5,15.45,15.45,0,0,1,.17,2.15c-2.47-1.16-4.91-2.37-7.37-3.54a23.27,23.27,0,0,0-.41-3.72c-.3-1.54-2.65-.88-2.35.65a17.29,17.29,0,0,1,.25,1.88q-3.22-1.53-6.52-2.87l-.14-1.9a1.25,1.25,0,0,0-1.22-1.22A1.23,1.23,0,0,0,82,35.93l.07.94-.75-.27a54,54,0,0,0-6.61-1.9A12.9,12.9,0,0,1,74.06,32a1.25,1.25,0,0,0-1.22-1.22A1.23,1.23,0,0,0,71.62,32,17.28,17.28,0,0,0,72,34.19a37.64,37.64,0,0,0-8.75-.36,1.47,1.47,0,0,0-.13-.53,3.47,3.47,0,0,1-.18-2,1.25,1.25,0,0,0-.85-1.5,1.22,1.22,0,0,0-1.5.85,6.22,6.22,0,0,0,.27,3.45l-1,.16A37.36,37.36,0,0,0,53.69,36c-.18-.85-.35-1.69-.52-2.54-.32-1.53-2.67-.88-2.36.65.19.94.39,1.88.58,2.82a38.74,38.74,0,0,0-5,2.66,12.18,12.18,0,0,0-.4-1.79c-.46-1.5-2.82-.86-2.35.65a10,10,0,0,1,.44,2.71c-.95.71-1.89,1.44-2.77,2.23s-1.47,1.38-2.16,2.12c-.15-1.07-.31-2.13-.46-3.19a1.22,1.22,0,0,0-1.5-.85,1.24,1.24,0,0,0-.85,1.5L37,47.34a.84.84,0,0,0,.19.44A33.52,33.52,0,0,0,32,57.05Zm69.19-8.87c-10.66,3.2-21.29,6.48-32,9.47-9,2.51-18.26,5.11-27.62,6a25.78,25.78,0,0,1-8.63-.2c.51-5.9,4.11-12.15,7.67-16A36,36,0,0,1,57.69,37.26c6.88-1.84,13.74-1.22,20.49.87,1.42.44,2.81.94,4.2,1.47a1.18,1.18,0,0,0,1.05.66,1.2,1.2,0,0,0,.45-.09C89.77,42.53,95.44,45.5,101.21,48.18Zm25.1,8.34c-3.6,1.1-7.17,2.27-10.73,3.48a1.08,1.08,0,0,0-.2-.46l-2.49-3.62c-.89-1.29-3-.07-2.11,1.23l2.49,3.62,0,0c-3.84,1.32-7.68,2.68-11.51,4a1.55,1.55,0,0,0,0-.31,7.88,7.88,0,0,0-1.72-4.35,1.23,1.23,0,0,0-1.73,0,1.27,1.27,0,0,0,0,1.73,5,5,0,0,1,1,2.62,1.22,1.22,0,0,0,.59,1c-3.64,1.29-7.29,2.58-11,3.83a.88.88,0,0,0,0-.23,14.82,14.82,0,0,0-1.51-5.21c-.71-1.41-2.82-.17-2.11,1.23a11.81,11.81,0,0,1,1.18,4,1.23,1.23,0,0,0,.51.9c-2.29.77-4.58,1.54-6.88,2.28l-1.58.49h0l-1.42-3.93c-.53-1.46-2.89-.83-2.35.65.47,1.31.94,2.62,1.42,3.93l0,.07c-3.07.92-6.18,1.75-9.32,2.43a1.18,1.18,0,0,0,0-.31c-.38-1.34-.77-2.68-1.15-4a1.22,1.22,0,0,0-2.35.65c.38,1.34.76,2.68,1.15,4a.78.78,0,0,0,0,.14c-2.48.47-5,.85-7.5,1.09l-1.56.13A24.4,24.4,0,0,0,54,72.3c-.62-1.45-2.72-.2-2.11,1.23a20,20,0,0,1,1.26,4.23,36,36,0,0,1-8.74-.47,1.38,1.38,0,0,0-.07-.43,33.15,33.15,0,0,1-1.58-6.12c-.25-1.54-2.6-.89-2.35.65a33.87,33.87,0,0,0,1.25,5.17,14.4,14.4,0,0,1-5.1-3,11,11,0,0,1-3.23-5.35,1.42,1.42,0,0,0,0-.35l-.3-1.4c0-.17,0-.34,0-.51a26.42,26.42,0,0,0,7.1.27,91.37,91.37,0,0,0,12.32-1.87c10.74-2.25,21.29-5.39,31.8-8.52,6.71-2,13.41-4,20.12-6a1.2,1.2,0,0,0,.28-.13,65.39,65.39,0,0,0,15.79,4.92,45.54,45.54,0,0,0,5.94.55h0C126.31,55.56,126.31,56,126.31,56.52Zm13.6-2.7a2,2,0,0,1-.88,1.7,3.34,3.34,0,0,1-.77.3,1,1,0,0,0,0-.37l-1.44-5.14a1.22,1.22,0,0,0-2.36.65q.74,2.57,1.45,5.14a1,1,0,0,0,.08.21c-1.87.44-3.74.86-5.64,1.17l-1.46.19,0-.47a26.33,26.33,0,0,0-.23-3.32,1,1,0,0,0-.62-.81c-1.69-3.57-2.18-7.56-2.67-11.45a.68.68,0,0,0,0-.14l-.12-1a2.46,2.46,0,0,0-.07-.29,4.31,4.31,0,0,1,1.57-.48c1.07-.27,2.15-.53,3.23-.77,2-.46,4-.91,6.07-1.27,1.06-.19,1.29,0,1.71,1a24.62,24.62,0,0,1,1,2.82,34.45,34.45,0,0,1,1.21,6.13A33.25,33.25,0,0,1,139.91,53.82Zm4.81-9.63a10.38,10.38,0,0,1,.84,4.18,1.06,1.06,0,0,0,.09.45c-1.06.64-2.12,1.25-3.21,1.83a36.84,36.84,0,0,0-1.59-10.17c-.17-.56-.35-1.2-.57-1.83a69.89,69.89,0,0,0,23.8-26.17,35.92,35.92,0,0,1,6.13,10.45c-.51.95-1,1.89-1.59,2.81L167,22.79c-.76-1.38-2.87-.15-2.11,1.23l1.7,3.09a1.07,1.07,0,0,0,.82.59,69,69,0,0,1-4.87,6.64l-.13-.18-2-2.61a1.23,1.23,0,0,0-1.73,0,1.26,1.26,0,0,0,0,1.73l2.06,2.61a.83.83,0,0,0,.3.23A64.74,64.74,0,0,1,156.18,41,12.57,12.57,0,0,0,154.45,37c-.87-1.3-3-.08-2.11,1.23A10.92,10.92,0,0,1,154,42.09a1.11,1.11,0,0,0,.3.58,65.64,65.64,0,0,1-6.3,4.7A13.77,13.77,0,0,0,146.83,43a1.22,1.22,0,0,0-1.67-.43A1.25,1.25,0,0,0,144.72,44.19ZM180.57,53a20.3,20.3,0,0,0-.71-4.07,1.23,1.23,0,0,0-2.36.65,16.33,16.33,0,0,1,.49,2.24,34.31,34.31,0,0,0-7-1.93,1.1,1.1,0,0,0,0-.72,9.68,9.68,0,0,1-.39-2.93,1.22,1.22,0,0,0-2.44,0,11.63,11.63,0,0,0,.41,3.32,48.34,48.34,0,0,0-6.37-.26,1.06,1.06,0,0,0,.13-.58,13.59,13.59,0,0,0-.41-3.1,1.22,1.22,0,0,0-2.36.65,10.18,10.18,0,0,1,.33,2.45,1.19,1.19,0,0,0,.2.65c-1.66.1-3.31.25-4.94.45-3,.37-6,.9-8.93,1.5a69.17,69.17,0,0,0,16.47-13.42c6.91.58,14.18,2.9,18.76,8.4a11.06,11.06,0,0,1,2.3,4.54,16.84,16.84,0,0,0,.57,1.83c.48,1.3,1,2.59,1.48,3.89A24.58,24.58,0,0,0,180.57,53ZM61.86,143.52c-.12-.39-.25-.78-.36-1.18-.55-1.81-1.07-3.63-1.53-5.47a14.53,14.53,0,0,1-.64-4c0-5.23,3.48-9.35,7.73-12a74.31,74.31,0,0,1,8.16-4q4.69-2.14,9.43-4.21C97.4,107.07,110.33,102,123.34,97c10.82-4.1,21.75-8.08,32-13.42a99.85,99.85,0,0,0,16.07-10.24c5-4,10.26-8.74,13.21-14.5a12.16,12.16,0,0,1,3.44,5.3,8.77,8.77,0,0,1,.15,4.19A8.35,8.35,0,0,0,186.7,66c-1.08-1.15-2.81.58-1.73,1.73a5.89,5.89,0,0,1,1.47,2.76,1,1,0,0,0,.83.85,23.55,23.55,0,0,1-3.27,5c-.21.25-.43.49-.65.73a1.51,1.51,0,0,0-.25-.42,4.83,4.83,0,0,1-1-2.64c-.12-1.55-2.56-1.57-2.44,0a7.61,7.61,0,0,0,1.75,4.36.93.93,0,0,0,.55.31A69.86,69.86,0,0,1,175,85c-.2.16-.4.3-.59.46a1.38,1.38,0,0,0-.17-.52l-2-3.41a1.22,1.22,0,0,0-2.11,1.23l2,3.41a1.09,1.09,0,0,0,.67.54c-2,1.53-4.12,3-6.27,4.29,0-.07,0-.13,0-.2a7.5,7.5,0,0,0-1.5-3.17,1.24,1.24,0,0,0-1.73,0,1.27,1.27,0,0,0,0,1.73,5,5,0,0,1,.88,2.09,1,1,0,0,0,.5.69c-2.8,1.66-5.68,3.19-8.61,4.63A1.46,1.46,0,0,0,156,96a23.55,23.55,0,0,1-.9-2.34,1.24,1.24,0,0,0-1.5-.85,1.22,1.22,0,0,0-.85,1.5,28.18,28.18,0,0,0,1.14,2.93.9.9,0,0,0,.43.41l-.73.36c-5.82,2.72-11.78,5.1-17.78,7.4l-1.56-4.9c-.48-1.49-2.84-.85-2.36.65l1.64,5.12-3.61,1.37-3.75,1.42a1.2,1.2,0,0,0-.18-1.44l-.1-.11v0a1.19,1.19,0,0,1-.09-.15,1.21,1.21,0,0,1,0-.18v-.06a1.34,1.34,0,0,1,0-.2,1.22,1.22,0,0,0-1.22-1.22,1.24,1.24,0,0,0-1.22,1.22,3.23,3.23,0,0,0,1,2.44,1.19,1.19,0,0,0,.46.27q-4.55,1.74-9.07,3.5a1.53,1.53,0,0,0-.12-.69l-1.26-2.84a1.22,1.22,0,0,0-1.67-.44,1.25,1.25,0,0,0-.43,1.67l1.25,2.85a1,1,0,0,0,.19.26q-3.8,1.48-7.58,3a11.1,11.1,0,0,1-1.54-3.44,1.22,1.22,0,0,0-2.36.65,13.81,13.81,0,0,0,1.6,3.72l-1.73.7-6.43,2.68a1.6,1.6,0,0,0,0-.29c-.33-1.11-.65-2.23-1-3.34a1.22,1.22,0,0,0-2.35.65l1,3.34a1.16,1.16,0,0,0,.32.53q-4.62,2-9.2,4a2.43,2.43,0,0,0,0-.27,18.87,18.87,0,0,0-1.14-4.16,1.26,1.26,0,0,0-1.5-.86,1.24,1.24,0,0,0-.85,1.51,19.25,19.25,0,0,1,1.13,4.16.94.94,0,0,0,.3.53c-2.71,1.22-5.41,2.45-8.09,3.71-.52.25-1,.51-1.56.79-.4-1.39-.77-2.8-1.06-4.22s-2.67-.88-2.35.65.75,3.24,1.23,4.83C66.33,135.42,63,139,61.86,143.52Zm146.46,4.92a20.5,20.5,0,0,0-5.06-2.2,8.86,8.86,0,0,0-.66-2.82,1.26,1.26,0,0,0-1.5-.86,1.23,1.23,0,0,0-.85,1.51,7.64,7.64,0,0,1,.48,1.59,29.88,29.88,0,0,0-8-.2,24.29,24.29,0,0,1-.43-2.82c-.14-1.55-2.58-1.57-2.44,0a30.24,30.24,0,0,0,.45,3.13,63.29,63.29,0,0,0-7.73,1.74l-1.85.56c-.09-.76-.18-1.51-.26-2.27a1.27,1.27,0,0,0-1.23-1.22A1.24,1.24,0,0,0,178,145.8c.12,1,.23,2,.35,3-3.54,1.07-7.06,2.2-10.57,3.36l-.26-2.07a1.25,1.25,0,0,0-1.22-1.22,1.22,1.22,0,0,0-1.22,1.22c.12.94.23,1.89.35,2.84l-5.8,1.91-4.3,1.4-1-2.88c-.49-1.48-2.85-.84-2.35.65l1,3c-2.95.95-5.9,1.87-8.88,2.76a.22.22,0,0,0,0-.08l-.66-3c-.34-1.54-2.69-.89-2.36.65.23,1,.45,2,.67,3,0,0,0,.07,0,.11-2.81.81-5.63,1.58-8.46,2.29a.86.86,0,0,0,0-.16l-.48-2.42a1.22,1.22,0,0,0-2.35.65l.47,2.42,0,.08c-2.86.68-5.74,1.29-8.62,1.82a19.19,19.19,0,0,1-1-3.15c-.34-1.54-2.69-.89-2.35.65a20.22,20.22,0,0,0,.9,2.93q-4.24.7-8.53,1.12a1.31,1.31,0,0,0-.06-.27l-1.16-3.48c-.49-1.48-2.85-.85-2.35.65.36,1.1.73,2.2,1.1,3.31-2.61.19-5.24.28-7.86.25l-.75-4.38c-.27-1.54-2.63-.89-2.36.65.21,1.22.42,2.45.64,3.67a68.32,68.32,0,0,1-6.86-.65l-.51-3.27a1.24,1.24,0,0,0-1.5-.86,1.26,1.26,0,0,0-.85,1.51c.11.73.23,1.46.34,2.2-.71-.14-1.42-.27-2.12-.43a51.15,51.15,0,0,1-7.64-2.37v0l-1-3.51a1.22,1.22,0,0,0-2.36.65c.16.54.32,1.08.49,1.62l-.24-.11a28.69,28.69,0,0,1-9.19-6.51,12.8,12.8,0,0,1-3.21-9.43.86.86,0,0,0,.2.18c9.14,7,21.31,9.42,32.59,9.54,11.69.11,23.34-2.1,34.61-5s22.18-6.64,33.18-10.24c5.58-1.83,11.18-3.7,16.88-5.15,6.17-1.56,12.86-2.35,18.88.26a14.9,14.9,0,0,1,6.94,5.72,33.31,33.31,0,0,1,2.28,4.92c.62,1.53,1.19,3.09,1.74,4.65A17.37,17.37,0,0,0,208.32,148.44Zm-54.07,58.69c14.71-8.83,30-17.47,42.61-29.27,6.74-6.32,12.75-14.1,14.5-23.36a13.1,13.1,0,0,1,1.68,3.27,21.12,21.12,0,0,1-.34,13.62,4.32,4.32,0,0,0-2.34-2.61,1.27,1.27,0,0,0-1.68.43,1.25,1.25,0,0,0,.44,1.68,2.08,2.08,0,0,1,1.39,2,1.13,1.13,0,0,0,1.18,1.17,39.91,39.91,0,0,1-4.42,7.68c-.17.24-.36.46-.54.69-.53-.91-1.06-1.83-1.6-2.74a1.22,1.22,0,0,0-2.11,1.23l1.67,2.86a1.18,1.18,0,0,0,.59.51,68.56,68.56,0,0,1-7.62,7.72,12.07,12.07,0,0,0-1.89-3.47,1.22,1.22,0,1,0-1.73,1.72,8.51,8.51,0,0,1,1.34,2.59,1.11,1.11,0,0,0,.53.67c-2.38,2-4.83,3.87-7.29,5.68-.49.36-1,.7-1.49,1.06l-1.29-3.88c-.5-1.48-2.86-.85-2.36.65.44,1.32.88,2.64,1.33,4a1.17,1.17,0,0,0,.43.61q-4,2.82-8.12,5.47a14.72,14.72,0,0,0-1.79-3.78c-.87-1.3-3-.08-2.11,1.23a12.71,12.71,0,0,1,1.75,3.86s0,0,0,0q-3.89,2.46-7.83,4.85l-.86.52a.94.94,0,0,0-.12-.3l-1.62-2.89a1.22,1.22,0,0,0-2.11,1.23l1.62,2.89a1.6,1.6,0,0,0,.22.28l-8.54,5.12a1.56,1.56,0,0,0-.12-.76,14.2,14.2,0,0,0-1.82-2.95,1.23,1.23,0,0,0-1.73,0,1.26,1.26,0,0,0,0,1.73,11,11,0,0,1,1.44,2.45,1,1,0,0,0,.61.52c-3.24,2-6.46,3.94-9.65,6,0,0,0-.08,0-.12a17.65,17.65,0,0,1-1.2-4.29,1.22,1.22,0,0,0-2.36.65,18.73,18.73,0,0,0,1.2,4.29,1.52,1.52,0,0,0,.52.67c-3.43,2.24-6.81,4.57-10.11,7a1.09,1.09,0,0,0,0-.69l-1.21-3.79c-.48-1.49-2.84-.85-2.36.65.41,1.26.81,2.53,1.22,3.79a1.19,1.19,0,0,0,1.3.84q-3.54,2.67-6.94,5.54l-.56.49a21.22,21.22,0,0,1-1-3.58c-.3-1.54-2.65-.89-2.35.65a22.82,22.82,0,0,0,1.45,4.63c-1.74,1.57-3.43,3.2-5.08,4.87q-1.85-5.69-3.7-11.36C125.07,225,139.67,215.88,154.25,207.13ZM104.9,233.37a10.18,10.18,0,0,1,4.62-3.51c2.26-.67,3.77,1,4.2,3.11a1.24,1.24,0,0,0,.1.29c-1,1-1.92,1.91-2.86,2.89a1.22,1.22,0,0,0-.31,1.19l4.56,14a1.23,1.23,0,0,0,2,.53c.85-.89,1.71-1.76,2.58-2.62,1,3,.71,6.5-2.41,8.11-3.45,1.77-7.55.45-10.36-1.91a15.56,15.56,0,0,1-5-9.12,1,1,0,0,0-.11-.75A15.82,15.82,0,0,1,104.9,233.37Zm-21.85,36.1c-.86.68-2.45,2.42-3.42,1.06s1-2.46,1.89-3.26l2.64-2.22A5.68,5.68,0,0,0,86,267C85,267.86,84.05,268.68,83.05,269.47ZM90,265.42a3.24,3.24,0,0,1-4-2.33,1.26,1.26,0,0,0,0-.33c-.25-1.75,1-3,2.22-4.09l4.37-3.8,7.52-6.55a18,18,0,0,0,2.81,6.12l-8.29,7.45C93.23,263.08,91.73,264.94,90,265.42Zm-15.22,9.19c-.55,1.14-1.6,2-2.22,3.06-1.76,3.09,1,6.15,4.15,6.34,2.22.12,4.57-1.05,6.44-2.13a28.2,28.2,0,0,0,5.52-4.13c3-2.93,4.58-6.76,3.43-10.71a24.1,24.1,0,0,0,3.63-2.89l1.16-1a16.84,16.84,0,0,1,.71,9.68,16.18,16.18,0,0,1-5.19,8.61,39.29,39.29,0,0,1-8.32,5.94c-2.74,1.43-5.92,2.53-9,2.12a9.82,9.82,0,0,1-7.58-6c-1.44-3.71.82-7.8,4.12-9.63A5.52,5.52,0,0,1,73.9,273C75,273,75.13,273.8,74.74,274.61Z"/><path class="cls-2" d="M132.25,50.61c-.31-1.54-2.67-.89-2.35.65l1,4.82c.31,1.54,2.67.89,2.35-.65Z"/><path class="cls-2" d="M144.35,100.06a1.26,1.26,0,0,0,1.22,1.22,1.23,1.23,0,0,0,1.22-1.22,9.31,9.31,0,0,0-.95-3.13,1.22,1.22,0,1,0-2.11,1.23A6.06,6.06,0,0,1,144.35,100.06Z"/></svg>