<svg id="Layer_2" data-name="Layer 2" xmlns="http://www.w3.org/2000/svg" viewBox="0 0 222.35 206.56"><defs><style>.cls-1{fill:none;}.cls-2{fill:#333;}</style></defs><path class="cls-1" d="M59.33,37.48c.3-1.14.61-2.32-.24-3.29a9.27,9.27,0,0,0-2.81-1.85c-1.17-.61-2.36-1.17-3.58-1.66-2.4-1-5.27-2.19-7.9-2.08A3.24,3.24,0,0,0,43,29c-.45.41-.53,1.28-.69,1.83-.23.81-.47,1.62-.7,2.42a31.57,31.57,0,0,1,17.1,6.61C58.91,39.09,59.12,38.29,59.33,37.48Z"/><path class="cls-1" d="M33.13,93.62a31,31,0,0,0,7.19,1.3,1.35,1.35,0,0,1,0-.6,1.23,1.23,0,0,1,1.5-.86,6.7,6.7,0,0,1,2.33,1.44,29.82,29.82,0,0,0,4-.51l-1.78-1.08a1.22,1.22,0,0,1,1.23-2.11l3.37,2a1.25,1.25,0,0,1,.37.35c.24-.08.49-.13.73-.22a26.35,26.35,0,0,0,3.63-1.54A21,21,0,0,0,52.74,90c-1.41-.7-.17-2.8,1.23-2.11a21.28,21.28,0,0,1,3.13,1.91,1.43,1.43,0,0,1,.57.85,27,27,0,0,0,4.41-3.42c-.84-.47-1.67-1-2.5-1.43a1.22,1.22,0,0,1,1.23-2.11l3,1.73a27.84,27.84,0,0,0,2.87-3.95A9.25,9.25,0,0,1,63.3,80a1.25,1.25,0,0,1-.44-1.67,1.23,1.23,0,0,1,1.67-.43,7.72,7.72,0,0,0,3.36,1.42c.12-.24.24-.48.35-.73a24.34,24.34,0,0,0,1.29-3.68s0,0,0,0a15.5,15.5,0,0,1-4.14-1.72A1.22,1.22,0,0,1,66.61,71a13.17,13.17,0,0,0,3.44,1.45,27.6,27.6,0,0,0,.38-5.29c-1.29-.29-2.57-.61-3.85-1a1.22,1.22,0,0,1,.65-2.36c1,.29,2,.54,3,.78a31.59,31.59,0,0,0-.93-4.9l-.21,0a31.49,31.49,0,0,0-4-.78A1.24,1.24,0,0,1,64,57.7a1.23,1.23,0,0,1,1.22-1.22c1.11.14,2.2.34,3.28.57a42.28,42.28,0,0,0-2.78-5.6l-.2-.1A1.51,1.51,0,0,0,64,51.13a1.25,1.25,0,0,1-1.67-.44A1.23,1.23,0,0,1,62.79,49a4.43,4.43,0,0,1,1.66-.39,11.31,11.31,0,0,1,.53-2c.09-.35.18-.7.28-1L62.41,44.5a1.22,1.22,0,1,1,.65-2.35l2.82,1.05c.27-1,.53-2,.8-3a14.69,14.69,0,0,1-3.28-1.15A1.23,1.23,0,0,1,63,37.39,1.25,1.25,0,0,1,64.63,37a12.17,12.17,0,0,0,2.67.9c.12-.43.23-.87.35-1.3a14.18,14.18,0,0,0,.59-3.4,1.17,1.17,0,0,1-.52,0l-4-1a1.22,1.22,0,0,1,.65-2.35l3.25.84c0-.05,0-.11-.08-.16a11.24,11.24,0,0,0-4-3.18c-1.93-1.08-3.9-2.06-5.91-3A65,65,0,0,0,45.13,20a14,14,0,0,0-6.55-.15,3.14,3.14,0,0,0-2.25,1.59,19,19,0,0,0-.84,2.78l-1.93,6.64-1,3.55c-.25.86-.33,2.12-1.22,2.56-1.4.69-2.94,1.07-4.34,1.78a30.89,30.89,0,0,0-4.14,2.55,28.43,28.43,0,0,0-6.64,6.85,29.82,29.82,0,0,0-5.08,19.23C12.13,79.7,21.47,90.08,33.13,93.62Zm5.68-59.5c.5-1.75.93-3.57,1.53-5.29a3.8,3.8,0,0,1,3.09-2.52c3.3-.65,6.9.79,9.92,2a46.17,46.17,0,0,1,4.73,2.21A9.16,9.16,0,0,1,61.21,33a5.07,5.07,0,0,1,.71,4.2c-.34,1.75-.89,3.47-1.35,5.19a1.24,1.24,0,0,1-2,.54A29.08,29.08,0,0,0,40,35.67a1.14,1.14,0,0,1-.89-.41A1.07,1.07,0,0,1,38.81,34.12ZM29,57.9a13.83,13.83,0,0,1,14.6-6.49A15.84,15.84,0,0,1,56.13,64.77a13.28,13.28,0,0,1-7,13.32,16,16,0,0,1-18.46-3.4A14.55,14.55,0,0,1,29,57.9Z"/><path class="cls-1" d="M49.4,75.05a11,11,0,0,0,4-11.76,13.42,13.42,0,0,0-12.55-9.72,11.32,11.32,0,0,0-10.49,7.12,12,12,0,0,0,2,12.27C36.53,77.56,44.28,78.75,49.4,75.05Z"/><path class="cls-2" d="M65.53,146.25c11.42-.72,22.24-5,31.92-10.93s18.48-13.61,27-21.24,17.79-15,29-18.59c9.71-3.18,21-3,29.13,3.88,6.39,5.41,9.44,13.57,11.1,21.56,1.72,8.29,2,16.78,2.33,25.22a137.91,137.91,0,0,0,1.7,19.46,178,178,0,0,0,5.08,19.64c.68,2.25,1.36,4.5,2,6.76a1.05,1.05,0,0,0-.11.07,6.64,6.64,0,0,0-2.63,7.53c1.14,3.15,4.7,3.63,7.44,2.33a5.36,5.36,0,0,0,2.61-7.42,1.59,1.59,0,0,0-.12-.27,2.5,2.5,0,0,0-.16-.24,5.71,5.71,0,0,0-4.69-2.71c-1.65-5.62-3.44-11.22-5-16.89a106.19,106.19,0,0,1-3.38-20.19c-.6-9.18-.51-18.38-1.72-27.51C196,118.49,194,110,189.14,103.06A28.62,28.62,0,0,0,165.75,91c-11.51-.13-22.56,5.4-31.69,12a162.19,162.19,0,0,0-13,10.87c-4.25,3.78-8.54,7.52-13,11-8.92,7-18.73,13.28-29.68,16.57a53.19,53.19,0,0,1-31.81,0A45.52,45.52,0,0,1,22.34,123.1c-6.51-10.12-9.32-22.9-9-34.83q.09-3.09.48-6.17c.55.84,1.13,1.67,1.76,2.46a34.57,34.57,0,0,0,25,12.83c11.43.58,22.64-5,28.42-15,6.1-10.58,4.48-23.69-2.09-33.63Q68.47,43,70,37.2c.54-2.06,1.07-4.3.37-6.38a8.42,8.42,0,0,0-3-3.93c-3.13-2.44-7.06-4.09-10.7-5.61a54.08,54.08,0,0,0-12.64-4c-3.35-.51-8.42-.5-10,3.19a64.52,64.52,0,0,0-2.17,7.26c-.69,2.38-1.37,4.76-2.06,7.14a31.51,31.51,0,0,0-18,43.76,68.09,68.09,0,0,0,3.8,36.55,47.88,47.88,0,0,0,20,23.94A52.4,52.4,0,0,0,65.53,146.25ZM205.63,195a1.22,1.22,0,0,0,2.36-.65c-.05-.16-.1-.32-.14-.48a3.64,3.64,0,0,1,2,1.65,3,3,0,0,1-1.61,4.35c-1.64.7-3.64.48-4-1.52a4.25,4.25,0,0,1,1.3-3.81ZM11.12,67.38A29.82,29.82,0,0,1,16.2,48.15a28.43,28.43,0,0,1,6.64-6.85A30.89,30.89,0,0,1,27,38.75c1.4-.71,2.94-1.09,4.34-1.78.89-.44,1-1.7,1.22-2.56l1-3.55,1.93-6.64a19,19,0,0,1,.84-2.78,3.14,3.14,0,0,1,2.25-1.59,14,14,0,0,1,6.55.15,65,65,0,0,1,12.41,4.27c2,.9,4,1.88,5.91,3a11.24,11.24,0,0,1,4,3.18c0,.05.05.11.08.16l-3.25-.84a1.22,1.22,0,0,0-.65,2.35l4,1a1.17,1.17,0,0,0,.52,0,14.18,14.18,0,0,1-.59,3.4c-.12.43-.23.87-.35,1.3a12.17,12.17,0,0,1-2.67-.9,1.25,1.25,0,0,0-1.67.44,1.23,1.23,0,0,0,.44,1.67,14.69,14.69,0,0,0,3.28,1.15c-.27,1-.53,2-.8,3l-2.82-1.05a1.22,1.22,0,1,0-.65,2.35l2.85,1.06c-.1.35-.19.7-.28,1a11.31,11.31,0,0,0-.53,2,4.43,4.43,0,0,0-1.66.39,1.23,1.23,0,0,0-.44,1.67,1.25,1.25,0,0,0,1.67.44,1.51,1.51,0,0,1,1.45.22l.2.1a42.28,42.28,0,0,1,2.78,5.6c-1.08-.23-2.17-.43-3.28-.57A1.23,1.23,0,0,0,64,57.7a1.24,1.24,0,0,0,1.22,1.22,31.49,31.49,0,0,1,4,.78l.21,0a31.59,31.59,0,0,1,.93,4.9c-1-.24-2-.49-3-.78a1.22,1.22,0,0,0-.65,2.36c1.28.36,2.56.68,3.85,1a27.6,27.6,0,0,1-.38,5.29A13.17,13.17,0,0,1,66.61,71a1.22,1.22,0,0,0-1.24,2.11,15.5,15.5,0,0,0,4.14,1.72s0,0,0,0a24.34,24.34,0,0,1-1.29,3.68c-.11.25-.23.49-.35.73a7.72,7.72,0,0,1-3.36-1.42,1.23,1.23,0,0,0-1.67.43A1.25,1.25,0,0,0,63.3,80a9.25,9.25,0,0,0,3.39,1.55,27.84,27.84,0,0,1-2.87,3.95l-3-1.73a1.22,1.22,0,0,0-1.23,2.11c.83.48,1.66,1,2.5,1.43a27,27,0,0,1-4.41,3.42,1.43,1.43,0,0,0-.57-.85A21.28,21.28,0,0,0,54,87.93c-1.4-.69-2.64,1.41-1.23,2.11a21,21,0,0,1,2.94,1.79,26.35,26.35,0,0,1-3.63,1.54c-.24.09-.49.14-.73.22a1.25,1.25,0,0,0-.37-.35l-3.37-2a1.22,1.22,0,0,0-1.23,2.11l1.78,1.08a29.82,29.82,0,0,1-4,.51,6.7,6.7,0,0,0-2.33-1.44,1.23,1.23,0,0,0-1.5.86,1.35,1.35,0,0,0,0,.6,31,31,0,0,1-7.19-1.3C21.47,90.08,12.13,79.7,11.12,67.38Z"/><path class="cls-2" d="M49.1,78.09a13.28,13.28,0,0,0,7-13.32A15.84,15.84,0,0,0,43.6,51.41,13.83,13.83,0,0,0,29,57.9a14.55,14.55,0,0,0,1.64,16.79A16,16,0,0,0,49.1,78.09ZM30.34,60.69a11.32,11.32,0,0,1,10.49-7.12,13.42,13.42,0,0,1,12.55,9.72,11,11,0,0,1-4,11.76c-5.12,3.7-12.87,2.51-17-2.09A12,12,0,0,1,30.34,60.69Z"/><path class="cls-2" d="M40,35.67a29.08,29.08,0,0,1,18.55,7.21,1.24,1.24,0,0,0,2-.54c.46-1.72,1-3.44,1.35-5.19a5.07,5.07,0,0,0-.71-4.2,9.16,9.16,0,0,0-3.13-2.42,46.17,46.17,0,0,0-4.73-2.21c-3-1.22-6.62-2.66-9.92-2a3.8,3.8,0,0,0-3.09,2.52c-.6,1.72-1,3.54-1.53,5.29a1.07,1.07,0,0,0,.28,1.14A1.14,1.14,0,0,0,40,35.67Zm2.31-4.8c.16-.55.24-1.42.69-1.83a3.24,3.24,0,0,1,1.82-.44c2.63-.11,5.5,1.1,7.9,2.08,1.22.49,2.41,1.05,3.58,1.66a9.27,9.27,0,0,1,2.81,1.85c.85,1,.54,2.15.24,3.29-.21.81-.42,1.61-.64,2.42a31.57,31.57,0,0,0-17.1-6.61C41.82,32.49,42.06,31.68,42.29,30.87Z"/></svg>