<svg id="Layer_2" data-name="Layer 2" xmlns="http://www.w3.org/2000/svg" viewBox="0 0 104.24 101.24"><defs><style>.cls-1{fill:#333;}</style></defs><path class="cls-1" d="M95.11,53.34A100.43,100.43,0,0,0,76.63,32.51,109.07,109.07,0,0,0,54.84,17.6,85.64,85.64,0,0,0,31.39,9.48a1.14,1.14,0,0,0-.33-.07h0L30,9.21C21.9,7.89,12.08,7,5.35,12.61a14.89,14.89,0,0,0-3.9,5.17c-3.79,8.64.47,17.52,5.8,24.41C13.11,49.75,20.44,56,27.81,62.06A184.78,184.78,0,0,0,52.23,79.21a91.75,91.75,0,0,0,9.58,4.89,1.17,1.17,0,0,0,.54.22,47.81,47.81,0,0,0,16.84,4,29.41,29.41,0,0,0,5.12-.27,1.15,1.15,0,0,0,1.33-.21c5.15-1,10-3.36,13.13-7.61a1.28,1.28,0,0,0,.93-1.4c0-.09.12-.17.17-.27a14.84,14.84,0,0,0,1.75-5,1.27,1.27,0,0,0,.51-.46,1.21,1.21,0,0,0-.33-1.57C102,65.11,98.52,58.6,95.11,53.34ZM31,11.86a80,80,0,0,1,17.65,5.49A106.49,106.49,0,0,1,88.09,47.79,81.39,81.39,0,0,1,93.26,55,11.3,11.3,0,0,1,94,59.12c-.7-.51-1.39-1-2.07-1.57a1.27,1.27,0,0,0-1.73,0,1.24,1.24,0,0,0,0,1.73c1.11.87,2.25,1.71,3.4,2.53a9.9,9.9,0,0,1-1.67,3.38c-1-.76-2.08-1.51-3.14-2.22-1.31-.88-2.53,1.23-1.23,2.11.9.6,1.78,1.24,2.65,1.87A11.66,11.66,0,0,1,86,69.11a20.48,20.48,0,0,0-3.52-2.91c-1.31-.87-2.54,1.25-1.23,2.11a19.11,19.11,0,0,1,1.69,1.27l-.79,0a27.65,27.65,0,0,1-8-1.28,1,1,0,0,0-.15-.37c-.57-.82-1.14-1.63-1.7-2.45a1.26,1.26,0,0,0-1.67-.44,1.23,1.23,0,0,0-.44,1.67l.15.23A91.54,91.54,0,0,1,62,63,151.22,151.22,0,0,1,37.51,47C31.46,42,24.55,36.5,22,28.82c-1.25-3.73-1.48-8.13.19-11.78A8.75,8.75,0,0,1,31,11.86ZM96.61,70.57l2.67,2.05A12.63,12.63,0,0,1,98,77l-.41-.39a6.19,6.19,0,0,1-1.44-1.45c-.73-1.39-2.83-.16-2.11,1.23a7.14,7.14,0,0,0,1.62,1.76l1,.92a16.25,16.25,0,0,1-3.32,3.14,13.29,13.29,0,0,0-2.85-3.09,1.28,1.28,0,0,0-1.73,0,1.24,1.24,0,0,0,0,1.73,12.35,12.35,0,0,1,2.51,2.65,20.69,20.69,0,0,1-6,2.09A16.49,16.49,0,0,1,83.26,83a1.22,1.22,0,0,0-2.11,1.23,16.7,16.7,0,0,0,1.16,1.72,33.36,33.36,0,0,1-7.53-.38,1,1,0,0,0-.16-.59c-.69-1-1.35-2-2-3-.83-1.34-2.94-.11-2.11,1.23.36.58.75,1.14,1.13,1.72a55.22,55.22,0,0,1-8.12-2.7l-.78-2.51c-.46-1.49-2.82-.86-2.35.65,0,.18.11.36.16.54-.73-.35-1.45-.7-2.16-1.06a154.69,154.69,0,0,1-23.26-15A180.33,180.33,0,0,1,14.59,46.92C8.9,41,2.58,33.64,2.41,25a14.26,14.26,0,0,1,1.14-6c3.8-8.08,13-8.76,20.83-8.06a10.41,10.41,0,0,0-3.05,2.74A15.83,15.83,0,0,0,18.6,24.37c.69,9.17,7.37,16,14,21.68a154.87,154.87,0,0,0,25.94,17.8c6.95,3.83,14.55,7.86,22.65,8.19a15.22,15.22,0,0,0,11.69-4.19,12.44,12.44,0,0,0,3-4.92,1.3,1.3,0,0,0,.5-2.16c0-.14,0-.28,0-.42a25.37,25.37,0,0,1,2.94,9.24l-1.16-.88a.64.64,0,0,0-.15-.13l-.17-.12a1.23,1.23,0,0,0-1.67.44A1.24,1.24,0,0,0,96.61,70.57Z"/></svg>