<svg id="Layer_2" data-name="Layer 2" xmlns="http://www.w3.org/2000/svg" viewBox="0 0 231.03 175.74"><defs><style>.cls-1{fill:none;}.cls-2{fill:#333;}</style></defs><path class="cls-1" d="M116.32,148.21a1.22,1.22,0,0,1-.4-2.41,20.21,20.21,0,0,0,3.75-1c-.36-1.44-.71-2.87-1.07-4.3l-2.79.76a1.23,1.23,0,0,1-1.4-1,1.25,1.25,0,0,1,1-1.4l2.6-.71q-.77-3.12-1.56-6.24a6.47,6.47,0,0,1-3.17,1.22c-1.56.14-2-2.27-.4-2.41a4.32,4.32,0,0,0,2.69-1.24.87.87,0,0,1,.23-.16q-.83-3.27-1.66-6.53c-1,.48-2,1-3,1.54-1.37.77-2.35-1.46-1-2.23,1.09-.62,2.21-1.18,3.34-1.72-.36-1.39-.72-2.78-1.07-4.16A9.7,9.7,0,0,1,109,117a1.23,1.23,0,0,1-1.1-1.33,1.27,1.27,0,0,1,1.33-1.11,6.13,6.13,0,0,0,2.56-.64q-.75-2.91-1.51-5.8a6.13,6.13,0,0,1-3.18,1.2,1.26,1.26,0,0,1-1.41-1,1.24,1.24,0,0,1,1-1.41,4,4,0,0,0,2.81-1.33l.07-.07-.84-3.14a14.76,14.76,0,0,1-3.52.94c-1.56.2-2-2.21-.4-2.41a11.85,11.85,0,0,0,3-.81l.24-.07q-.8-3-1.6-5.9a23.88,23.88,0,0,1-4.22,1.2,1.22,1.22,0,0,1-.4-2.41,20.3,20.3,0,0,0,4-1.16l-1.59-5.65a9.13,9.13,0,0,1-3.06.72,1.25,1.25,0,0,1-1.4-1,1.23,1.23,0,0,1,1-1.4,7.63,7.63,0,0,0,2.39-.53L46.57,51Q35.22,75.51,24,100.1c4.84,21.56,9.79,43.1,15.15,64.54a1.09,1.09,0,0,1,.43-.15c4.54-.68,9.06-1.46,13.58-2.28-4-16.29-10.22-32.5-12.15-49.21-.7-6.09-.18-12.25,3.8-17.19a28.12,28.12,0,0,1,16.58-9.53C74.65,83.89,84.53,91.4,89,103.51c5.85,16,9.09,32.86,13.67,49.22,6.09-1,12.2-1.89,18.34-2.55-.24-1-.48-2-.73-3A23.08,23.08,0,0,1,116.32,148.21Z"/><path class="cls-1" d="M118.39,83.13c-.17,1.13-.34,2.26-.5,3.39-.06.39-.13.78-.21,1.18,33.09-13.28,66.55-26,100.4-37.15a36.94,36.94,0,0,1,.92-4.91c-33.92,11.29-67.45,24-100.61,37.38Z"/><path class="cls-1" d="M199.55,66.77c-1.54.34-1.93-2.07-.4-2.41l3.79-.86c-.4-1.61-.79-3.23-1.19-4.84C173.26,68.52,145,79.32,117.1,90.56a1.64,1.64,0,0,1-.29.16l-.24,0-1,.41a1.26,1.26,0,0,1-1.71-1.2l-7-4.09q4.74,16.85,9.06,33.81a1.28,1.28,0,0,1,.51,2q3.58,14,7,28c30.41-12.12,61.61-22.29,92.68-32.53,0-.06,0-.12,0-.18l-1.6.46a1.23,1.23,0,0,1-1.41-1,1.26,1.26,0,0,1,1-1.41l1.42-.41q-1-3.89-1.92-7.77h0c-.3.13-.58.28-.87.42a2.79,2.79,0,0,1-2.42.21,1.25,1.25,0,0,1-.72-1.57,1.22,1.22,0,0,1,1.56-.72.19.19,0,0,0,.09,0s0,0,0,0h.05l.17-.06.92-.44a3.91,3.91,0,0,1,.65-.24c-.53-2.18-1.07-4.37-1.6-6.56a8.49,8.49,0,0,1-3.67.82,1.24,1.24,0,0,1-1.11-1.33,1.26,1.26,0,0,1,1.33-1.1,5.66,5.66,0,0,0,2.86-.8c-.38-1.59-.77-3.19-1.16-4.78a20.45,20.45,0,0,1-3.28.73,1.22,1.22,0,0,1-.4-2.41,18.06,18.06,0,0,0,3.1-.69c-.56-2.32-1.12-4.63-1.69-7a9.3,9.3,0,0,1-3.09.92c-1.56.16-2-2.25-.4-2.41a7,7,0,0,0,2.9-1L205.27,73a21.63,21.63,0,0,1-3.34,1.16,1.23,1.23,0,0,1-1.4-1,1.24,1.24,0,0,1,1-1.4,18.67,18.67,0,0,0,3.15-1.18c-.39-1.58-.78-3.16-1.16-4.74Z"/><path class="cls-1" d="M21.7,99.25Q33.25,74,44.86,48.82a1.23,1.23,0,0,1,.8-.68,1.21,1.21,0,0,1,1.07.1L115.18,88a7.51,7.51,0,0,0,.14-.75c.19-1.27.38-2.54.56-3.81a.82.82,0,0,1-.19-.09L44.29,41.88c-11,23.79-21.9,47.66-32.84,71.49v0c1,.6,2,1.23,2.9,1.9L21.49,99.7A.94.94,0,0,1,21.7,99.25Z"/><path class="cls-1" d="M116.86,81c33.29-13.41,67-26.21,101-37.56-1.75-.9-3.51-1.8-5.27-2.68l-5.92,2c-1.48.49-2.49-1.73-1-2.22l3.83-1.27-5.05-2.48a22.51,22.51,0,0,1-4.5,3c-1.4.71-2.4-1.52-1-2.23a19.25,19.25,0,0,0,3.1-2l-5.79-2.77a1.44,1.44,0,0,1-.38.28l-3.78,1.81c-1.42.68-2.42-1.55-1-2.23l2.44-1.17L188.38,29A22.22,22.22,0,0,0,184,31.35c-1.28.89-2.83-1-1.53-1.9a25.34,25.34,0,0,1,3-1.8L182.09,26l-4.64,2.61c-1.37.77-2.36-1.47-1-2.23l2.94-1.65-7.24-3.43a1.31,1.31,0,0,1-.53.57,43.65,43.65,0,0,1-5.22,2.47c-1.45.58-2.46-1.64-1-2.23a44.47,44.47,0,0,0,4.26-2l-7.1-3.4a30.54,30.54,0,0,1-5.67,3c-1.46.58-2.46-1.64-1-2.23a27.91,27.91,0,0,0,4.1-2c-1.7-.83-3.4-1.65-5.1-2.49-2.09.94-4.19,1.85-6.31,2.71-1.45.59-2.46-1.64-1-2.23s3-1.24,4.47-1.89l-4.25-2.11L46.66,40.44l70,40.64A.8.8,0,0,1,116.86,81Z"/><path class="cls-1" d="M79.82,93.05C75,88.83,68,87.52,61.78,88.69c-7.48,1.41-15.67,6.38-17.92,14-1.88,6.39,0,13.58,1.4,19.89,2.9,13.18,7.08,26,10.28,39.15,14.92-2.78,29.75-6.07,44.69-8.64-3.94-14.06-7.07-28.34-11.41-42.29C86.88,104.61,84.93,97.5,79.82,93.05Z"/><path class="cls-2" d="M219.68,52.45a1.11,1.11,0,0,0,.74-1,36.82,36.82,0,0,1,1.38-6.82,1.08,1.08,0,0,0,.2-1.59,1.39,1.39,0,0,0-.56-.54c-10.32-5.35-20.8-10.39-31.31-15.36a1.28,1.28,0,0,0-1.63-.8h0l-5.8-2.74a.89.89,0,0,0-.44-.2c-8.62-4.07-17.25-8.14-25.82-12.34a1.13,1.13,0,0,0-1.46-.73l-6.62-3.28a1,1,0,0,0-1.11.08L43.29,38.94a.94.94,0,0,0-.73.88C31.33,64,20.28,88.29,9.16,112.53a1.13,1.13,0,0,0-.08.24,1.11,1.11,0,0,0-.1,2c1.49.87,2.93,1.81,4.34,2.81l0,.07c-.66,1.42,1.64,2.26,2.29.84.15-.34.31-.67.46-1,2.83-1.2,5.84-1.77,8.74-2.79,4,17.52,8.08,35,12.46,52.44.36,1.45,2.56,1.16,2.44-.19a1.43,1.43,0,0,0,.29,0c27.2-4.08,53.89-11.33,81.27-14.3a1.16,1.16,0,0,0,1.11.11c31.36-12.6,63.58-23.06,95.65-33.64a1,1,0,0,0,.71-.73,1.14,1.14,0,0,0,0-.58c-.2-.79-.39-1.58-.59-2.37v-.14a1.66,1.66,0,0,0-.1-.29c-4.14-16.64-8.14-33.32-12.22-50a1.29,1.29,0,0,0-.44-1.8q-.65-2.67-1.3-5.32,7.56-2.61,15.16-5.13A1,1,0,0,0,219.68,52.45ZM147.81,9.52l4.25,2.11q-2.22,1-4.47,1.89c-1.46.59-.45,2.82,1,2.23,2.12-.86,4.22-1.77,6.31-2.71,1.7.84,3.4,1.66,5.1,2.49a27.91,27.91,0,0,1-4.1,2c-1.46.59-.46,2.81,1,2.23a30.54,30.54,0,0,0,5.67-3l7.1,3.4a44.47,44.47,0,0,1-4.26,2c-1.47.59-.46,2.81,1,2.23a43.65,43.65,0,0,0,5.22-2.47,1.31,1.31,0,0,0,.53-.57l7.24,3.43-2.94,1.65c-1.36.76-.37,3,1,2.23L182.09,26l3.41,1.61a25.34,25.34,0,0,0-3,1.8c-1.3.9.25,2.79,1.53,1.9A22.22,22.22,0,0,1,188.38,29l5.19,2.46-2.44,1.17c-1.42.68-.42,2.91,1,2.23l3.78-1.81a1.44,1.44,0,0,0,.38-.28l5.79,2.77a19.25,19.25,0,0,1-3.1,2c-1.4.71-.4,2.94,1,2.23a22.51,22.51,0,0,0,4.5-3l5.05,2.48-3.83,1.27c-1.49.49-.48,2.71,1,2.22l5.92-2c1.76.88,3.52,1.78,5.27,2.68-34.06,11.35-67.74,24.15-101,37.56a.8.8,0,0,0-.16.08l-70-40.64ZM14.35,115.29c-.95-.67-1.92-1.3-2.9-1.9v0c10.94-23.83,21.81-47.7,32.84-71.49l71.4,41.42a.82.82,0,0,0,.19.09c-.18,1.27-.37,2.54-.56,3.81a7.51,7.51,0,0,1-.14.75L46.73,48.24a1.21,1.21,0,0,0-1.07-.1,1.23,1.23,0,0,0-.8.68Q33.22,74,21.7,99.25a.94.94,0,0,0-.21.45Zm3.12-1q2.41-5.28,4.84-10.58l1.92,8.51C22,113.08,19.71,113.62,17.47,114.33Zm38.07,47.44c-3.2-13.11-7.38-26-10.28-39.15-1.38-6.31-3.28-13.5-1.4-19.89,2.25-7.66,10.44-12.63,17.92-14,6.21-1.17,13.19.14,18,4.36,5.11,4.45,7.06,11.56,9,17.79,4.34,14,7.47,28.23,11.41,42.29C85.29,155.7,70.46,159,55.54,161.77Zm47.1-9c-4.58-16.36-7.82-33.25-13.67-49.22C84.53,91.4,74.65,83.89,61.38,86.28A28.12,28.12,0,0,0,44.8,95.81c-4,4.94-4.5,11.1-3.8,17.19,1.93,16.71,8.15,32.92,12.15,49.21-4.52.82-9,1.6-13.58,2.28a1.09,1.09,0,0,0-.43.15c-5.36-21.44-10.31-43-15.15-64.54Q35.24,75.51,46.57,51l56.67,32.88a7.63,7.63,0,0,1-2.39.53,1.23,1.23,0,0,0-1,1.4,1.25,1.25,0,0,0,1.4,1,9.13,9.13,0,0,0,3.06-.72l1.59,5.65a20.3,20.3,0,0,1-4,1.16,1.22,1.22,0,0,0,.4,2.41,23.88,23.88,0,0,0,4.22-1.2q.81,2.94,1.6,5.9l-.24.07a11.85,11.85,0,0,1-3,.81c-1.56.2-1.16,2.61.4,2.41a14.76,14.76,0,0,0,3.52-.94l.84,3.14-.07.07a4,4,0,0,1-2.81,1.33,1.24,1.24,0,0,0-1,1.41,1.26,1.26,0,0,0,1.41,1,6.13,6.13,0,0,0,3.18-1.2q.77,2.9,1.51,5.8a6.13,6.13,0,0,1-2.56.64,1.27,1.27,0,0,0-1.33,1.11A1.23,1.23,0,0,0,109,117a9.7,9.7,0,0,0,3.42-.69c.35,1.38.71,2.77,1.07,4.16-1.13.54-2.25,1.1-3.34,1.72-1.36.77-.38,3,1,2.23,1-.55,2-1.06,3-1.54q.84,3.26,1.66,6.53a.87.87,0,0,0-.23.16,4.32,4.32,0,0,1-2.69,1.24c-1.56.14-1.16,2.55.4,2.41a6.47,6.47,0,0,0,3.17-1.22q.8,3.12,1.56,6.24l-2.6.71a1.25,1.25,0,0,0-1,1.4,1.23,1.23,0,0,0,1.4,1l2.79-.76c.36,1.43.71,2.86,1.07,4.3a20.21,20.21,0,0,1-3.75,1,1.22,1.22,0,0,0,.4,2.41,23.08,23.08,0,0,0,3.93-1c.25,1,.49,2,.73,3C114.84,150.84,108.73,151.72,102.64,152.73Zm102-82.12a18.67,18.67,0,0,1-3.15,1.18,1.24,1.24,0,0,0-1,1.4,1.23,1.23,0,0,0,1.4,1A21.63,21.63,0,0,0,205.27,73L206.71,79a7,7,0,0,1-2.9,1c-1.56.16-1.16,2.57.4,2.41a9.3,9.3,0,0,0,3.09-.92c.57,2.32,1.13,4.63,1.69,7a18.06,18.06,0,0,1-3.1.69,1.22,1.22,0,0,0,.4,2.41,20.45,20.45,0,0,0,3.28-.73c.39,1.59.78,3.19,1.16,4.78a5.66,5.66,0,0,1-2.86.8,1.26,1.26,0,0,0-1.33,1.1,1.24,1.24,0,0,0,1.11,1.33,8.49,8.49,0,0,0,3.67-.82c.53,2.19,1.07,4.38,1.6,6.56a3.91,3.91,0,0,0-.65.24l-.92.44-.17.06h-.05s0,0,0,0a.19.19,0,0,1-.09,0,1.22,1.22,0,0,0-1.56.72,1.25,1.25,0,0,0,.72,1.57,2.79,2.79,0,0,0,2.42-.21c.29-.14.57-.29.87-.42h0q.94,3.89,1.92,7.77L214,115a1.26,1.26,0,0,0-1,1.41,1.23,1.23,0,0,0,1.41,1L216,117c0,.06,0,.12,0,.18-31.07,10.24-62.27,20.41-92.68,32.53q-3.45-14-7-28a1.28,1.28,0,0,0-.51-2q-4.35-17-9.06-33.81l7,4.09a1.26,1.26,0,0,0,1.71,1.2l1-.41.24,0a1.64,1.64,0,0,0,.29-.16c27.94-11.24,56.16-22,84.65-31.9.4,1.61.79,3.23,1.19,4.84l-3.79.86c-1.53.34-1.14,2.75.4,2.41l4-.9C203.9,67.45,204.29,69,204.68,70.61Zm6.46,34.62h0Zm6.94-54.68c-33.85,11.19-67.31,23.87-100.4,37.15.08-.4.15-.79.21-1.18.16-1.13.33-2.26.5-3.39V83C151.55,69.67,185.08,56.93,219,45.64A36.94,36.94,0,0,0,218.08,50.55Z"/></svg>