<svg height="100px" viewBox="0 0 408.61 456.12">
<defs><style>.dog1{fill:#252636;}.dog2{fill:#d2622e;}.dog3{fill:#f5e7dc;}.dog4{fill:#0b0c12;}.dog5{fill:#fff;}.dog6{fill:#1a1b26;}.dog7{fill:#a14222;}.dog8{fill:#c76436;}.dog9{fill:#b35428;}</style></defs>
<path class="dog1" d="M271.33,81.94c-4.52-18.74-12.44-49.36-31.47-58.79-1.87-.93-5.24.47-5.32,2.53-1.21,29.6-7.8,55-19.28,81-10,22.74-18.47,48.94-10.19,73.08,4.91,14.31,16,27.06,31.85,29.42,34.19,5.07,39.19-28.67,39.82-31.3C281.6,157.39,278.88,113.21,271.33,81.94Z" transform="translate(-38.28 -11.39)"/><path class="dog2" d="M48.42,259.86c.24-1.31,38.7-70.17,60.71-95.43,25.21-28.94,56.85-49,106.79-53.38,33.14-2.88,69-2.1,97.6,17,27.18,18.14,37.75,45.89,48,75.05,17.6,20.3,42.58-4.61,61.86,8.74,11,7.63,14.09,34.58,17.81,46.5,12.21,39,5,71.31-26.56,100.2-35.74,32.66-70.39,22.86-109.18,15.9-.35.11-.7.28-1,.37-28.48,7.64-80.81,68.85-94.55,92.73L167.36,410.2c-20.56-28.63-39.39-9.81-66.92-32.28C83.19,363.83,62,354,49.9,334.47a84.23,84.23,0,0,1-8.22-17.63c-6.37-19-3.6-39.84,6.74-57Z" transform="translate(-38.28 -11.39)"/><path class="dog1" d="M145.45,95.22c11.47-26,18.06-51.4,19.28-81,.08-2.06,3.44-3.46,5.32-2.53,7.56,3.74,13.35,10.86,17.88,19.22a9.24,9.24,0,0,0-.77,3.7c-.12,18.1.55,36.17,1.44,54.23-12,31-16.75,63.27-18.76,96.14-.46,4.21-.68,8.49-.79,12.9-.66-.07-1.26-.06-1.94-.16-15.89-2.36-26.94-15.11-31.85-29.43C127,144.16,135.43,118,145.45,95.22Z" transform="translate(-38.28 -11.39)"/><path class="dog1" d="M318.85,236.22a16.13,16.13,0,0,0-4.26-5.05c-1.41-1.22-2.8-2.5-4.14-3.89-9.37-9.7-13.59-19.64-11.51-33.18,1.74-11.3,6.22-22.59,15-30.23,7-6.06,16.52-8.58,26.25-8.25,9.27,14.32,15.4,30.63,21.31,47.47a24.55,24.55,0,0,0,2,2c-4.73,12.17-3.6,25.58,2.06,37.68.08.45.18.94.35,1.61q.78,3.74,0-.48a3.31,3.31,0,0,1,.64.93,47.07,47.07,0,0,0-.71,5.49c.05,5.61-.23,11.22-.44,16.83-.57,15.7-.3,31.43-.3,47.14,0,30.94,24.7,45.88,48.68,44.95-35.57,31.84-77.24,24.22-108.39,15.23-.34.11-.69.28-1,.37a15.33,15.33,0,0,0-5.08,2.79c-.65-.83-18.26-16.43-18.88-34.39C278.13,275.13,333.09,265.59,318.85,236.22Z" transform="translate(-38.28 -11.39)"/><path class="dog3" d="M357.46,242.76c-.76-13-1.88-27.1,3.46-39,.14-.31.21-.6.34-.91,6.2,4.48,20.65,9,28.64,7.65,11.49-2,23.33-5.69,33.56,1.4,11,7.63,14.08,34.58,17.81,46.5,12.21,39,5,71.31-26.56,100.2a162.88,162.88,0,0,1-16.56,13.23c-38.92-7-55.22-56.34-50.92-79.84C349.85,277.73,358.45,259.41,357.46,242.76Z" transform="translate(-38.28 -11.39)"/><path class="dog4" d="M327.57,195.34c1.64,6.73,6.47,11.34,10.79,10.29s6.5-7.36,4.86-14.1-6.47-11.34-10.79-10.29S325.94,188.6,327.57,195.34Z" transform="translate(-38.28 -11.39)"/><path class="dog1" d="M301.4,139c-4.45,5.3-5.31,11.92-1.9,14.78s9.77.88,14.23-4.42,5.32-11.93,1.91-14.79S305.86,133.67,301.4,139Z" transform="translate(-38.28 -11.39)"/><path class="dog5" d="M324.6,182c5.21-1.27,7.19,6.83,2,8.1S319.38,183.27,324.6,182Z" transform="translate(-38.28 -11.39)"/><path class="dog1" d="M404.54,237.94c-10.68-4.91-14.65-16.23-16.15-27.26,12-1.9,24.41-6.25,35.1,1.15,6.62,4.58,10.34,16.12,13.09,27.2C426.14,242.3,414.67,242.59,404.54,237.94Z" transform="translate(-38.28 -11.39)"/><path class="dog4" d="M413.52,240.65c.55-4.18-1.4-8.48-1-13s4.6-7.11,8.74-5.1,5.26,7.54,4.83,11.6a21.4,21.4,0,0,1-2.07,7.06A43.07,43.07,0,0,1,413.52,240.65Z" transform="translate(-38.28 -11.39)"/><path class="dog6" d="M311,342.18c29.32,19.42,63,26.47,97.5,21.37A89.47,89.47,0,0,1,393,373.34c-31,1.2-60.85-7.26-87.35-24.82C301.16,345.56,306.62,339.25,311,342.18Z" transform="translate(-38.28 -11.39)"/><path class="dog4" d="M421.57,277.56c5.36,0,5.37,8.33,0,8.33S416.2,277.56,421.57,277.56Z" transform="translate(-38.28 -11.39)"/><path class="dog4" d="M395.87,260.54c5.36,0,5.37,8.34,0,8.34S390.5,260.54,395.87,260.54Z" transform="translate(-38.28 -11.39)"/><path class="dog4" d="M384.41,288.67c5.36,0,5.37,8.34,0,8.34S379,288.67,384.41,288.67Z" transform="translate(-38.28 -11.39)"/><path class="dog7" d="M180.71,20.3c11.63,13.33,17.35,35.53,20.92,50.34,7.55,31.27,10.27,75.45,5.41,95.94-.62,2.64-5.63,36.37-39.82,31.3a34,34,0,0,1-4.58-1.08c-7.17-14.59-10.1-33-10.06-45.87,0-15,4.59-28,10.34-41.63C176.24,77.84,185.55,53.93,180.71,20.3Z" transform="translate(-38.28 -11.39)"/><path class="dog8" d="M172.6,171.43c9.66-13.42,38.34-30.55,38.52-48.23.16-16.08,25.16-16.12,25,0a45.2,45.2,0,0,1-4.65,19.51c2.54,3.82,3.31,8.77.57,13a227.23,227.23,0,0,0-34.39,89.57c-2.53,15.85-26.64,9.12-24.11-6.65.56-3.49,1.24-6.94,1.94-10.38C168,233.94,154,229.79,155,218.78,156.72,201.07,162.14,186,172.6,171.43Z" transform="translate(-38.28 -11.39)"/><path class="dog9" d="M122.27,195.55a84.19,84.19,0,0,0,41.51,25.77c5.17,1.4,3,9.45-2.21,8a92.15,92.15,0,0,1-45.2-27.92C112.82,197.44,118.7,191.53,122.27,195.55Z" transform="translate(-38.28 -11.39)"/><path class="dog9" d="M231.34,309.38c1.58-5.12,9.63-2.93,8,2.21-6.53,21.14,15.1,46,28,60.77,3.51,4-2.36,9.95-5.89,5.89C246.24,360.76,223.65,334.29,231.34,309.38Z" transform="translate(-38.28 -11.39)"/></svg>