<svg id="bone_icon" width="40px" height="40px" xmlns="http://www.w3.org/2000/svg" viewBox="0 -40 650 600">
<path d="M509.11,50.71a74.39,74.39,0,0,0-18-76.12l-5.4-5.4A74.39,74.39,0,0,0,366.6,55.05c10.85,21.72,23.71,40.13,5,58.87L177.91,307.58c-19.36,19.36-40.39,4.27-58.86-5A74.38,74.38,0,0,0,33.19,421.74l5.4,5.4a74.39,74.39,0,0,0,76.12,18,12.79,12.79,0,0,1,16.18,16.18,74.39,74.39,0,0,0,18,76.12l5.4,5.4A74.38,74.38,0,0,0,273.39,457c-10.85-21.71-23.71-40.12-5-58.86L462.08,204.43c19.36-19.36,40.39-4.27,58.87,5A74.38,74.38,0,0,0,606.8,90.27l-5.4-5.4a74.37,74.37,0,0,0-76.12-18,12.79,12.79,0,0,1-16.17-16.19Z" transform="translate(-11.4 52.6)"/></svg>