<svg xmlns="http://www.w3.org/2000/svg" class="paw" width="40px" viewBox="0 0 168.67 158.77">
<path d="M114.9,166.12c-1.63-.34-3.27-.75-4.87-1.25a35.79,35.79,0,0,0-21.36.27c-10.15,3.16-20.42,3.52-30.52-.54-16.59-6.66-22.38-23-13.15-38.33,2.62-4.32,6.68-7.76,10-11.63,5.55-6.36,11.8-12.25,16.46-19.21,7.18-10.72,16.4-16.8,29.38-16.35S122.52,86.43,129,97.53c3.5,6,9.07,10.8,13.85,16,3.24,3.53,7.28,6.46,10,10.33,12.24,17.42,4.36,37.54-16.42,42.34-.71.17-1.42.31-2.14.43A52.27,52.27,0,0,1,114.9,166.12Z" transform="translate(-15.32 -8.81)"/><path d="M93.71,41.15c.06,10.67-1.24,18-5.35,24.52C79.23,80.23,62,80.37,53,65.74c-5.67-9.24-7.2-19.29-3.11-29.61C54.07,25.64,60.63,16.92,70.6,11.32c8.83-5,15.36-2.5,19.11,6.89a30.52,30.52,0,0,1,1.94,6.67C92.59,31.29,93.29,37.73,93.71,41.15Z" transform="translate(-15.32 -8.81)"/><path d="M109.92,18.09c4-9,9.82-11.46,18.61-6.95,18.26,9.38,27.72,32.77,20.08,50.36-3.56,8.17-9.14,14.41-18.83,15-9.14.52-17-5.35-21.08-15.35a31.66,31.66,0,0,1-1.91-6.17l0-.11A63.11,63.11,0,0,1,106.61,35C107.54,28.51,108.84,20.52,109.92,18.09Z" transform="translate(-15.32 -8.81)"/><path d="M57.92,94.2c-.28,9.57-2.54,16.49-10,20.41-7,3.67-13.66,1.77-19.64-2.48-6.29-4.47-10.72-10.6-12.13-18.24C14.26,83.81,15.58,74,20.9,65.05c5.61-9.4,13.69-10.58,21.24-2.66C51,71.7,57.15,82.57,57.92,94.2Z" transform="translate(-15.32 -8.81)"/><path d="M184,85.72c.27,12-4.56,21.4-14.75,27.56-12.83,7.75-26.42.3-27.57-14.69a32.17,32.17,0,0,1,4.6-20c4-6.38,8.25-12.91,13.6-18.13,5.6-5.46,11.86-4.16,16.75,2C182,69.24,183.81,77.24,184,85.72Z" transform="translate(-15.32 -8.81)"/></svg>